<svg class="main-svg" xmlns="http://www.w3.org/2000/svg" xmlns:xlink="http://www.w3.org/1999/xlink" width="16535.4330708" height="9448.8188976" style="" viewBox="0 0 700 400"><rect x="0" y="0" width="700" height="400" style="fill: rgb(255, 255, 255); fill-opacity: 1;"/><defs id="defs-a784c0"><g class="clips"><clipPath id="clipa784c0xyplot" class="plotclip"><rect width="623" height="322"/></clipPath><clipPath class="axesclip" id="clipa784c0x"><rect x="46" y="0" width="623" height="400"/></clipPath><clipPath class="axesclip" id="clipa784c0y"><rect x="0" y="42" width="700" height="322"/></clipPath><clipPath class="axesclip" id="clipa784c0xy"><rect x="46" y="42" width="623" height="322"/></clipPath></g><g class="gradients"/><g class="patterns"/></defs><g class="bglayer"><rect class="bg" x="36" y="32" width="643" height="342" style="fill: rgb(0, 0, 0); fill-opacity: 0; stroke-width: 0;"/></g><g class="layer-below"><g class="imagelayer"/><g class="shapelayer"/></g><g class="cartesianlayer"><g class="subplot xy"><g class="layer-subplot"><g class="shapelayer"/><g class="imagelayer"/></g><g class="gridlayer"><g class="x"><path class="xgrid crisp" transform="translate(115.22,0)" d="M0,42v322" style="stroke: rgb(255, 255, 255); stroke-opacity: 1; stroke-width: 1px;"/><path class="xgrid crisp" transform="translate(184.44,0)" d="M0,42v322" style="stroke: rgb(255, 255, 255); stroke-opacity: 1; stroke-width: 1px;"/><path class="xgrid crisp" transform="translate(253.67,0)" d="M0,42v322" style="stroke: rgb(255, 255, 255); stroke-opacity: 1; stroke-width: 1px;"/><path class="xgrid crisp" transform="translate(322.89,0)" d="M0,42v322" style="stroke: rgb(255, 255, 255); stroke-opacity: 1; stroke-width: 1px;"/><path class="xgrid crisp" transform="translate(392.11,0)" d="M0,42v322" style="stroke: rgb(255, 255, 255); stroke-opacity: 1; stroke-width: 1px;"/><path class="xgrid crisp" transform="translate(461.33,0)" d="M0,42v322" style="stroke: rgb(255, 255, 255); stroke-opacity: 1; stroke-width: 1px;"/><path class="xgrid crisp" transform="translate(530.56,0)" d="M0,42v322" style="stroke: rgb(255, 255, 255); stroke-opacity: 1; stroke-width: 1px;"/><path class="xgrid crisp" transform="translate(599.78,0)" d="M0,42v322" style="stroke: rgb(255, 255, 255); stroke-opacity: 1; stroke-width: 1px;"/></g><g class="y"><path class="ygrid crisp" transform="translate(0,307.88)" d="M46,0h623" style="stroke: rgb(237, 237, 237); stroke-opacity: 1; stroke-width: 1px;"/><path class="ygrid crisp" transform="translate(0,251.75)" d="M46,0h623" style="stroke: rgb(237, 237, 237); stroke-opacity: 1; stroke-width: 1px;"/><path class="ygrid crisp" transform="translate(0,195.63)" d="M46,0h623" style="stroke: rgb(237, 237, 237); stroke-opacity: 1; stroke-width: 1px;"/><path class="ygrid crisp" transform="translate(0,139.5)" d="M46,0h623" style="stroke: rgb(237, 237, 237); stroke-opacity: 1; stroke-width: 1px;"/><path class="ygrid crisp" transform="translate(0,83.38)" d="M46,0h623" style="stroke: rgb(237, 237, 237); stroke-opacity: 1; stroke-width: 1px;"/></g></g><g class="zerolinelayer"><path class="yzl zl crisp" transform="translate(0,364)" d="M46,0h623" style="stroke: rgb(255, 255, 255); stroke-opacity: 1; stroke-width: 2px;"/></g><path class="xlines-below"/><path class="ylines-below"/><g class="overlines-below"/><g class="xaxislayer-below"/><g class="yaxislayer-below"/><g class="overaxes-below"/><g class="plot" transform="translate(46,42)" clip-path="url(#clipa784c0xyplot)"><g class="scatterlayer mlayer"><g class="trace scatter trace09c9aa" style="stroke-miterlimit: 2;"><g class="fills"><g><path class="js-fill" d="M623,322L0,322L0,78.41Q53.05,70.81 69.22,68.92C85.35,67.04 122.29,63.78 138.44,62.24C154.59,60.7 191.56,57.92 207.67,55.76C223.87,53.59 260.69,45.78 276.89,43.67C293,41.57 329.95,38.91 346.11,37.71C362.25,36.51 399.18,33.33 415.33,33.37C431.48,33.41 468.48,39.14 484.56,38.08C500.78,37.01 537.57,26.62 553.78,24.05Q569.88,21.5 623,16.1" style="fill: rgb(128, 0, 128); fill-opacity: 0.5; stroke-width: 0;"/></g></g><g class="errorbars"/><g class="lines"><path class="js-line" d="M0,78.41Q53.05,70.81 69.22,68.92C85.35,67.04 122.29,63.78 138.44,62.24C154.59,60.7 191.56,57.92 207.67,55.76C223.87,53.59 260.69,45.78 276.89,43.67C293,41.57 329.95,38.91 346.11,37.71C362.25,36.51 399.18,33.33 415.33,33.37C431.48,33.41 468.48,39.14 484.56,38.08C500.78,37.01 537.57,26.62 553.78,24.05Q569.88,21.5 623,16.1" style="vector-effect: non-scaling-stroke; fill: none; stroke: rgb(128, 0, 128); stroke-opacity: 1; stroke-width: 2px; opacity: 1;"/></g><g class="points"/><g class="text"/></g><g class="trace scatter trace0230cc" style="stroke-miterlimit: 2; opacity: 1;"><g class="fills"/><g class="errorbars"/><g class="lines"><path class="js-line" d="M0,99.11Q53.1,96.51 69.22,94.95C85.4,93.38 122.27,87.55 138.44,85.68C154.58,83.82 191.5,80.16 207.67,78.97C223.81,77.79 260.74,75.49 276.89,75.52C293.04,75.55 329.96,79.1 346.11,79.27C362.26,79.44 399.24,75.77 415.33,76.94C431.55,78.12 468.35,88.64 484.56,89.48C500.66,90.32 537.85,87.64 553.78,84.27Q570.17,80.8 623,59.65" style="vector-effect: non-scaling-stroke; fill: none; stroke: rgb(255, 0, 0); stroke-opacity: 1; stroke-width: 2px; opacity: 1;"/></g><g class="points"/><g class="text"/></g></g></g><g class="overplot"/><path class="xlines-above crisp" d="M0,0" style="fill: none;"/><path class="ylines-above crisp" d="M0,0" style="fill: none;"/><g class="overlines-above"/><g class="xaxislayer-above"><g class="xtick"><text text-anchor="middle" x="0" y="387" transform="translate(46,0)" style="font-family: 'Segoe UI Semibold'; font-size: 12px; fill: rgb(0, 0, 0); fill-opacity: 1; white-space: pre; opacity: 1;">2011-12</text></g><g class="xtick"><text text-anchor="middle" x="0" y="387" transform="translate(115.22,0)" style="font-family: 'Segoe UI Semibold'; font-size: 12px; fill: rgb(0, 0, 0); fill-opacity: 1; white-space: pre; opacity: 1;">2012-13</text></g><g class="xtick"><text text-anchor="middle" x="0" y="387" transform="translate(184.44,0)" style="font-family: 'Segoe UI Semibold'; font-size: 12px; fill: rgb(0, 0, 0); fill-opacity: 1; white-space: pre; opacity: 1;">2013-14</text></g><g class="xtick"><text text-anchor="middle" x="0" y="387" transform="translate(253.67,0)" style="font-family: 'Segoe UI Semibold'; font-size: 12px; fill: rgb(0, 0, 0); fill-opacity: 1; white-space: pre; opacity: 1;">2014-15</text></g><g class="xtick"><text text-anchor="middle" x="0" y="387" transform="translate(322.89,0)" style="font-family: 'Segoe UI Semibold'; font-size: 12px; fill: rgb(0, 0, 0); fill-opacity: 1; white-space: pre; opacity: 1;">2015-16</text></g><g class="xtick"><text text-anchor="middle" x="0" y="387" transform="translate(392.11,0)" style="font-family: 'Segoe UI Semibold'; font-size: 12px; fill: rgb(0, 0, 0); fill-opacity: 1; white-space: pre; opacity: 1;">2016-17</text></g><g class="xtick"><text text-anchor="middle" x="0" y="387" transform="translate(461.33,0)" style="font-family: 'Segoe UI Semibold'; font-size: 12px; fill: rgb(0, 0, 0); fill-opacity: 1; white-space: pre; opacity: 1;">2017-18</text></g><g class="xtick"><text text-anchor="middle" x="0" y="387" transform="translate(530.56,0)" style="font-family: 'Segoe UI Semibold'; font-size: 12px; fill: rgb(0, 0, 0); fill-opacity: 1; white-space: pre; opacity: 1;">2018-19</text></g><g class="xtick"><text text-anchor="middle" x="0" y="387" transform="translate(599.78,0)" style="font-family: 'Segoe UI Semibold'; font-size: 12px; fill: rgb(0, 0, 0); fill-opacity: 1; white-space: pre; opacity: 1;">2019-20</text></g><g class="xtick"><text text-anchor="middle" x="0" y="387" transform="translate(669,0)" style="font-family: 'Segoe UI Semibold'; font-size: 12px; fill: rgb(0, 0, 0); fill-opacity: 1; white-space: pre; opacity: 1;">2020-21</text></g></g><g class="yaxislayer-above"><g class="ytick"><text text-anchor="end" x="35" y="4.199999999999999" transform="translate(0,364)" style="font-family: 'Segoe UI Semibold'; font-size: 12px; fill: rgb(0, 0, 0); fill-opacity: 1; white-space: pre; opacity: 1;">0</text></g><g class="ytick"><text text-anchor="end" x="35" y="4.199999999999999" style="font-family: 'Segoe UI Semibold'; font-size: 12px; fill: rgb(0, 0, 0); fill-opacity: 1; white-space: pre; opacity: 1;" transform="translate(0,307.88)">200</text></g><g class="ytick"><text text-anchor="end" x="35" y="4.199999999999999" style="font-family: 'Segoe UI Semibold'; font-size: 12px; fill: rgb(0, 0, 0); fill-opacity: 1; white-space: pre; opacity: 1;" transform="translate(0,251.75)">400</text></g><g class="ytick"><text text-anchor="end" x="35" y="4.199999999999999" style="font-family: 'Segoe UI Semibold'; font-size: 12px; fill: rgb(0, 0, 0); fill-opacity: 1; white-space: pre; opacity: 1;" transform="translate(0,195.63)">600</text></g><g class="ytick"><text text-anchor="end" x="35" y="4.199999999999999" style="font-family: 'Segoe UI Semibold'; font-size: 12px; fill: rgb(0, 0, 0); fill-opacity: 1; white-space: pre; opacity: 1;" transform="translate(0,139.5)">800</text></g><g class="ytick"><text text-anchor="end" x="35" y="4.199999999999999" style="font-family: 'Segoe UI Semibold'; font-size: 12px; fill: rgb(0, 0, 0); fill-opacity: 1; white-space: pre; opacity: 1;" transform="translate(0,83.38)">1000</text></g></g><g class="overaxes-above"/></g></g><g class="polarlayer"/><g class="smithlayer"/><g class="ternarylayer"/><g class="geolayer"/><g class="funnelarealayer"/><g class="pielayer"/><g class="iciclelayer"/><g class="treemaplayer"/><g class="sunburstlayer"/><g class="glimages"/><defs id="topdefs-a784c0"><g class="clips"/><clipPath id="legenda784c0"><rect width="256" height="29" x="0" y="0"/></clipPath></defs><g class="layer-above"><g class="imagelayer"/><g class="shapelayer"/></g><g class="infolayer"><g class="legend" pointer-events="all" transform="translate(46,9.799999999999969)"><rect class="bg" shape-rendering="crispEdges" width="256" height="29" x="0" y="0" style="stroke: rgb(68, 68, 68); stroke-opacity: 1; fill: rgb(0, 0, 0); fill-opacity: 0; stroke-width: 0px;"/><g class="scrollbox" transform="" clip-path="url(#legenda784c0)"><g class="groups"><g class="traces" transform="translate(0,14.5)" style="opacity: 1;"><text class="legendtext" text-anchor="start" x="40" y="4.680000000000001" style="font-family: 'Segoe UI Semibold'; font-size: 12px; fill: rgb(0, 0, 0); fill-opacity: 1; white-space: pre;">"Stirling"</text><g class="layers"><g class="legendfill"><path class="js-fill" d="M5,-2h30v6h-30z" style="stroke-width: 0; fill: rgb(128, 0, 128); fill-opacity: 0.5;"/></g><g class="legendlines"><path class="js-line" d="M5,-2h30" style="fill: none; stroke: rgb(128, 0, 128); stroke-opacity: 1; stroke-width: 5px;"/></g><g class="legendsymbols"><g class="legendpoints"/></g></g><rect class="legendtoggle" x="0" y="-9.5" width="91.609375" height="19" style="fill: rgb(0, 0, 0); fill-opacity: 0;"/></g><g class="traces" transform="translate(94.109375,14.5)" style="opacity: 1;"><text class="legendtext" text-anchor="start" x="40" y="4.680000000000001" style="font-family: 'Segoe UI Semibold'; font-size: 12px; fill: rgb(0, 0, 0); fill-opacity: 1; white-space: pre;">Family Group Median</text><g class="layers" style="opacity: 1;"><g class="legendfill"/><g class="legendlines"><path class="js-line" d="M5,0h30" style="fill: none; stroke: rgb(255, 0, 0); stroke-opacity: 1; stroke-width: 5px;"/></g><g class="legendsymbols"><g class="legendpoints"/></g></g><rect class="legendtoggle" x="0" y="-9.5" width="159.1875" height="19" style="fill: rgb(0, 0, 0); fill-opacity: 0;"/></g></g></g><rect class="scrollbar" rx="20" ry="3" width="0" height="0" x="0" y="0" style="fill: rgb(128, 139, 164); fill-opacity: 1;"/></g><g class="g-gtitle"/><g class="g-xtitle"/><g class="g-ytitle"/></g></svg>