<svg class="main-svg" xmlns="http://www.w3.org/2000/svg" xmlns:xlink="http://www.w3.org/1999/xlink" width="770" height="305" style="" viewBox="0 0 770 305"><rect x="0" y="0" width="770" height="305" style="fill: rgb(255, 255, 255); fill-opacity: 1;"/><defs id="defs-e37482"><g class="clips"><clipPath id="clipe37482xyplot" class="plotclip"><rect width="651" height="207"/></clipPath><clipPath class="axesclip" id="clipe37482x"><rect x="56" y="0" width="651" height="305"/></clipPath><clipPath class="axesclip" id="clipe37482y"><rect x="0" y="31" width="770" height="207"/></clipPath><clipPath class="axesclip" id="clipe37482xy"><rect x="56" y="31" width="651" height="207"/></clipPath></g><g class="gradients"/><g class="patterns"/></defs><g class="bglayer"><rect class="bg" x="46" y="21" width="671" height="227" style="fill: rgb(0, 0, 0); fill-opacity: 0; stroke-width: 0;"/></g><g class="layer-below"><g class="imagelayer"/><g class="shapelayer"/></g><g class="cartesianlayer"><g class="subplot xy"><g class="layer-subplot"><g class="shapelayer"/><g class="imagelayer"/></g><g class="minor-gridlayer"><g class="x"/><g class="y"/></g><g class="gridlayer"><g class="x"><path class="xgrid crisp" transform="translate(106.08,0)" d="M0,31v207" style="stroke: rgb(255, 255, 255); stroke-opacity: 1; stroke-width: 1px;"/><path class="xgrid crisp" transform="translate(156.15,0)" d="M0,31v207" style="stroke: rgb(255, 255, 255); stroke-opacity: 1; stroke-width: 1px;"/><path class="xgrid crisp" transform="translate(206.23,0)" d="M0,31v207" style="stroke: rgb(255, 255, 255); stroke-opacity: 1; stroke-width: 1px;"/><path class="xgrid crisp" transform="translate(256.31,0)" d="M0,31v207" style="stroke: rgb(255, 255, 255); stroke-opacity: 1; stroke-width: 1px;"/><path class="xgrid crisp" transform="translate(306.38,0)" d="M0,31v207" style="stroke: rgb(255, 255, 255); stroke-opacity: 1; stroke-width: 1px;"/><path class="xgrid crisp" transform="translate(356.46,0)" d="M0,31v207" style="stroke: rgb(255, 255, 255); stroke-opacity: 1; stroke-width: 1px;"/><path class="xgrid crisp" transform="translate(406.54,0)" d="M0,31v207" style="stroke: rgb(255, 255, 255); stroke-opacity: 1; stroke-width: 1px;"/><path class="xgrid crisp" transform="translate(456.62,0)" d="M0,31v207" style="stroke: rgb(255, 255, 255); stroke-opacity: 1; stroke-width: 1px;"/><path class="xgrid crisp" transform="translate(506.69,0)" d="M0,31v207" style="stroke: rgb(255, 255, 255); stroke-opacity: 1; stroke-width: 1px;"/><path class="xgrid crisp" transform="translate(556.77,0)" d="M0,31v207" style="stroke: rgb(255, 255, 255); stroke-opacity: 1; stroke-width: 1px;"/><path class="xgrid crisp" transform="translate(606.85,0)" d="M0,31v207" style="stroke: rgb(255, 255, 255); stroke-opacity: 1; stroke-width: 1px;"/><path class="xgrid crisp" transform="translate(656.92,0)" d="M0,31v207" style="stroke: rgb(255, 255, 255); stroke-opacity: 1; stroke-width: 1px;"/></g><g class="y"><path class="ygrid crisp" transform="translate(0,202.59)" d="M56,0h651" style="stroke: rgb(237, 237, 237); stroke-opacity: 1; stroke-width: 1px;"/><path class="ygrid crisp" transform="translate(0,167.18)" d="M56,0h651" style="stroke: rgb(237, 237, 237); stroke-opacity: 1; stroke-width: 1px;"/><path class="ygrid crisp" transform="translate(0,131.76999999999998)" d="M56,0h651" style="stroke: rgb(237, 237, 237); stroke-opacity: 1; stroke-width: 1px;"/><path class="ygrid crisp" transform="translate(0,96.36)" d="M56,0h651" style="stroke: rgb(237, 237, 237); stroke-opacity: 1; stroke-width: 1px;"/><path class="ygrid crisp" transform="translate(0,60.95)" d="M56,0h651" style="stroke: rgb(237, 237, 237); stroke-opacity: 1; stroke-width: 1px;"/></g></g><g class="zerolinelayer"><path class="yzl zl crisp" transform="translate(0,238)" d="M56,0h651" style="stroke: rgb(255, 255, 255); stroke-opacity: 1; stroke-width: 2px;"/></g><g class="layer-between"><g class="shapelayer"/><g class="imagelayer"/></g><path class="xlines-below"/><path class="ylines-below"/><g class="overlines-below"/><g class="xaxislayer-below"/><g class="yaxislayer-below"/><g class="overaxes-below"/><g class="overplot"><g class="xy" transform="translate(56,31)" clip-path="url(#clipe37482xyplot)"><g class="scatterlayer mlayer"><g class="trace scatter tracede03f4" style="stroke-miterlimit: 2;"><g class="fills"><g><path class="js-fill" d="M350.54,207L0,207L0,53.32Q38.38,48.51 50.08,47.32C61.75,46.13 88.47,44.08 100.15,43.11C111.83,42.14 138.57,40.38 150.23,39.02C161.94,37.65 188.6,32.72 200.31,31.39C211.97,30.07 238.69,28.39 250.38,27.63C262.06,26.87 288.78,24.85 300.46,24.9C312.15,24.95 350.54,28.02 350.54,28.02Q350.54,28.02 350.54,28.02" style="fill: rgb(93, 35, 129); fill-opacity: 0.5; stroke-width: 0;"/></g></g><g class="errorbars"/><g class="lines"><path class="js-line" d="M0,53.32Q38.38,48.51 50.08,47.32C61.75,46.13 88.47,44.08 100.15,43.11C111.83,42.14 138.57,40.38 150.23,39.02C161.94,37.65 188.6,32.72 200.31,31.39C211.97,30.07 238.69,28.39 250.38,27.63C262.06,26.87 288.78,24.85 300.46,24.9C312.15,24.95 350.54,28.02 350.54,28.02Q350.54,28.02 350.54,28.02" style="vector-effect: none; fill: none; stroke: rgb(93, 35, 129); stroke-opacity: 1; stroke-width: 4px; opacity: 1;"/></g><g class="points"/><g class="text"/></g><g class="trace scatter trace8d4c4e" style="stroke-miterlimit: 2;"><g class="fills"><g><path class="js-fill" d="M651,207L350.54,207L350.54,28.02Q350.54,28.02 350.54,28.02C350.54,28.02 388.9,21.05 400.62,19.57C412.27,18.1 439.01,16.42 450.69,15.34C462.38,14.26 489.26,8.84 500.77,10.35C512.64,11.91 538.97,27.06 550.85,29.21C562.35,31.29 589.29,30.15 600.92,29.06Q612.65,27.96 651,19.76" style="fill: rgb(93, 35, 129); fill-opacity: 0.5; stroke-width: 0;"/></g></g><g class="errorbars"/><g class="lines"><path class="js-line" d="M350.54,28.02Q350.54,28.02 350.54,28.02C350.54,28.02 388.9,21.05 400.62,19.57C412.27,18.1 439.01,16.42 450.69,15.34C462.38,14.26 489.26,8.84 500.77,10.35C512.64,11.91 538.97,27.06 550.85,29.21C562.35,31.29 589.29,30.15 600.92,29.06Q612.65,27.96 651,19.76" style="vector-effect: none; fill: none; stroke: rgb(93, 35, 129); stroke-opacity: 1; stroke-dasharray: 12px, 12px; stroke-width: 4px; opacity: 1;"/></g><g class="points"/><g class="text"/></g><g class="trace scatter trace39646c" style="stroke-miterlimit: 2; opacity: 1;"><g class="fills"/><g class="errorbars"/><g class="lines"><path class="js-line" d="M0,66.38Q38.41,64.74 50.08,63.75C61.78,62.76 88.46,59.08 100.15,57.9C111.83,56.73 138.54,54.42 150.23,53.67C161.91,52.92 188.63,51.47 200.31,51.49C211.99,51.51 238.69,53.76 250.38,53.86C262.06,53.96 288.81,51.63 300.46,52.38C312.18,53.13 350.54,60.35 350.54,60.35Q350.54,60.35 350.54,60.35" style="vector-effect: none; fill: none; stroke: rgb(35, 129, 93); stroke-opacity: 1; stroke-width: 4px; opacity: 1;"/></g><g class="points"/><g class="text"/></g><g class="trace scatter traceadbc58" style="stroke-miterlimit: 2; opacity: 1;"><g class="fills"/><g class="errorbars"/><g class="lines"><path class="js-line" d="M350.54,60.35Q350.54,60.35 350.54,60.35C350.54,60.35 389.03,59.65 400.62,57.8C412.41,55.92 438.9,46.01 450.69,44.15C462.28,42.32 489.16,40.69 500.77,41.79C512.54,42.91 539.08,52.33 550.85,53.85C562.45,55.35 589.24,54.81 600.92,54.88Q612.6,54.95 651,54.42" style="vector-effect: none; fill: none; stroke: rgb(35, 129, 93); stroke-opacity: 1; stroke-dasharray: 12px, 12px; stroke-width: 4px; opacity: 1;"/></g><g class="points"/><g class="text"/></g></g></g></g><g class="zerolinelayer-above"/><path class="xlines-above crisp" d="" style="fill: none; stroke-width: 1px; stroke: rgb(0, 0, 0); stroke-opacity: 0;"/><path class="ylines-above crisp" d="M0,0" style="fill: none;"/><g class="overlines-above"/><g class="xaxislayer-above"><path class="xtick ticks crisp" d="M0,248v-5" transform="translate(106.08,0)" style="stroke: rgb(68, 68, 68); stroke-opacity: 1; stroke-width: 1px;"/><path class="xtick ticks crisp" d="M0,248v-5" transform="translate(156.15,0)" style="stroke: rgb(68, 68, 68); stroke-opacity: 1; stroke-width: 1px;"/><path class="xtick ticks crisp" d="M0,248v-5" transform="translate(206.23,0)" style="stroke: rgb(68, 68, 68); stroke-opacity: 1; stroke-width: 1px;"/><path class="xtick ticks crisp" d="M0,248v-5" transform="translate(256.31,0)" style="stroke: rgb(68, 68, 68); stroke-opacity: 1; stroke-width: 1px;"/><path class="xtick ticks crisp" d="M0,248v-5" transform="translate(306.38,0)" style="stroke: rgb(68, 68, 68); stroke-opacity: 1; stroke-width: 1px;"/><path class="xtick ticks crisp" d="M0,248v-5" transform="translate(356.46,0)" style="stroke: rgb(68, 68, 68); stroke-opacity: 1; stroke-width: 1px;"/><path class="xtick ticks crisp" d="M0,248v-5" transform="translate(406.54,0)" style="stroke: rgb(68, 68, 68); stroke-opacity: 1; stroke-width: 1px;"/><path class="xtick ticks crisp" d="M0,248v-5" transform="translate(456.62,0)" style="stroke: rgb(68, 68, 68); stroke-opacity: 1; stroke-width: 1px;"/><path class="xtick ticks crisp" d="M0,248v-5" transform="translate(506.69,0)" style="stroke: rgb(68, 68, 68); stroke-opacity: 1; stroke-width: 1px;"/><path class="xtick ticks crisp" d="M0,248v-5" transform="translate(556.77,0)" style="stroke: rgb(68, 68, 68); stroke-opacity: 1; stroke-width: 1px;"/><path class="xtick ticks crisp" d="M0,248v-5" transform="translate(606.85,0)" style="stroke: rgb(68, 68, 68); stroke-opacity: 1; stroke-width: 1px;"/><path class="xtick ticks crisp" d="M0,248v-5" transform="translate(656.92,0)" style="stroke: rgb(68, 68, 68); stroke-opacity: 1; stroke-width: 1px;"/><g class="xtick"><text text-anchor="start" x="0" y="264" transform="translate(56,0) rotate(29.999999999999996,0,256.5)" style="font-family: 'Segoe UI Semibold'; font-size: 15px; fill: rgb(0, 0, 0); fill-opacity: 1; white-space: pre;">2011-12</text></g><g class="xtick"><text text-anchor="start" x="0" y="264" transform="translate(106.08,0) rotate(29.999999999999996,0,256.5)" style="font-family: 'Segoe UI Semibold'; font-size: 15px; fill: rgb(0, 0, 0); fill-opacity: 1; white-space: pre;">2012-13</text></g><g class="xtick"><text text-anchor="start" x="0" y="264" transform="translate(156.15,0) rotate(29.999999999999996,0,256.5)" style="font-family: 'Segoe UI Semibold'; font-size: 15px; fill: rgb(0, 0, 0); fill-opacity: 1; white-space: pre;">2013-14</text></g><g class="xtick"><text text-anchor="start" x="0" y="264" transform="translate(206.23,0) rotate(29.999999999999996,0,256.5)" style="font-family: 'Segoe UI Semibold'; font-size: 15px; fill: rgb(0, 0, 0); fill-opacity: 1; white-space: pre;">2014-15</text></g><g class="xtick"><text text-anchor="start" x="0" y="264" transform="translate(256.31,0) rotate(29.999999999999996,0,256.5)" style="font-family: 'Segoe UI Semibold'; font-size: 15px; fill: rgb(0, 0, 0); fill-opacity: 1; white-space: pre;">2015-16</text></g><g class="xtick"><text text-anchor="start" x="0" y="264" transform="translate(306.38,0) rotate(29.999999999999996,0,256.5)" style="font-family: 'Segoe UI Semibold'; font-size: 15px; fill: rgb(0, 0, 0); fill-opacity: 1; white-space: pre;">2016-17</text></g><g class="xtick"><text text-anchor="start" x="0" y="264" transform="translate(356.46,0) rotate(29.999999999999996,0,256.5)" style="font-family: 'Segoe UI Semibold'; font-size: 15px; fill: rgb(0, 0, 0); fill-opacity: 1; white-space: pre;">2017-18</text></g><g class="xtick"><text text-anchor="start" x="0" y="264" transform="translate(406.54,0) rotate(29.999999999999996,0,256.5)" style="font-family: 'Segoe UI Semibold'; font-size: 15px; fill: rgb(0, 0, 0); fill-opacity: 1; white-space: pre;">2018-19</text></g><g class="xtick"><text text-anchor="start" x="0" y="264" transform="translate(456.62,0) rotate(29.999999999999996,0,256.5)" style="font-family: 'Segoe UI Semibold'; font-size: 15px; fill: rgb(0, 0, 0); fill-opacity: 1; white-space: pre;">2019-20</text></g><g class="xtick"><text text-anchor="start" x="0" y="264" transform="translate(506.69,0) rotate(29.999999999999996,0,256.5)" style="font-family: 'Segoe UI Semibold'; font-size: 15px; fill: rgb(0, 0, 0); fill-opacity: 1; white-space: pre;">2020-21</text></g><g class="xtick"><text text-anchor="start" x="0" y="264" transform="translate(556.77,0) rotate(29.999999999999996,0,256.5)" style="font-family: 'Segoe UI Semibold'; font-size: 15px; fill: rgb(0, 0, 0); fill-opacity: 1; white-space: pre;">2021-22</text></g><g class="xtick"><text text-anchor="start" x="0" y="264" transform="translate(606.85,0) rotate(29.999999999999996,0,256.5)" style="font-family: 'Segoe UI Semibold'; font-size: 15px; fill: rgb(0, 0, 0); fill-opacity: 1; white-space: pre;">2022-23</text></g><g class="xtick"><text text-anchor="start" x="0" y="264" transform="translate(656.92,0) rotate(29.999999999999996,0,256.5)" style="font-family: 'Segoe UI Semibold'; font-size: 15px; fill: rgb(0, 0, 0); fill-opacity: 1; white-space: pre;">2023-24</text></g><g class="xtick"><text text-anchor="start" x="0" y="264" transform="translate(707,0) rotate(29.999999999999996,0,256.5)" style="font-family: 'Segoe UI Semibold'; font-size: 15px; fill: rgb(0, 0, 0); fill-opacity: 1; white-space: pre;">2024-25</text></g></g><g class="yaxislayer-above"><g class="ytick"><text text-anchor="end" x="45" y="5.25" transform="translate(0,238)" style="font-family: 'Segoe UI Semibold'; font-size: 15px; fill: rgb(0, 0, 0); fill-opacity: 1; white-space: pre;">0</text></g><g class="ytick"><text text-anchor="end" x="45" y="5.25" style="font-family: 'Segoe UI Semibold'; font-size: 15px; fill: rgb(0, 0, 0); fill-opacity: 1; white-space: pre;" transform="translate(0,202.59)">200</text></g><g class="ytick"><text text-anchor="end" x="45" y="5.25" style="font-family: 'Segoe UI Semibold'; font-size: 15px; fill: rgb(0, 0, 0); fill-opacity: 1; white-space: pre;" transform="translate(0,167.18)">400</text></g><g class="ytick"><text text-anchor="end" x="45" y="5.25" style="font-family: 'Segoe UI Semibold'; font-size: 15px; fill: rgb(0, 0, 0); fill-opacity: 1; white-space: pre;" transform="translate(0,131.76999999999998)">600</text></g><g class="ytick"><text text-anchor="end" x="45" y="5.25" style="font-family: 'Segoe UI Semibold'; font-size: 15px; fill: rgb(0, 0, 0); fill-opacity: 1; white-space: pre;" transform="translate(0,96.36)">800</text></g><g class="ytick"><text text-anchor="end" x="45" y="5.25" style="font-family: 'Segoe UI Semibold'; font-size: 15px; fill: rgb(0, 0, 0); fill-opacity: 1; white-space: pre;" transform="translate(0,60.95)">1,000</text></g></g><g class="overaxes-above"/></g></g><g class="polarlayer"/><g class="smithlayer"/><g class="ternarylayer"/><g class="geolayer"/><g class="funnelarealayer"/><g class="pielayer"/><g class="iciclelayer"/><g class="treemaplayer"/><g class="sunburstlayer"/><g class="glimages"/><defs id="topdefs-e37482"><g class="clips"/><clipPath id="legende37482"><rect width="285" height="33" x="0" y="0"/></clipPath></defs><g class="layer-above"><g class="imagelayer"/><g class="shapelayer"/></g><g class="infolayer"><g class="legend" pointer-events="all" transform="translate(56,10.299999999999983)"><rect class="bg" shape-rendering="crispEdges" style="stroke: rgb(68, 68, 68); stroke-opacity: 1; fill: rgb(0, 0, 0); fill-opacity: 0; stroke-width: 0px;" width="285" height="33" x="0" y="0"/><g class="scrollbox" transform="" clip-path="url(#legende37482)"><g class="groups"><g class="traces" transform="translate(0,16.25)" style="opacity: 1;"><text class="legendtext" text-anchor="start" x="40" y="5.85" style="font-family: 'Segoe UI Semibold'; font-size: 15px; fill: rgb(0, 0, 0); fill-opacity: 1; white-space: pre;">Stirling</text><g class="layers"><g class="legendfill"><path class="js-fill" d="M5,-2h30v6h-30z" style="stroke-width: 0; fill: rgb(93, 35, 129); fill-opacity: 0.5;"/></g><g class="legendlines"><path class="js-line" d="M5,-2h30" style="fill: none; stroke: rgb(93, 35, 129); stroke-opacity: 1; stroke-width: 5px;"/></g><g class="legendsymbols"><g class="legendpoints"/></g></g><rect class="legendtoggle" x="0" y="-11.25" width="90.765625" height="22.5" style="fill: rgb(0, 0, 0); fill-opacity: 0;"/></g><g class="traces" transform="translate(93.265625,16.25)" style="opacity: 1;"><text class="legendtext" text-anchor="start" x="40" y="5.85" style="font-family: 'Segoe UI Semibold'; font-size: 15px; fill: rgb(0, 0, 0); fill-opacity: 1; white-space: pre;">Family Group Median</text><g class="layers" style="opacity: 1;"><g class="legendfill"/><g class="legendlines"><path class="js-line" d="M5,0h30" style="fill: none; stroke: rgb(35, 129, 93); stroke-opacity: 1; stroke-width: 5px;"/></g><g class="legendsymbols"><g class="legendpoints"/></g></g><rect class="legendtoggle" x="0" y="-11.25" width="188.6015625" height="22.5" style="fill: rgb(0, 0, 0); fill-opacity: 0;"/></g></g></g><rect class="scrollbar" rx="20" ry="3" width="0" height="0" style="fill: rgb(128, 139, 164); fill-opacity: 1;" x="0" y="0"/></g><g class="g-gtitle"/><g class="g-xtitle"/><g class="g-ytitle"/></g></svg>