<svg class="main-svg" xmlns="http://www.w3.org/2000/svg" xmlns:xlink="http://www.w3.org/1999/xlink" width="16535.4330708" height="9448.8188976" style="" viewBox="0 0 700 400"><rect x="0" y="0" width="700" height="400" style="fill: rgb(255, 255, 255); fill-opacity: 1;"/><defs id="defs-795a49"><g class="clips"><clipPath id="clip795a49xyplot" class="plotclip"><rect width="623" height="322"/></clipPath><clipPath class="axesclip" id="clip795a49x"><rect x="46" y="0" width="623" height="400"/></clipPath><clipPath class="axesclip" id="clip795a49y"><rect x="0" y="42" width="700" height="322"/></clipPath><clipPath class="axesclip" id="clip795a49xy"><rect x="46" y="42" width="623" height="322"/></clipPath></g><g class="gradients"/><g class="patterns"/></defs><g class="bglayer"><rect class="bg" x="36" y="32" width="643" height="342" style="fill: rgb(0, 0, 0); fill-opacity: 0; stroke-width: 0;"/></g><g class="layer-below"><g class="imagelayer"/><g class="shapelayer"/></g><g class="cartesianlayer"><g class="subplot xy"><g class="layer-subplot"><g class="shapelayer"/><g class="imagelayer"/></g><g class="gridlayer"><g class="x"><path class="xgrid crisp" transform="translate(115.22,0)" d="M0,42v322" style="stroke: rgb(255, 255, 255); stroke-opacity: 1; stroke-width: 1px;"/><path class="xgrid crisp" transform="translate(184.44,0)" d="M0,42v322" style="stroke: rgb(255, 255, 255); stroke-opacity: 1; stroke-width: 1px;"/><path class="xgrid crisp" transform="translate(253.67,0)" d="M0,42v322" style="stroke: rgb(255, 255, 255); stroke-opacity: 1; stroke-width: 1px;"/><path class="xgrid crisp" transform="translate(322.89,0)" d="M0,42v322" style="stroke: rgb(255, 255, 255); stroke-opacity: 1; stroke-width: 1px;"/><path class="xgrid crisp" transform="translate(392.11,0)" d="M0,42v322" style="stroke: rgb(255, 255, 255); stroke-opacity: 1; stroke-width: 1px;"/><path class="xgrid crisp" transform="translate(461.33,0)" d="M0,42v322" style="stroke: rgb(255, 255, 255); stroke-opacity: 1; stroke-width: 1px;"/><path class="xgrid crisp" transform="translate(530.56,0)" d="M0,42v322" style="stroke: rgb(255, 255, 255); stroke-opacity: 1; stroke-width: 1px;"/><path class="xgrid crisp" transform="translate(599.78,0)" d="M0,42v322" style="stroke: rgb(255, 255, 255); stroke-opacity: 1; stroke-width: 1px;"/></g><g class="y"><path class="ygrid crisp" transform="translate(0,314.22)" d="M46,0h623" style="stroke: rgb(237, 237, 237); stroke-opacity: 1; stroke-width: 1px;"/><path class="ygrid crisp" transform="translate(0,264.44)" d="M46,0h623" style="stroke: rgb(237, 237, 237); stroke-opacity: 1; stroke-width: 1px;"/><path class="ygrid crisp" transform="translate(0,214.66)" d="M46,0h623" style="stroke: rgb(237, 237, 237); stroke-opacity: 1; stroke-width: 1px;"/><path class="ygrid crisp" transform="translate(0,164.88)" d="M46,0h623" style="stroke: rgb(237, 237, 237); stroke-opacity: 1; stroke-width: 1px;"/><path class="ygrid crisp" transform="translate(0,115.1)" d="M46,0h623" style="stroke: rgb(237, 237, 237); stroke-opacity: 1; stroke-width: 1px;"/><path class="ygrid crisp" transform="translate(0,65.32)" d="M46,0h623" style="stroke: rgb(237, 237, 237); stroke-opacity: 1; stroke-width: 1px;"/></g></g><g class="zerolinelayer"><path class="yzl zl crisp" transform="translate(0,364)" d="M46,0h623" style="stroke: rgb(255, 255, 255); stroke-opacity: 1; stroke-width: 2px;"/></g><path class="xlines-below"/><path class="ylines-below"/><g class="overlines-below"/><g class="xaxislayer-below"/><g class="yaxislayer-below"/><g class="overaxes-below"/><g class="plot" transform="translate(46,42)" clip-path="url(#clip795a49xyplot)"><g class="scatterlayer mlayer"><g class="trace scatter traceef59a5" style="stroke-miterlimit: 2;"><g class="fills"><g><path class="js-fill" d="M623,322L0,322L0,84.55Q53.24,77.18 69.22,73.1C85.55,68.93 122.26,49.12 138.44,48.96C154.57,48.8 191.46,71.24 207.67,71.61C223.77,71.98 260.86,57.68 276.89,52.44C293.16,47.13 329.76,27.69 346.11,26.3C362.07,24.95 399.12,38.83 415.33,39.75C431.42,40.66 468.44,33.73 484.56,34.27C500.74,34.81 537.89,46.41 553.78,44.47Q570.21,42.47 623,16.1" style="fill: rgb(128, 0, 128); fill-opacity: 0.5; stroke-width: 0;"/></g></g><g class="errorbars"/><g class="lines"><path class="js-line" d="M0,84.55Q53.24,77.18 69.22,73.1C85.55,68.93 122.26,49.12 138.44,48.96C154.57,48.8 191.46,71.24 207.67,71.61C223.77,71.98 260.86,57.68 276.89,52.44C293.16,47.13 329.76,27.69 346.11,26.3C362.07,24.95 399.12,38.83 415.33,39.75C431.42,40.66 468.44,33.73 484.56,34.27C500.74,34.81 537.89,46.41 553.78,44.47Q570.21,42.47 623,16.1" style="vector-effect: non-scaling-stroke; fill: none; stroke: rgb(128, 0, 128); stroke-opacity: 1; stroke-width: 2px; opacity: 1;"/></g><g class="points"/><g class="text"/></g><g class="trace scatter trace0b5454" style="stroke-miterlimit: 2; opacity: 1;"><g class="fills"/><g class="errorbars"/><g class="lines"><path class="js-line" d="M0,104.58Q53,92.62 69.22,90.27C85.3,87.94 122.29,85.77 138.44,84.42C154.59,83.07 191.5,79.5 207.67,78.7C223.81,77.9 260.75,77.05 276.89,77.58C293.05,78.12 329.96,83.27 346.11,83.3C362.26,83.33 399.18,77.74 415.33,77.83C431.49,77.92 468.39,83.19 484.56,84.05C500.7,84.9 537.79,87.29 553.78,85.17Q570.09,83 623,65.26" style="vector-effect: non-scaling-stroke; fill: none; stroke: rgb(255, 0, 0); stroke-opacity: 1; stroke-width: 2px; opacity: 1;"/></g><g class="points"/><g class="text"/></g></g></g><g class="overplot"/><path class="xlines-above crisp" d="M0,0" style="fill: none;"/><path class="ylines-above crisp" d="M0,0" style="fill: none;"/><g class="overlines-above"/><g class="xaxislayer-above"><g class="xtick"><text text-anchor="middle" x="0" y="387" transform="translate(46,0)" style="font-family: 'Segoe UI Semibold'; font-size: 12px; fill: rgb(0, 0, 0); fill-opacity: 1; white-space: pre; opacity: 1;">2011-12</text></g><g class="xtick"><text text-anchor="middle" x="0" y="387" transform="translate(115.22,0)" style="font-family: 'Segoe UI Semibold'; font-size: 12px; fill: rgb(0, 0, 0); fill-opacity: 1; white-space: pre; opacity: 1;">2012-13</text></g><g class="xtick"><text text-anchor="middle" x="0" y="387" transform="translate(184.44,0)" style="font-family: 'Segoe UI Semibold'; font-size: 12px; fill: rgb(0, 0, 0); fill-opacity: 1; white-space: pre; opacity: 1;">2013-14</text></g><g class="xtick"><text text-anchor="middle" x="0" y="387" transform="translate(253.67,0)" style="font-family: 'Segoe UI Semibold'; font-size: 12px; fill: rgb(0, 0, 0); fill-opacity: 1; white-space: pre; opacity: 1;">2014-15</text></g><g class="xtick"><text text-anchor="middle" x="0" y="387" transform="translate(322.89,0)" style="font-family: 'Segoe UI Semibold'; font-size: 12px; fill: rgb(0, 0, 0); fill-opacity: 1; white-space: pre; opacity: 1;">2015-16</text></g><g class="xtick"><text text-anchor="middle" x="0" y="387" transform="translate(392.11,0)" style="font-family: 'Segoe UI Semibold'; font-size: 12px; fill: rgb(0, 0, 0); fill-opacity: 1; white-space: pre; opacity: 1;">2016-17</text></g><g class="xtick"><text text-anchor="middle" x="0" y="387" transform="translate(461.33,0)" style="font-family: 'Segoe UI Semibold'; font-size: 12px; fill: rgb(0, 0, 0); fill-opacity: 1; white-space: pre; opacity: 1;">2017-18</text></g><g class="xtick"><text text-anchor="middle" x="0" y="387" transform="translate(530.56,0)" style="font-family: 'Segoe UI Semibold'; font-size: 12px; fill: rgb(0, 0, 0); fill-opacity: 1; white-space: pre; opacity: 1;">2018-19</text></g><g class="xtick"><text text-anchor="middle" x="0" y="387" transform="translate(599.78,0)" style="font-family: 'Segoe UI Semibold'; font-size: 12px; fill: rgb(0, 0, 0); fill-opacity: 1; white-space: pre; opacity: 1;">2019-20</text></g><g class="xtick"><text text-anchor="middle" x="0" y="387" transform="translate(669,0)" style="font-family: 'Segoe UI Semibold'; font-size: 12px; fill: rgb(0, 0, 0); fill-opacity: 1; white-space: pre; opacity: 1;">2020-21</text></g></g><g class="yaxislayer-above"><g class="ytick"><text text-anchor="end" x="35" y="4.199999999999999" transform="translate(0,364)" style="font-family: 'Segoe UI Semibold'; font-size: 12px; fill: rgb(0, 0, 0); fill-opacity: 1; white-space: pre; opacity: 1;">0</text></g><g class="ytick"><text text-anchor="end" x="35" y="4.199999999999999" style="font-family: 'Segoe UI Semibold'; font-size: 12px; fill: rgb(0, 0, 0); fill-opacity: 1; white-space: pre; opacity: 1;" transform="translate(0,314.22)">200</text></g><g class="ytick"><text text-anchor="end" x="35" y="4.199999999999999" style="font-family: 'Segoe UI Semibold'; font-size: 12px; fill: rgb(0, 0, 0); fill-opacity: 1; white-space: pre; opacity: 1;" transform="translate(0,264.44)">400</text></g><g class="ytick"><text text-anchor="end" x="35" y="4.199999999999999" style="font-family: 'Segoe UI Semibold'; font-size: 12px; fill: rgb(0, 0, 0); fill-opacity: 1; white-space: pre; opacity: 1;" transform="translate(0,214.66)">600</text></g><g class="ytick"><text text-anchor="end" x="35" y="4.199999999999999" style="font-family: 'Segoe UI Semibold'; font-size: 12px; fill: rgb(0, 0, 0); fill-opacity: 1; white-space: pre; opacity: 1;" transform="translate(0,164.88)">800</text></g><g class="ytick"><text text-anchor="end" x="35" y="4.199999999999999" style="font-family: 'Segoe UI Semibold'; font-size: 12px; fill: rgb(0, 0, 0); fill-opacity: 1; white-space: pre; opacity: 1;" transform="translate(0,115.1)">1000</text></g><g class="ytick"><text text-anchor="end" x="35" y="4.199999999999999" style="font-family: 'Segoe UI Semibold'; font-size: 12px; fill: rgb(0, 0, 0); fill-opacity: 1; white-space: pre; opacity: 1;" transform="translate(0,65.32)">1200</text></g></g><g class="overaxes-above"/></g></g><g class="polarlayer"/><g class="smithlayer"/><g class="ternarylayer"/><g class="geolayer"/><g class="funnelarealayer"/><g class="pielayer"/><g class="iciclelayer"/><g class="treemaplayer"/><g class="sunburstlayer"/><g class="glimages"/><defs id="topdefs-795a49"><g class="clips"/><clipPath id="legend795a49"><rect width="256" height="29" x="0" y="0"/></clipPath></defs><g class="layer-above"><g class="imagelayer"/><g class="shapelayer"/></g><g class="infolayer"><g class="legend" pointer-events="all" transform="translate(46,9.799999999999969)"><rect class="bg" shape-rendering="crispEdges" width="256" height="29" x="0" y="0" style="stroke: rgb(68, 68, 68); stroke-opacity: 1; fill: rgb(0, 0, 0); fill-opacity: 0; stroke-width: 0px;"/><g class="scrollbox" transform="" clip-path="url(#legend795a49)"><g class="groups"><g class="traces" transform="translate(0,14.5)" style="opacity: 1;"><text class="legendtext" text-anchor="start" x="40" y="4.680000000000001" style="font-family: 'Segoe UI Semibold'; font-size: 12px; fill: rgb(0, 0, 0); fill-opacity: 1; white-space: pre;">"Stirling"</text><g class="layers"><g class="legendfill"><path class="js-fill" d="M5,-2h30v6h-30z" style="stroke-width: 0; fill: rgb(128, 0, 128); fill-opacity: 0.5;"/></g><g class="legendlines"><path class="js-line" d="M5,-2h30" style="fill: none; stroke: rgb(128, 0, 128); stroke-opacity: 1; stroke-width: 5px;"/></g><g class="legendsymbols"><g class="legendpoints"/></g></g><rect class="legendtoggle" x="0" y="-9.5" width="91.609375" height="19" style="fill: rgb(0, 0, 0); fill-opacity: 0;"/></g><g class="traces" transform="translate(94.109375,14.5)" style="opacity: 1;"><text class="legendtext" text-anchor="start" x="40" y="4.680000000000001" style="font-family: 'Segoe UI Semibold'; font-size: 12px; fill: rgb(0, 0, 0); fill-opacity: 1; white-space: pre;">Family Group Median</text><g class="layers" style="opacity: 1;"><g class="legendfill"/><g class="legendlines"><path class="js-line" d="M5,0h30" style="fill: none; stroke: rgb(255, 0, 0); stroke-opacity: 1; stroke-width: 5px;"/></g><g class="legendsymbols"><g class="legendpoints"/></g></g><rect class="legendtoggle" x="0" y="-9.5" width="159.1875" height="19" style="fill: rgb(0, 0, 0); fill-opacity: 0;"/></g></g></g><rect class="scrollbar" rx="20" ry="3" width="0" height="0" x="0" y="0" style="fill: rgb(128, 139, 164); fill-opacity: 1;"/></g><g class="g-gtitle"/><g class="g-xtitle"/><g class="g-ytitle"/></g></svg>