<svg class="main-svg" xmlns="http://www.w3.org/2000/svg" xmlns:xlink="http://www.w3.org/1999/xlink" width="16535.4330708" height="9448.8188976" style="" viewBox="0 0 700 400"><rect x="0" y="0" width="700" height="400" style="fill: rgb(255, 255, 255); fill-opacity: 1;"/><defs id="defs-7ab38d"><g class="clips"><clipPath id="clip7ab38dxyplot" class="plotclip"><rect width="623" height="322"/></clipPath><clipPath class="axesclip" id="clip7ab38dx"><rect x="45" y="0" width="623" height="400"/></clipPath><clipPath class="axesclip" id="clip7ab38dy"><rect x="0" y="42" width="700" height="322"/></clipPath><clipPath class="axesclip" id="clip7ab38dxy"><rect x="45" y="42" width="623" height="322"/></clipPath></g><g class="gradients"/><g class="patterns"/></defs><g class="bglayer"><rect class="bg" x="35" y="32" width="643" height="342" style="fill: rgb(0, 0, 0); fill-opacity: 0; stroke-width: 0;"/></g><g class="layer-below"><g class="imagelayer"/><g class="shapelayer"/></g><g class="cartesianlayer"><g class="subplot xy"><g class="layer-subplot"><g class="shapelayer"/><g class="imagelayer"/></g><g class="gridlayer"><g class="x"><path class="xgrid crisp" transform="translate(148.82999999999998,0)" d="M0,42v322" style="stroke: rgb(255, 255, 255); stroke-opacity: 1; stroke-width: 1px;"/><path class="xgrid crisp" transform="translate(252.67,0)" d="M0,42v322" style="stroke: rgb(255, 255, 255); stroke-opacity: 1; stroke-width: 1px;"/><path class="xgrid crisp" transform="translate(356.5,0)" d="M0,42v322" style="stroke: rgb(255, 255, 255); stroke-opacity: 1; stroke-width: 1px;"/><path class="xgrid crisp" transform="translate(460.33,0)" d="M0,42v322" style="stroke: rgb(255, 255, 255); stroke-opacity: 1; stroke-width: 1px;"/><path class="xgrid crisp" transform="translate(564.17,0)" d="M0,42v322" style="stroke: rgb(255, 255, 255); stroke-opacity: 1; stroke-width: 1px;"/></g><g class="y"><path class="ygrid crisp" transform="translate(0,294.38)" d="M45,0h623" style="stroke: rgb(237, 237, 237); stroke-opacity: 1; stroke-width: 1px;"/><path class="ygrid crisp" transform="translate(0,224.75)" d="M45,0h623" style="stroke: rgb(237, 237, 237); stroke-opacity: 1; stroke-width: 1px;"/><path class="ygrid crisp" transform="translate(0,155.13)" d="M45,0h623" style="stroke: rgb(237, 237, 237); stroke-opacity: 1; stroke-width: 1px;"/><path class="ygrid crisp" transform="translate(0,85.5)" d="M45,0h623" style="stroke: rgb(237, 237, 237); stroke-opacity: 1; stroke-width: 1px;"/></g></g><g class="zerolinelayer"><path class="yzl zl crisp" transform="translate(0,364)" d="M45,0h623" style="stroke: rgb(255, 255, 255); stroke-opacity: 1; stroke-width: 2px;"/></g><path class="xlines-below"/><path class="ylines-below"/><g class="overlines-below"/><g class="xaxislayer-below"/><g class="yaxislayer-below"/><g class="overaxes-below"/><g class="plot" transform="translate(45,42)" clip-path="url(#clip7ab38dxyplot)"><g class="scatterlayer mlayer"><g class="trace scatter tracec25c8c" style="stroke-miterlimit: 2;"><g class="fills"><g><path class="js-fill" d="M623,322L0,322L0,36.39Q79.55,55.45 103.83,56.05C128.01,56.65 183.4,44.17 207.67,41.65C231.85,39.14 287.29,36.59 311.5,34.46C335.75,32.32 391.08,25.49 415.33,23.35C439.54,21.21 494.93,16.39 519.17,16.1Q543.39,15.81 623,20.84" style="fill: rgb(128, 0, 128); fill-opacity: 0.5; stroke-width: 0;"/></g></g><g class="errorbars"/><g class="lines"><path class="js-line" d="M0,36.39Q79.55,55.45 103.83,56.05C128.01,56.65 183.4,44.17 207.67,41.65C231.85,39.14 287.29,36.59 311.5,34.46C335.75,32.32 391.08,25.49 415.33,23.35C439.54,21.21 494.93,16.39 519.17,16.1Q543.39,15.81 623,20.84" style="vector-effect: non-scaling-stroke; fill: none; stroke: rgb(128, 0, 128); stroke-opacity: 1; stroke-width: 2px; opacity: 1;"/></g><g class="points"/><g class="text"/></g><g class="trace scatter tracee6c561" style="stroke-miterlimit: 2; opacity: 1;"><g class="fills"/><g class="errorbars"/><g class="lines"><path class="js-line" d="M0,34.42Q79.61,35.77 103.83,35.52C128.06,35.27 183.44,32.53 207.67,32.25C231.89,31.97 287.31,34.31 311.5,33.14C335.76,31.97 391.08,24.07 415.33,22.17C439.53,20.27 494.93,17.36 519.17,16.86Q543.39,16.36 623,17.85" style="vector-effect: non-scaling-stroke; fill: none; stroke: rgb(255, 0, 0); stroke-opacity: 1; stroke-width: 2px; opacity: 1;"/></g><g class="points"/><g class="text"/></g></g></g><g class="overplot"/><path class="xlines-above crisp" d="M0,0" style="fill: none;"/><path class="ylines-above crisp" d="M0,0" style="fill: none;"/><g class="overlines-above"/><g class="xaxislayer-above"><g class="xtick"><text text-anchor="middle" x="0" y="387" transform="translate(45,0)" style="font-family: 'Segoe UI Semibold'; font-size: 12px; fill: rgb(0, 0, 0); fill-opacity: 1; white-space: pre; opacity: 1;">2013-14</text></g><g class="xtick"><text text-anchor="middle" x="0" y="387" transform="translate(148.82999999999998,0)" style="font-family: 'Segoe UI Semibold'; font-size: 12px; fill: rgb(0, 0, 0); fill-opacity: 1; white-space: pre; opacity: 1;">2014-15</text></g><g class="xtick"><text text-anchor="middle" x="0" y="387" transform="translate(252.67,0)" style="font-family: 'Segoe UI Semibold'; font-size: 12px; fill: rgb(0, 0, 0); fill-opacity: 1; white-space: pre; opacity: 1;">2015-16</text></g><g class="xtick"><text text-anchor="middle" x="0" y="387" transform="translate(356.5,0)" style="font-family: 'Segoe UI Semibold'; font-size: 12px; fill: rgb(0, 0, 0); fill-opacity: 1; white-space: pre; opacity: 1;">2016-17</text></g><g class="xtick"><text text-anchor="middle" x="0" y="387" transform="translate(460.33,0)" style="font-family: 'Segoe UI Semibold'; font-size: 12px; fill: rgb(0, 0, 0); fill-opacity: 1; white-space: pre; opacity: 1;">2017-18</text></g><g class="xtick"><text text-anchor="middle" x="0" y="387" transform="translate(564.17,0)" style="font-family: 'Segoe UI Semibold'; font-size: 12px; fill: rgb(0, 0, 0); fill-opacity: 1; white-space: pre; opacity: 1;">2018-19</text></g><g class="xtick"><text text-anchor="middle" x="0" y="387" transform="translate(668,0)" style="font-family: 'Segoe UI Semibold'; font-size: 12px; fill: rgb(0, 0, 0); fill-opacity: 1; white-space: pre; opacity: 1;">2019-20</text></g></g><g class="yaxislayer-above"><g class="ytick"><text text-anchor="end" x="34" y="4.199999999999999" transform="translate(0,364)" style="font-family: 'Segoe UI Semibold'; font-size: 12px; fill: rgb(0, 0, 0); fill-opacity: 1; white-space: pre; opacity: 1;">0%</text></g><g class="ytick"><text text-anchor="end" x="34" y="4.199999999999999" style="font-family: 'Segoe UI Semibold'; font-size: 12px; fill: rgb(0, 0, 0); fill-opacity: 1; white-space: pre; opacity: 1;" transform="translate(0,294.38)">20%</text></g><g class="ytick"><text text-anchor="end" x="34" y="4.199999999999999" style="font-family: 'Segoe UI Semibold'; font-size: 12px; fill: rgb(0, 0, 0); fill-opacity: 1; white-space: pre; opacity: 1;" transform="translate(0,224.75)">40%</text></g><g class="ytick"><text text-anchor="end" x="34" y="4.199999999999999" style="font-family: 'Segoe UI Semibold'; font-size: 12px; fill: rgb(0, 0, 0); fill-opacity: 1; white-space: pre; opacity: 1;" transform="translate(0,155.13)">60%</text></g><g class="ytick"><text text-anchor="end" x="34" y="4.199999999999999" style="font-family: 'Segoe UI Semibold'; font-size: 12px; fill: rgb(0, 0, 0); fill-opacity: 1; white-space: pre; opacity: 1;" transform="translate(0,85.5)">80%</text></g></g><g class="overaxes-above"/></g></g><g class="polarlayer"/><g class="smithlayer"/><g class="ternarylayer"/><g class="geolayer"/><g class="funnelarealayer"/><g class="pielayer"/><g class="iciclelayer"/><g class="treemaplayer"/><g class="sunburstlayer"/><g class="glimages"/><defs id="topdefs-7ab38d"><g class="clips"/><clipPath id="legend7ab38d"><rect width="256" height="29" x="0" y="0"/></clipPath></defs><g class="layer-above"><g class="imagelayer"/><g class="shapelayer"/></g><g class="infolayer"><g class="legend" pointer-events="all" transform="translate(45,9.799999999999969)"><rect class="bg" shape-rendering="crispEdges" width="256" height="29" x="0" y="0" style="stroke: rgb(68, 68, 68); stroke-opacity: 1; fill: rgb(0, 0, 0); fill-opacity: 0; stroke-width: 0px;"/><g class="scrollbox" transform="" clip-path="url(#legend7ab38d)"><g class="groups"><g class="traces" transform="translate(0,14.5)" style="opacity: 1;"><text class="legendtext" text-anchor="start" x="40" y="4.680000000000001" style="font-family: 'Segoe UI Semibold'; font-size: 12px; fill: rgb(0, 0, 0); fill-opacity: 1; white-space: pre;">"Stirling"</text><g class="layers"><g class="legendfill"><path class="js-fill" d="M5,-2h30v6h-30z" style="stroke-width: 0; fill: rgb(128, 0, 128); fill-opacity: 0.5;"/></g><g class="legendlines"><path class="js-line" d="M5,-2h30" style="fill: none; stroke: rgb(128, 0, 128); stroke-opacity: 1; stroke-width: 5px;"/></g><g class="legendsymbols"><g class="legendpoints"/></g></g><rect class="legendtoggle" x="0" y="-9.5" width="91.609375" height="19" style="fill: rgb(0, 0, 0); fill-opacity: 0;"/></g><g class="traces" transform="translate(94.109375,14.5)" style="opacity: 1;"><text class="legendtext" text-anchor="start" x="40" y="4.680000000000001" style="font-family: 'Segoe UI Semibold'; font-size: 12px; fill: rgb(0, 0, 0); fill-opacity: 1; white-space: pre;">Family Group Median</text><g class="layers" style="opacity: 1;"><g class="legendfill"/><g class="legendlines"><path class="js-line" d="M5,0h30" style="fill: none; stroke: rgb(255, 0, 0); stroke-opacity: 1; stroke-width: 5px;"/></g><g class="legendsymbols"><g class="legendpoints"/></g></g><rect class="legendtoggle" x="0" y="-9.5" width="159.1875" height="19" style="fill: rgb(0, 0, 0); fill-opacity: 0;"/></g></g></g><rect class="scrollbar" rx="20" ry="3" width="0" height="0" x="0" y="0" style="fill: rgb(128, 139, 164); fill-opacity: 1;"/></g><g class="g-gtitle"/><g class="g-xtitle"/><g class="g-ytitle"/></g></svg>