<svg class="main-svg" xmlns="http://www.w3.org/2000/svg" xmlns:xlink="http://www.w3.org/1999/xlink" width="16535.4330708" height="9448.8188976" style="" viewBox="0 0 700 400"><rect x="0" y="0" width="700" height="400" style="fill: rgb(255, 255, 255); fill-opacity: 1;"/><defs id="defs-5d2961"><g class="clips"><clipPath id="clip5d2961xyplot" class="plotclip"><rect width="680" height="354"/></clipPath><clipPath class="axesclip" id="clip5d2961x"><rect x="10" y="0" width="680" height="400"/></clipPath><clipPath class="axesclip" id="clip5d2961y"><rect x="0" y="10" width="700" height="354"/></clipPath><clipPath class="axesclip" id="clip5d2961xy"><rect x="10" y="10" width="680" height="354"/></clipPath></g><g class="gradients"/><g class="patterns"/></defs><g class="bglayer"><rect class="bg" x="0" y="0" width="700" height="374" style="fill: rgb(0, 0, 0); fill-opacity: 0; stroke-width: 0;"/></g><g class="layer-below"><g class="imagelayer"/><g class="shapelayer"/></g><g class="cartesianlayer"><g class="subplot xy"><g class="layer-subplot"><g class="shapelayer"/><g class="imagelayer"/></g><g class="gridlayer"><g class="x"><path class="xgrid crisp" transform="translate(59.63,0)" d="M0,10v354" style="stroke: rgb(255, 255, 255); stroke-opacity: 1; stroke-width: 1px;"/><path class="xgrid crisp" transform="translate(124.15,0)" d="M0,10v354" style="stroke: rgb(255, 255, 255); stroke-opacity: 1; stroke-width: 1px;"/><path class="xgrid crisp" transform="translate(188.68,0)" d="M0,10v354" style="stroke: rgb(255, 255, 255); stroke-opacity: 1; stroke-width: 1px;"/><path class="xgrid crisp" transform="translate(253.21,0)" d="M0,10v354" style="stroke: rgb(255, 255, 255); stroke-opacity: 1; stroke-width: 1px;"/><path class="xgrid crisp" transform="translate(317.74,0)" d="M0,10v354" style="stroke: rgb(255, 255, 255); stroke-opacity: 1; stroke-width: 1px;"/><path class="xgrid crisp" transform="translate(382.26,0)" d="M0,10v354" style="stroke: rgb(255, 255, 255); stroke-opacity: 1; stroke-width: 1px;"/><path class="xgrid crisp" transform="translate(446.79,0)" d="M0,10v354" style="stroke: rgb(255, 255, 255); stroke-opacity: 1; stroke-width: 1px;"/><path class="xgrid crisp" transform="translate(511.32,0)" d="M0,10v354" style="stroke: rgb(255, 255, 255); stroke-opacity: 1; stroke-width: 1px;"/><path class="xgrid crisp" transform="translate(575.85,0)" d="M0,10v354" style="stroke: rgb(255, 255, 255); stroke-opacity: 1; stroke-width: 1px;"/><path class="xgrid crisp" transform="translate(640.38,0)" d="M0,10v354" style="stroke: rgb(255, 255, 255); stroke-opacity: 1; stroke-width: 1px;"/></g><g class="y"/></g><g class="zerolinelayer"/><path class="xlines-below"/><path class="ylines-below"/><g class="overlines-below"/><g class="xaxislayer-below"/><g class="yaxislayer-below"/><g class="overaxes-below"/><g class="plot" transform="translate(10,10)"><g class="scatterlayer mlayer"><g class="trace scatter trace956e79" style="stroke-miterlimit: 2; opacity: 1;"><g class="fills" clip-path="url(#clip5d2961xyplot)"/><g class="errorbars"/><g class="lines"><path class="js-line" d="M49.63,252.86Q99.09,252.86 114.15,252.86C129.21,252.86 164.42,257.78 178.68,252.86C194.75,247.31 228.15,214.09 243.21,202.29C258.27,190.49 291.67,157.26 307.74,151.71C322,146.79 358.9,144.39 372.26,151.71C390.47,161.7 420,249.99 436.79,252.86C450.67,255.23 486.26,214.09 501.32,202.29C516.38,190.49 551.97,149.34 565.85,151.71Q582.64,154.58 630.38,252.86" clip-path="url(#clip5d2961xyplot)" style="vector-effect: non-scaling-stroke; fill: none; stroke: rgb(211, 211, 211); stroke-opacity: 1; stroke-width: 10px; opacity: 1;"/></g><g class="points"><path class="point" transform="translate(49.63,252.86)" d="M12.5,0A12.5,12.5 0 1,1 0,-12.5A12.5,12.5 0 0,1 12.5,0Z" style="opacity: 1; stroke-width: 0px; fill: rgb(128, 0, 128); fill-opacity: 1;"/><path class="point" transform="translate(114.15,252.86)" d="M12.5,0A12.5,12.5 0 1,1 0,-12.5A12.5,12.5 0 0,1 12.5,0Z" style="opacity: 1; stroke-width: 0px; fill: rgb(128, 0, 128); fill-opacity: 1;"/><path class="point" transform="translate(178.68,252.86)" d="M12.5,0A12.5,12.5 0 1,1 0,-12.5A12.5,12.5 0 0,1 12.5,0Z" style="opacity: 1; stroke-width: 0px; fill: rgb(128, 0, 128); fill-opacity: 1;"/><path class="point" transform="translate(243.21,202.29)" d="M12.5,0A12.5,12.5 0 1,1 0,-12.5A12.5,12.5 0 0,1 12.5,0Z" style="opacity: 1; stroke-width: 0px; fill: rgb(128, 0, 128); fill-opacity: 1;"/><path class="point" transform="translate(307.74,151.71)" d="M12.5,0A12.5,12.5 0 1,1 0,-12.5A12.5,12.5 0 0,1 12.5,0Z" style="opacity: 1; stroke-width: 0px; fill: rgb(128, 0, 128); fill-opacity: 1;"/><path class="point" transform="translate(372.26,151.71)" d="M12.5,0A12.5,12.5 0 1,1 0,-12.5A12.5,12.5 0 0,1 12.5,0Z" style="opacity: 1; stroke-width: 0px; fill: rgb(128, 0, 128); fill-opacity: 1;"/><path class="point" transform="translate(436.79,252.86)" d="M12.5,0A12.5,12.5 0 1,1 0,-12.5A12.5,12.5 0 0,1 12.5,0Z" style="opacity: 1; stroke-width: 0px; fill: rgb(128, 0, 128); fill-opacity: 1;"/><path class="point" transform="translate(501.32,202.29)" d="M12.5,0A12.5,12.5 0 1,1 0,-12.5A12.5,12.5 0 0,1 12.5,0Z" style="opacity: 1; stroke-width: 0px; fill: rgb(128, 0, 128); fill-opacity: 1;"/><path class="point" transform="translate(565.85,151.71)" d="M12.5,0A12.5,12.5 0 1,1 0,-12.5A12.5,12.5 0 0,1 12.5,0Z" style="opacity: 1; stroke-width: 0px; fill: rgb(128, 0, 128); fill-opacity: 1;"/><path class="point" transform="translate(630.38,252.86)" d="M12.5,0A12.5,12.5 0 1,1 0,-12.5A12.5,12.5 0 0,1 12.5,0Z" style="opacity: 1; stroke-width: 0px; fill: rgb(128, 0, 128); fill-opacity: 1;"/></g><g class="text"><g class="textpoint" transform="translate(0,3)"><text x="49.63" y="252.86" text-anchor="middle" style="font-family: 'Segoe UI Semibold'; font-size: 12px; fill: rgb(255, 255, 255); fill-opacity: 1; white-space: pre;">#6</text></g><g class="textpoint" transform="translate(0,3)"><text x="114.15" y="252.86" text-anchor="middle" style="font-family: 'Segoe UI Semibold'; font-size: 12px; fill: rgb(255, 255, 255); fill-opacity: 1; white-space: pre;">#6</text></g><g class="textpoint" transform="translate(0,3)"><text x="178.68" y="252.86" text-anchor="middle" style="font-family: 'Segoe UI Semibold'; font-size: 12px; fill: rgb(255, 255, 255); fill-opacity: 1; white-space: pre;">#6</text></g><g class="textpoint" transform="translate(0,3)"><text x="243.21" y="202.29" text-anchor="middle" style="font-family: 'Segoe UI Semibold'; font-size: 12px; fill: rgb(255, 255, 255); fill-opacity: 1; white-space: pre;">#5</text></g><g class="textpoint" transform="translate(0,3)"><text x="307.74" y="151.71" text-anchor="middle" style="font-family: 'Segoe UI Semibold'; font-size: 12px; fill: rgb(255, 255, 255); fill-opacity: 1; white-space: pre;">#4</text></g><g class="textpoint" transform="translate(0,3)"><text x="372.26" y="151.71" text-anchor="middle" style="font-family: 'Segoe UI Semibold'; font-size: 12px; fill: rgb(255, 255, 255); fill-opacity: 1; white-space: pre;">#4</text></g><g class="textpoint" transform="translate(0,3)"><text x="436.79" y="252.86" text-anchor="middle" style="font-family: 'Segoe UI Semibold'; font-size: 12px; fill: rgb(255, 255, 255); fill-opacity: 1; white-space: pre;">#6</text></g><g class="textpoint" transform="translate(0,3)"><text x="501.32" y="202.29" text-anchor="middle" style="font-family: 'Segoe UI Semibold'; font-size: 12px; fill: rgb(255, 255, 255); fill-opacity: 1; white-space: pre;">#5</text></g><g class="textpoint" transform="translate(0,3)"><text x="565.85" y="151.71" text-anchor="middle" style="font-family: 'Segoe UI Semibold'; font-size: 12px; fill: rgb(255, 255, 255); fill-opacity: 1; white-space: pre;">#4</text></g><g class="textpoint" transform="translate(0,3)"><text x="630.38" y="252.86" text-anchor="middle" style="font-family: 'Segoe UI Semibold'; font-size: 12px; fill: rgb(255, 255, 255); fill-opacity: 1; white-space: pre;">#6</text></g></g></g></g></g><g class="overplot"/><path class="xlines-above crisp" d="M0,0" style="fill: none;"/><path class="ylines-above crisp" d="M0,0" style="fill: none;"/><g class="overlines-above"/><g class="xaxislayer-above"><g class="xtick"><text text-anchor="middle" x="0" y="387" transform="translate(59.63,0)" style="font-family: 'Segoe UI Semibold'; font-size: 12px; fill: rgb(0, 0, 0); fill-opacity: 1; white-space: pre; opacity: 1;">2010-11</text></g><g class="xtick"><text text-anchor="middle" x="0" y="387" transform="translate(124.15,0)" style="font-family: 'Segoe UI Semibold'; font-size: 12px; fill: rgb(0, 0, 0); fill-opacity: 1; white-space: pre; opacity: 1;">2011-12</text></g><g class="xtick"><text text-anchor="middle" x="0" y="387" transform="translate(188.68,0)" style="font-family: 'Segoe UI Semibold'; font-size: 12px; fill: rgb(0, 0, 0); fill-opacity: 1; white-space: pre; opacity: 1;">2012-13</text></g><g class="xtick"><text text-anchor="middle" x="0" y="387" transform="translate(253.21,0)" style="font-family: 'Segoe UI Semibold'; font-size: 12px; fill: rgb(0, 0, 0); fill-opacity: 1; white-space: pre; opacity: 1;">2013-14</text></g><g class="xtick"><text text-anchor="middle" x="0" y="387" transform="translate(317.74,0)" style="font-family: 'Segoe UI Semibold'; font-size: 12px; fill: rgb(0, 0, 0); fill-opacity: 1; white-space: pre; opacity: 1;">2014-15</text></g><g class="xtick"><text text-anchor="middle" x="0" y="387" transform="translate(382.26,0)" style="font-family: 'Segoe UI Semibold'; font-size: 12px; fill: rgb(0, 0, 0); fill-opacity: 1; white-space: pre; opacity: 1;">2015-16</text></g><g class="xtick"><text text-anchor="middle" x="0" y="387" transform="translate(446.79,0)" style="font-family: 'Segoe UI Semibold'; font-size: 12px; fill: rgb(0, 0, 0); fill-opacity: 1; white-space: pre; opacity: 1;">2016-17</text></g><g class="xtick"><text text-anchor="middle" x="0" y="387" transform="translate(511.32,0)" style="font-family: 'Segoe UI Semibold'; font-size: 12px; fill: rgb(0, 0, 0); fill-opacity: 1; white-space: pre; opacity: 1;">2017-18</text></g><g class="xtick"><text text-anchor="middle" x="0" y="387" transform="translate(575.85,0)" style="font-family: 'Segoe UI Semibold'; font-size: 12px; fill: rgb(0, 0, 0); fill-opacity: 1; white-space: pre; opacity: 1;">2018-19</text></g><g class="xtick"><text text-anchor="middle" x="0" y="387" transform="translate(640.38,0)" style="font-family: 'Segoe UI Semibold'; font-size: 12px; fill: rgb(0, 0, 0); fill-opacity: 1; white-space: pre; opacity: 1;">2019-20</text></g></g><g class="yaxislayer-above"/><g class="overaxes-above"/></g></g><g class="polarlayer"/><g class="smithlayer"/><g class="ternarylayer"/><g class="geolayer"/><g class="funnelarealayer"/><g class="pielayer"/><g class="iciclelayer"/><g class="treemaplayer"/><g class="sunburstlayer"/><g class="glimages"/><defs id="topdefs-5d2961"><g class="clips"/></defs><g class="layer-above"><g class="imagelayer"/><g class="shapelayer"/></g><g class="infolayer"><g class="g-gtitle"/><g class="g-xtitle"/></g></svg>