<svg class="main-svg" xmlns="http://www.w3.org/2000/svg" xmlns:xlink="http://www.w3.org/1999/xlink" width="800" height="493" style="" viewBox="0 0 800 493"><rect x="0" y="0" width="800" height="493" style="fill: rgb(255, 255, 255); fill-opacity: 1;"/><defs id="defs-4ab61f"><g class="clips"><clipPath id="clip4ab61fxyplot" class="plotclip"><rect width="702" height="403"/></clipPath><clipPath class="axesclip" id="clip4ab61fx"><rect x="61" y="0" width="702" height="493"/></clipPath><clipPath class="axesclip" id="clip4ab61fy"><rect x="0" y="50" width="800" height="403"/></clipPath><clipPath class="axesclip" id="clip4ab61fxy"><rect x="61" y="50" width="702" height="403"/></clipPath></g><g class="gradients"/><g class="patterns"/></defs><g class="bglayer"><rect class="bg" x="51" y="40" width="722" height="423" style="fill: rgb(0, 0, 0); fill-opacity: 0; stroke-width: 0;"/></g><g class="layer-below"><g class="imagelayer"/><g class="shapelayer"/></g><g class="cartesianlayer"><g class="subplot xy"><g class="layer-subplot"><g class="shapelayer"/><g class="imagelayer"/></g><g class="minor-gridlayer"><g class="x"/><g class="y"/></g><g class="gridlayer"><g class="x"><path class="xgrid crisp" transform="translate(124.82,0)" d="M0,50v403" style="stroke: rgb(255, 255, 255); stroke-opacity: 1; stroke-width: 1px;"/><path class="xgrid crisp" transform="translate(188.64,0)" d="M0,50v403" style="stroke: rgb(255, 255, 255); stroke-opacity: 1; stroke-width: 1px;"/><path class="xgrid crisp" transform="translate(252.45,0)" d="M0,50v403" style="stroke: rgb(255, 255, 255); stroke-opacity: 1; stroke-width: 1px;"/><path class="xgrid crisp" transform="translate(316.27,0)" d="M0,50v403" style="stroke: rgb(255, 255, 255); stroke-opacity: 1; stroke-width: 1px;"/><path class="xgrid crisp" transform="translate(380.09,0)" d="M0,50v403" style="stroke: rgb(255, 255, 255); stroke-opacity: 1; stroke-width: 1px;"/><path class="xgrid crisp" transform="translate(443.91,0)" d="M0,50v403" style="stroke: rgb(255, 255, 255); stroke-opacity: 1; stroke-width: 1px;"/><path class="xgrid crisp" transform="translate(507.73,0)" d="M0,50v403" style="stroke: rgb(255, 255, 255); stroke-opacity: 1; stroke-width: 1px;"/><path class="xgrid crisp" transform="translate(571.55,0)" d="M0,50v403" style="stroke: rgb(255, 255, 255); stroke-opacity: 1; stroke-width: 1px;"/><path class="xgrid crisp" transform="translate(635.36,0)" d="M0,50v403" style="stroke: rgb(255, 255, 255); stroke-opacity: 1; stroke-width: 1px;"/><path class="xgrid crisp" transform="translate(699.18,0)" d="M0,50v403" style="stroke: rgb(255, 255, 255); stroke-opacity: 1; stroke-width: 1px;"/></g><g class="y"><path class="ygrid crisp" transform="translate(0,403.99)" d="M61,0h702" style="stroke: rgb(237, 237, 237); stroke-opacity: 1; stroke-width: 1px;"/><path class="ygrid crisp" transform="translate(0,354.97)" d="M61,0h702" style="stroke: rgb(237, 237, 237); stroke-opacity: 1; stroke-width: 1px;"/><path class="ygrid crisp" transform="translate(0,305.96000000000004)" d="M61,0h702" style="stroke: rgb(237, 237, 237); stroke-opacity: 1; stroke-width: 1px;"/><path class="ygrid crisp" transform="translate(0,256.94)" d="M61,0h702" style="stroke: rgb(237, 237, 237); stroke-opacity: 1; stroke-width: 1px;"/><path class="ygrid crisp" transform="translate(0,207.93)" d="M61,0h702" style="stroke: rgb(237, 237, 237); stroke-opacity: 1; stroke-width: 1px;"/><path class="ygrid crisp" transform="translate(0,158.92000000000002)" d="M61,0h702" style="stroke: rgb(237, 237, 237); stroke-opacity: 1; stroke-width: 1px;"/><path class="ygrid crisp" transform="translate(0,109.9)" d="M61,0h702" style="stroke: rgb(237, 237, 237); stroke-opacity: 1; stroke-width: 1px;"/><path class="ygrid crisp" transform="translate(0,60.89)" d="M61,0h702" style="stroke: rgb(237, 237, 237); stroke-opacity: 1; stroke-width: 1px;"/></g></g><g class="zerolinelayer"><path class="yzl zl crisp" transform="translate(0,453)" d="M61,0h702" style="stroke: rgb(255, 255, 255); stroke-opacity: 1; stroke-width: 2px;"/></g><path class="xlines-below"/><path class="ylines-below"/><g class="overlines-below"/><g class="xaxislayer-below"/><g class="yaxislayer-below"/><g class="overaxes-below"/><g class="plot" transform="translate(61,50)" clip-path="url(#clip4ab61fxyplot)"><g class="scatterlayer mlayer"><g class="trace scatter trace5f7dae" style="stroke-miterlimit: 2;"><g class="fills"><g><path class="js-fill" d="M702,403L0,403L0,22.42Q47.87,73.36 63.82,77.31C77.89,80.79 112.75,62.71 127.64,62.68C142.53,62.65 177.16,70.7 191.45,77.03C207.06,83.95 239.58,116.01 255.27,121.93C269.5,127.29 304.21,127.06 319.09,128.84C333.99,130.62 368.16,133.97 382.91,137.21C397.94,140.51 431.66,155.03 446.73,157.08C461.45,159.08 496.77,161.09 510.55,155.04C527.02,147.81 560.66,88.01 574.36,89.95C591.01,92.31 620.11,202.94 638.18,208.52Q651.38,212.6 702,175.5" style="fill: rgb(93, 35, 129); fill-opacity: 0.5; stroke-width: 0;"/></g></g><g class="errorbars"/><g class="lines"><path class="js-line" d="M0,22.42Q47.87,73.36 63.82,77.31C77.89,80.79 112.75,62.71 127.64,62.68C142.53,62.65 177.16,70.7 191.45,77.03C207.06,83.95 239.58,116.01 255.27,121.93C269.5,127.29 304.21,127.06 319.09,128.84C333.99,130.62 368.16,133.97 382.91,137.21C397.94,140.51 431.66,155.03 446.73,157.08C461.45,159.08 496.77,161.09 510.55,155.04C527.02,147.81 560.66,88.01 574.36,89.95C591.01,92.31 620.11,202.94 638.18,208.52Q651.38,212.6 702,175.5" style="vector-effect: none; fill: none; stroke: rgb(93, 35, 129); stroke-opacity: 1; stroke-width: 4px; opacity: 1;"/></g><g class="points"/><g class="text"/></g><g class="trace scatter trace4f0f5e" style="stroke-miterlimit: 2; opacity: 1;"><g class="fills"/><g class="errorbars"/><g class="lines"><path class="js-line" d="M0,20.15Q48.3,68.98 63.82,71C78.17,72.86 112.47,44.75 127.64,42.93C142.27,41.18 176.94,49.26 191.45,54.25C206.76,59.52 239.99,82.43 255.27,88.02C269.81,93.34 304.24,98.37 319.09,101.94C334.02,105.53 368.3,113.19 382.91,118.69C398.1,124.41 431.41,146.56 446.73,150.56C461.23,154.34 495.66,153.62 510.55,153.58C525.44,153.54 560.22,145.88 574.36,150.23C590.19,155.1 623.05,198.05 638.18,198.72Q652.85,199.37 702,158.63" style="vector-effect: none; fill: none; stroke: rgb(35, 129, 93); stroke-opacity: 1; stroke-width: 4px; opacity: 1;"/></g><g class="points"/><g class="text"/></g></g></g><g class="overplot"/><path class="xlines-above crisp" d="" style="fill: none; stroke-width: 1px; stroke: rgb(0, 0, 0); stroke-opacity: 0;"/><path class="ylines-above crisp" d="M0,0" style="fill: none;"/><g class="overlines-above"/><g class="xaxislayer-above"><path class="xtick ticks crisp" d="M0,463v-5" transform="translate(124.82,0)" style="stroke: rgb(68, 68, 68); stroke-opacity: 1; stroke-width: 1px;"/><path class="xtick ticks crisp" d="M0,463v-5" transform="translate(188.64,0)" style="stroke: rgb(68, 68, 68); stroke-opacity: 1; stroke-width: 1px;"/><path class="xtick ticks crisp" d="M0,463v-5" transform="translate(252.45,0)" style="stroke: rgb(68, 68, 68); stroke-opacity: 1; stroke-width: 1px;"/><path class="xtick ticks crisp" d="M0,463v-5" transform="translate(316.27,0)" style="stroke: rgb(68, 68, 68); stroke-opacity: 1; stroke-width: 1px;"/><path class="xtick ticks crisp" d="M0,463v-5" transform="translate(380.09,0)" style="stroke: rgb(68, 68, 68); stroke-opacity: 1; stroke-width: 1px;"/><path class="xtick ticks crisp" d="M0,463v-5" transform="translate(443.91,0)" style="stroke: rgb(68, 68, 68); stroke-opacity: 1; stroke-width: 1px;"/><path class="xtick ticks crisp" d="M0,463v-5" transform="translate(507.73,0)" style="stroke: rgb(68, 68, 68); stroke-opacity: 1; stroke-width: 1px;"/><path class="xtick ticks crisp" d="M0,463v-5" transform="translate(571.55,0)" style="stroke: rgb(68, 68, 68); stroke-opacity: 1; stroke-width: 1px;"/><path class="xtick ticks crisp" d="M0,463v-5" transform="translate(635.36,0)" style="stroke: rgb(68, 68, 68); stroke-opacity: 1; stroke-width: 1px;"/><path class="xtick ticks crisp" d="M0,463v-5" transform="translate(699.18,0)" style="stroke: rgb(68, 68, 68); stroke-opacity: 1; stroke-width: 1px;"/><g class="xtick"><text text-anchor="middle" x="0" y="479" transform="translate(61,0)" style="font-family: 'Segoe UI Semibold'; font-size: 15px; fill: rgb(0, 0, 0); fill-opacity: 1; white-space: pre; opacity: 1;">2010-11</text></g><g class="xtick"><text text-anchor="middle" x="0" y="479" transform="translate(124.82,0)" style="font-family: 'Segoe UI Semibold'; font-size: 15px; fill: rgb(0, 0, 0); fill-opacity: 1; white-space: pre; opacity: 1;">2011-12</text></g><g class="xtick"><text text-anchor="middle" x="0" y="479" transform="translate(188.64,0)" style="font-family: 'Segoe UI Semibold'; font-size: 15px; fill: rgb(0, 0, 0); fill-opacity: 1; white-space: pre; opacity: 1;">2012-13</text></g><g class="xtick"><text text-anchor="middle" x="0" y="479" transform="translate(252.45,0)" style="font-family: 'Segoe UI Semibold'; font-size: 15px; fill: rgb(0, 0, 0); fill-opacity: 1; white-space: pre; opacity: 1;">2013-14</text></g><g class="xtick"><text text-anchor="middle" x="0" y="479" transform="translate(316.27,0)" style="font-family: 'Segoe UI Semibold'; font-size: 15px; fill: rgb(0, 0, 0); fill-opacity: 1; white-space: pre; opacity: 1;">2014-15</text></g><g class="xtick"><text text-anchor="middle" x="0" y="479" transform="translate(380.09,0)" style="font-family: 'Segoe UI Semibold'; font-size: 15px; fill: rgb(0, 0, 0); fill-opacity: 1; white-space: pre; opacity: 1;">2015-16</text></g><g class="xtick"><text text-anchor="middle" x="0" y="479" transform="translate(443.91,0)" style="font-family: 'Segoe UI Semibold'; font-size: 15px; fill: rgb(0, 0, 0); fill-opacity: 1; white-space: pre; opacity: 1;">2016-17</text></g><g class="xtick"><text text-anchor="middle" x="0" y="479" transform="translate(507.73,0)" style="font-family: 'Segoe UI Semibold'; font-size: 15px; fill: rgb(0, 0, 0); fill-opacity: 1; white-space: pre; opacity: 1;">2017-18</text></g><g class="xtick"><text text-anchor="middle" x="0" y="479" transform="translate(571.55,0)" style="font-family: 'Segoe UI Semibold'; font-size: 15px; fill: rgb(0, 0, 0); fill-opacity: 1; white-space: pre; opacity: 1;">2018-19</text></g><g class="xtick"><text text-anchor="middle" x="0" y="479" transform="translate(635.36,0)" style="font-family: 'Segoe UI Semibold'; font-size: 15px; fill: rgb(0, 0, 0); fill-opacity: 1; white-space: pre; opacity: 1;">2019-20</text></g><g class="xtick"><text text-anchor="middle" x="0" y="479" transform="translate(699.18,0)" style="font-family: 'Segoe UI Semibold'; font-size: 15px; fill: rgb(0, 0, 0); fill-opacity: 1; white-space: pre; opacity: 1;">2020-21</text></g><g class="xtick"><text text-anchor="middle" x="0" y="479" transform="translate(763,0)" style="font-family: 'Segoe UI Semibold'; font-size: 15px; fill: rgb(0, 0, 0); fill-opacity: 1; white-space: pre; opacity: 1;">2021-22</text></g></g><g class="yaxislayer-above"><g class="ytick"><text text-anchor="end" x="50" y="5.25" transform="translate(0,453)" style="font-family: 'Segoe UI Semibold'; font-size: 15px; fill: rgb(0, 0, 0); fill-opacity: 1; white-space: pre; opacity: 1;">0tCO​<tspan style="font-size:70%" dy="0.3em">2</tspan><tspan dy="-0.21em">​</tspan></text></g><g class="ytick"><text text-anchor="end" x="50" y="5.25" style="font-family: 'Segoe UI Semibold'; font-size: 15px; fill: rgb(0, 0, 0); fill-opacity: 1; white-space: pre; opacity: 1;" transform="translate(0,403.99)">1tCO​<tspan style="font-size:70%" dy="0.3em">2</tspan><tspan dy="-0.21em">​</tspan></text></g><g class="ytick"><text text-anchor="end" x="50" y="5.25" style="font-family: 'Segoe UI Semibold'; font-size: 15px; fill: rgb(0, 0, 0); fill-opacity: 1; white-space: pre; opacity: 1;" transform="translate(0,354.97)">2tCO​<tspan style="font-size:70%" dy="0.3em">2</tspan><tspan dy="-0.21em">​</tspan></text></g><g class="ytick"><text text-anchor="end" x="50" y="5.25" style="font-family: 'Segoe UI Semibold'; font-size: 15px; fill: rgb(0, 0, 0); fill-opacity: 1; white-space: pre; opacity: 1;" transform="translate(0,305.96000000000004)">3tCO​<tspan style="font-size:70%" dy="0.3em">2</tspan><tspan dy="-0.21em">​</tspan></text></g><g class="ytick"><text text-anchor="end" x="50" y="5.25" style="font-family: 'Segoe UI Semibold'; font-size: 15px; fill: rgb(0, 0, 0); fill-opacity: 1; white-space: pre; opacity: 1;" transform="translate(0,256.94)">4tCO​<tspan style="font-size:70%" dy="0.3em">2</tspan><tspan dy="-0.21em">​</tspan></text></g><g class="ytick"><text text-anchor="end" x="50" y="5.25" style="font-family: 'Segoe UI Semibold'; font-size: 15px; fill: rgb(0, 0, 0); fill-opacity: 1; white-space: pre; opacity: 1;" transform="translate(0,207.93)">5tCO​<tspan style="font-size:70%" dy="0.3em">2</tspan><tspan dy="-0.21em">​</tspan></text></g><g class="ytick"><text text-anchor="end" x="50" y="5.25" style="font-family: 'Segoe UI Semibold'; font-size: 15px; fill: rgb(0, 0, 0); fill-opacity: 1; white-space: pre; opacity: 1;" transform="translate(0,158.92000000000002)">6tCO​<tspan style="font-size:70%" dy="0.3em">2</tspan><tspan dy="-0.21em">​</tspan></text></g><g class="ytick"><text text-anchor="end" x="50" y="5.25" style="font-family: 'Segoe UI Semibold'; font-size: 15px; fill: rgb(0, 0, 0); fill-opacity: 1; white-space: pre; opacity: 1;" transform="translate(0,109.9)">7tCO​<tspan style="font-size:70%" dy="0.3em">2</tspan><tspan dy="-0.21em">​</tspan></text></g><g class="ytick"><text text-anchor="end" x="50" y="5.25" style="font-family: 'Segoe UI Semibold'; font-size: 15px; fill: rgb(0, 0, 0); fill-opacity: 1; white-space: pre; opacity: 1;" transform="translate(0,60.89)">8tCO​<tspan style="font-size:70%" dy="0.3em">2</tspan><tspan dy="-0.21em">​</tspan></text></g></g><g class="overaxes-above"/></g></g><g class="polarlayer"/><g class="smithlayer"/><g class="ternarylayer"/><g class="geolayer"/><g class="funnelarealayer"/><g class="pielayer"/><g class="iciclelayer"/><g class="treemaplayer"/><g class="sunburstlayer"/><g class="glimages"/><defs id="topdefs-4ab61f"><g class="clips"/><clipPath id="legend4ab61f"><rect width="285" height="33" x="0" y="0"/></clipPath></defs><g class="layer-above"><g class="imagelayer"/><g class="shapelayer"/></g><g class="infolayer"><g class="legend" pointer-events="all" transform="translate(61,9.699999999999967)"><rect class="bg" shape-rendering="crispEdges" width="285" height="33" x="0" y="0" style="stroke: rgb(68, 68, 68); stroke-opacity: 1; fill: rgb(0, 0, 0); fill-opacity: 0; stroke-width: 0px;"/><g class="scrollbox" transform="" clip-path="url(#legend4ab61f)"><g class="groups"><g class="traces" transform="translate(0,16.25)" style="opacity: 1;"><text class="legendtext" text-anchor="start" x="40" y="5.85" style="font-family: 'Segoe UI Semibold'; font-size: 15px; fill: rgb(0, 0, 0); fill-opacity: 1; white-space: pre;">Stirling</text><g class="layers"><g class="legendfill"><path class="js-fill" d="M5,-2h30v6h-30z" style="stroke-width: 0; fill: rgb(93, 35, 129); fill-opacity: 0.5;"/></g><g class="legendlines"><path class="js-line" d="M5,-2h30" style="fill: none; stroke: rgb(93, 35, 129); stroke-opacity: 1; stroke-width: 5px;"/></g><g class="legendsymbols"><g class="legendpoints"/></g></g><rect class="legendtoggle" x="0" y="-11.25" width="90.765625" height="22.5" style="fill: rgb(0, 0, 0); fill-opacity: 0;"/></g><g class="traces" transform="translate(93.265625,16.25)" style="opacity: 1;"><text class="legendtext" text-anchor="start" x="40" y="5.85" style="font-family: 'Segoe UI Semibold'; font-size: 15px; fill: rgb(0, 0, 0); fill-opacity: 1; white-space: pre;">Family Group Median</text><g class="layers" style="opacity: 1;"><g class="legendfill"/><g class="legendlines"><path class="js-line" d="M5,0h30" style="fill: none; stroke: rgb(35, 129, 93); stroke-opacity: 1; stroke-width: 5px;"/></g><g class="legendsymbols"><g class="legendpoints"/></g></g><rect class="legendtoggle" x="0" y="-11.25" width="188.609375" height="22.5" style="fill: rgb(0, 0, 0); fill-opacity: 0;"/></g></g></g><rect class="scrollbar" rx="20" ry="3" width="0" height="0" x="0" y="0" style="fill: rgb(128, 139, 164); fill-opacity: 1;"/></g><g class="g-gtitle"/><g class="g-xtitle"/><g class="g-ytitle"/></g></svg>