<svg class="main-svg" xmlns="http://www.w3.org/2000/svg" xmlns:xlink="http://www.w3.org/1999/xlink" width="800" height="493" style="" viewBox="0 0 800 493"><rect x="0" y="0" width="800" height="493" style="fill: rgb(255, 255, 255); fill-opacity: 1;"/><defs id="defs-72e7c5"><g class="clips"><clipPath id="clip72e7c5xyplot" class="plotclip"><rect width="663" height="378"/></clipPath><clipPath class="axesclip" id="clip72e7c5x"><rect x="74" y="0" width="663" height="493"/></clipPath><clipPath class="axesclip" id="clip72e7c5y"><rect x="0" y="48" width="800" height="378"/></clipPath><clipPath class="axesclip" id="clip72e7c5xy"><rect x="74" y="48" width="663" height="378"/></clipPath></g><g class="gradients"/><g class="patterns"/></defs><g class="bglayer"><rect class="bg" x="64" y="38" width="683" height="398" style="fill: rgb(0, 0, 0); fill-opacity: 0; stroke-width: 0;"/></g><g class="layer-below"><g class="imagelayer"/><g class="shapelayer"/></g><g class="cartesianlayer"><g class="subplot xy"><g class="layer-subplot"><g class="shapelayer"/><g class="imagelayer"/></g><g class="minor-gridlayer"><g class="x"/><g class="y"/></g><g class="gridlayer"><g class="x"><path class="xgrid crisp" transform="translate(121.36,0)" d="M0,48v378" style="stroke: rgb(255, 255, 255); stroke-opacity: 1; stroke-width: 1px;"/><path class="xgrid crisp" transform="translate(168.70999999999998,0)" d="M0,48v378" style="stroke: rgb(255, 255, 255); stroke-opacity: 1; stroke-width: 1px;"/><path class="xgrid crisp" transform="translate(216.07,0)" d="M0,48v378" style="stroke: rgb(255, 255, 255); stroke-opacity: 1; stroke-width: 1px;"/><path class="xgrid crisp" transform="translate(263.43,0)" d="M0,48v378" style="stroke: rgb(255, 255, 255); stroke-opacity: 1; stroke-width: 1px;"/><path class="xgrid crisp" transform="translate(310.78999999999996,0)" d="M0,48v378" style="stroke: rgb(255, 255, 255); stroke-opacity: 1; stroke-width: 1px;"/><path class="xgrid crisp" transform="translate(358.14,0)" d="M0,48v378" style="stroke: rgb(255, 255, 255); stroke-opacity: 1; stroke-width: 1px;"/><path class="xgrid crisp" transform="translate(405.5,0)" d="M0,48v378" style="stroke: rgb(255, 255, 255); stroke-opacity: 1; stroke-width: 1px;"/><path class="xgrid crisp" transform="translate(452.86,0)" d="M0,48v378" style="stroke: rgb(255, 255, 255); stroke-opacity: 1; stroke-width: 1px;"/><path class="xgrid crisp" transform="translate(500.21,0)" d="M0,48v378" style="stroke: rgb(255, 255, 255); stroke-opacity: 1; stroke-width: 1px;"/><path class="xgrid crisp" transform="translate(547.5699999999999,0)" d="M0,48v378" style="stroke: rgb(255, 255, 255); stroke-opacity: 1; stroke-width: 1px;"/><path class="xgrid crisp" transform="translate(594.93,0)" d="M0,48v378" style="stroke: rgb(255, 255, 255); stroke-opacity: 1; stroke-width: 1px;"/><path class="xgrid crisp" transform="translate(642.29,0)" d="M0,48v378" style="stroke: rgb(255, 255, 255); stroke-opacity: 1; stroke-width: 1px;"/><path class="xgrid crisp" transform="translate(689.64,0)" d="M0,48v378" style="stroke: rgb(255, 255, 255); stroke-opacity: 1; stroke-width: 1px;"/></g><g class="y"><path class="ygrid crisp" transform="translate(0,372)" d="M74,0h663" style="stroke: rgb(237, 237, 237); stroke-opacity: 1; stroke-width: 1px;"/><path class="ygrid crisp" transform="translate(0,318)" d="M74,0h663" style="stroke: rgb(237, 237, 237); stroke-opacity: 1; stroke-width: 1px;"/><path class="ygrid crisp" transform="translate(0,264)" d="M74,0h663" style="stroke: rgb(237, 237, 237); stroke-opacity: 1; stroke-width: 1px;"/><path class="ygrid crisp" transform="translate(0,210)" d="M74,0h663" style="stroke: rgb(237, 237, 237); stroke-opacity: 1; stroke-width: 1px;"/><path class="ygrid crisp" transform="translate(0,156)" d="M74,0h663" style="stroke: rgb(237, 237, 237); stroke-opacity: 1; stroke-width: 1px;"/><path class="ygrid crisp" transform="translate(0,102)" d="M74,0h663" style="stroke: rgb(237, 237, 237); stroke-opacity: 1; stroke-width: 1px;"/></g></g><g class="zerolinelayer"/><g class="layer-between"><g class="shapelayer"/><g class="imagelayer"/></g><path class="xlines-below"/><path class="ylines-below"/><g class="overlines-below"/><g class="xaxislayer-below"/><g class="yaxislayer-below"/><g class="overaxes-below"/><g class="overplot"><g class="xy" transform="translate(74,48)" clip-path="url(#clip72e7c5xyplot)"><g class="scatterlayer mlayer"><g class="trace scatter trace38dfa8" style="stroke-miterlimit: 2;"><g class="fills"><g><path class="js-fill" d="M663,540L0,540L0,257.58Q35.97,284.71 47.36,286.2C58.11,287.61 83.67,275.73 94.71,272.43C105.77,269.12 131.47,256 142.07,257.85C153.66,259.88 177.69,289.97 189.43,293.49C199.93,296.64 225.79,289.78 236.79,290.52C247.89,291.27 273.77,302.87 284.14,299.97C296.1,296.62 319.56,262.81 331.5,256.5C341.88,251.01 368.13,249.75 378.86,245.43C390.27,240.84 416.05,215.2 426.21,217.35C438.58,219.96 463.32,284.79 473.57,283.79C485.74,282.6 510.87,206.97 520.93,178.98C533.53,143.94 551.39,12.09 568.29,5.04C577.57,1.17 604.2,28.05 615.64,31.82Q626.35,35.35 663,37.66" style="fill: rgb(93, 35, 129); fill-opacity: 0.5; stroke-width: 0;"/></g></g><g class="errorbars"/><g class="lines"><path class="js-line" d="M0,257.58Q35.97,284.71 47.36,286.2C58.11,287.61 83.67,275.73 94.71,272.43C105.77,269.12 131.47,256 142.07,257.85C153.66,259.88 177.69,289.97 189.43,293.49C199.93,296.64 225.79,289.78 236.79,290.52C247.89,291.27 273.77,302.87 284.14,299.97C296.1,296.62 319.56,262.81 331.5,256.5C341.88,251.01 368.13,249.75 378.86,245.43C390.27,240.84 416.05,215.2 426.21,217.35C438.58,219.96 463.32,284.79 473.57,283.79C485.74,282.6 510.87,206.97 520.93,178.98C533.53,143.94 551.39,12.09 568.29,5.04C577.57,1.17 604.2,28.05 615.64,31.82Q626.35,35.35 663,37.66" style="vector-effect: none; fill: none; stroke: rgb(93, 35, 129); stroke-opacity: 1; stroke-width: 4px; opacity: 1;"/></g><g class="points"/><g class="text"/></g><g class="trace scatter trace0fb8de" style="stroke-miterlimit: 2; opacity: 1;"><g class="fills"/><g class="errorbars"/><g class="lines"><path class="js-line" d="M0,250.96Q36.3,256.36 47.36,256.5C58.4,256.64 83.75,251.17 94.71,252.18C105.86,253.21 131.15,261.63 142.07,265.55C153.26,269.56 178.32,286.03 189.43,286.34C200.42,286.65 225.64,272.12 236.79,268.65C247.74,265.24 273.04,259.06 284.14,256.77C295.14,254.5 320.43,250.55 331.5,249.08C342.53,247.62 367.91,243.2 378.86,244.21C390.01,245.23 415.85,252.09 426.21,258.12C438.18,265.09 463.44,305.48 473.57,303.93C486,302.03 508.49,233.18 520.93,216.85C531.06,203.55 556.21,177.07 568.29,171.19C578.59,166.18 605.06,168.74 615.64,164.6Q627.26,160.05 663,131.62" style="vector-effect: none; fill: none; stroke: rgb(35, 129, 93); stroke-opacity: 1; stroke-width: 4px; opacity: 1;"/></g><g class="points"/><g class="text"/></g></g></g></g><g class="zerolinelayer-above"/><path class="xlines-above crisp" d="" style="fill: none; stroke-width: 1px; stroke: rgb(0, 0, 0); stroke-opacity: 0;"/><path class="ylines-above crisp" d="M0,0" style="fill: none;"/><g class="overlines-above"/><g class="xaxislayer-above"><path class="xtick ticks crisp" d="M0,436v-5" transform="translate(121.36,0)" style="stroke: rgb(68, 68, 68); stroke-opacity: 1; stroke-width: 1px;"/><path class="xtick ticks crisp" d="M0,436v-5" transform="translate(168.70999999999998,0)" style="stroke: rgb(68, 68, 68); stroke-opacity: 1; stroke-width: 1px;"/><path class="xtick ticks crisp" d="M0,436v-5" transform="translate(216.07,0)" style="stroke: rgb(68, 68, 68); stroke-opacity: 1; stroke-width: 1px;"/><path class="xtick ticks crisp" d="M0,436v-5" transform="translate(263.43,0)" style="stroke: rgb(68, 68, 68); stroke-opacity: 1; stroke-width: 1px;"/><path class="xtick ticks crisp" d="M0,436v-5" transform="translate(310.78999999999996,0)" style="stroke: rgb(68, 68, 68); stroke-opacity: 1; stroke-width: 1px;"/><path class="xtick ticks crisp" d="M0,436v-5" transform="translate(358.14,0)" style="stroke: rgb(68, 68, 68); stroke-opacity: 1; stroke-width: 1px;"/><path class="xtick ticks crisp" d="M0,436v-5" transform="translate(405.5,0)" style="stroke: rgb(68, 68, 68); stroke-opacity: 1; stroke-width: 1px;"/><path class="xtick ticks crisp" d="M0,436v-5" transform="translate(452.86,0)" style="stroke: rgb(68, 68, 68); stroke-opacity: 1; stroke-width: 1px;"/><path class="xtick ticks crisp" d="M0,436v-5" transform="translate(500.21,0)" style="stroke: rgb(68, 68, 68); stroke-opacity: 1; stroke-width: 1px;"/><path class="xtick ticks crisp" d="M0,436v-5" transform="translate(547.5699999999999,0)" style="stroke: rgb(68, 68, 68); stroke-opacity: 1; stroke-width: 1px;"/><path class="xtick ticks crisp" d="M0,436v-5" transform="translate(594.93,0)" style="stroke: rgb(68, 68, 68); stroke-opacity: 1; stroke-width: 1px;"/><path class="xtick ticks crisp" d="M0,436v-5" transform="translate(642.29,0)" style="stroke: rgb(68, 68, 68); stroke-opacity: 1; stroke-width: 1px;"/><path class="xtick ticks crisp" d="M0,436v-5" transform="translate(689.64,0)" style="stroke: rgb(68, 68, 68); stroke-opacity: 1; stroke-width: 1px;"/><g class="xtick"><text text-anchor="start" x="0" y="452" transform="translate(74,0) rotate(29.999999999999996,0,444.5)" style="font-family: 'Segoe UI Semibold'; font-size: 15px; fill: rgb(0, 0, 0); fill-opacity: 1; white-space: pre;">2010-11</text></g><g class="xtick"><text text-anchor="start" x="0" y="452" transform="translate(121.36,0) rotate(29.999999999999996,0,444.5)" style="font-family: 'Segoe UI Semibold'; font-size: 15px; fill: rgb(0, 0, 0); fill-opacity: 1; white-space: pre;">2011-12</text></g><g class="xtick"><text text-anchor="start" x="0" y="452" transform="translate(168.70999999999998,0) rotate(29.999999999999996,0,444.5)" style="font-family: 'Segoe UI Semibold'; font-size: 15px; fill: rgb(0, 0, 0); fill-opacity: 1; white-space: pre;">2012-13</text></g><g class="xtick"><text text-anchor="start" x="0" y="452" transform="translate(216.07,0) rotate(29.999999999999996,0,444.5)" style="font-family: 'Segoe UI Semibold'; font-size: 15px; fill: rgb(0, 0, 0); fill-opacity: 1; white-space: pre;">2013-14</text></g><g class="xtick"><text text-anchor="start" x="0" y="452" transform="translate(263.43,0) rotate(29.999999999999996,0,444.5)" style="font-family: 'Segoe UI Semibold'; font-size: 15px; fill: rgb(0, 0, 0); fill-opacity: 1; white-space: pre;">2014-15</text></g><g class="xtick"><text text-anchor="start" x="0" y="452" transform="translate(310.78999999999996,0) rotate(29.999999999999996,0,444.5)" style="font-family: 'Segoe UI Semibold'; font-size: 15px; fill: rgb(0, 0, 0); fill-opacity: 1; white-space: pre;">2015-16</text></g><g class="xtick"><text text-anchor="start" x="0" y="452" transform="translate(358.14,0) rotate(29.999999999999996,0,444.5)" style="font-family: 'Segoe UI Semibold'; font-size: 15px; fill: rgb(0, 0, 0); fill-opacity: 1; white-space: pre;">2016-17</text></g><g class="xtick"><text text-anchor="start" x="0" y="452" transform="translate(405.5,0) rotate(29.999999999999996,0,444.5)" style="font-family: 'Segoe UI Semibold'; font-size: 15px; fill: rgb(0, 0, 0); fill-opacity: 1; white-space: pre;">2017-18</text></g><g class="xtick"><text text-anchor="start" x="0" y="452" transform="translate(452.86,0) rotate(29.999999999999996,0,444.5)" style="font-family: 'Segoe UI Semibold'; font-size: 15px; fill: rgb(0, 0, 0); fill-opacity: 1; white-space: pre;">2018-19</text></g><g class="xtick"><text text-anchor="start" x="0" y="452" transform="translate(500.21,0) rotate(29.999999999999996,0,444.5)" style="font-family: 'Segoe UI Semibold'; font-size: 15px; fill: rgb(0, 0, 0); fill-opacity: 1; white-space: pre;">2019-20</text></g><g class="xtick"><text text-anchor="start" x="0" y="452" transform="translate(547.5699999999999,0) rotate(29.999999999999996,0,444.5)" style="font-family: 'Segoe UI Semibold'; font-size: 15px; fill: rgb(0, 0, 0); fill-opacity: 1; white-space: pre;">2020-21</text></g><g class="xtick"><text text-anchor="start" x="0" y="452" transform="translate(594.93,0) rotate(29.999999999999996,0,444.5)" style="font-family: 'Segoe UI Semibold'; font-size: 15px; fill: rgb(0, 0, 0); fill-opacity: 1; white-space: pre;">2021-22</text></g><g class="xtick"><text text-anchor="start" x="0" y="452" transform="translate(642.29,0) rotate(29.999999999999996,0,444.5)" style="font-family: 'Segoe UI Semibold'; font-size: 15px; fill: rgb(0, 0, 0); fill-opacity: 1; white-space: pre;">2022-23</text></g><g class="xtick"><text text-anchor="start" x="0" y="452" transform="translate(689.64,0) rotate(29.999999999999996,0,444.5)" style="font-family: 'Segoe UI Semibold'; font-size: 15px; fill: rgb(0, 0, 0); fill-opacity: 1; white-space: pre;">2023-24</text></g><g class="xtick"><text text-anchor="start" x="0" y="452" transform="translate(737,0) rotate(29.999999999999996,0,444.5)" style="font-family: 'Segoe UI Semibold'; font-size: 15px; fill: rgb(0, 0, 0); fill-opacity: 1; white-space: pre;">2024-25</text></g></g><g class="yaxislayer-above"><g class="ytick"><text text-anchor="end" x="63" y="5.25" transform="translate(0,426)" style="font-family: 'Segoe UI Semibold'; font-size: 15px; fill: rgb(0, 0, 0); fill-opacity: 1; white-space: pre;">6 Days</text></g><g class="ytick"><text text-anchor="end" x="63" y="5.25" style="font-family: 'Segoe UI Semibold'; font-size: 15px; fill: rgb(0, 0, 0); fill-opacity: 1; white-space: pre;" transform="translate(0,372)">8 Days</text></g><g class="ytick"><text text-anchor="end" x="63" y="5.25" style="font-family: 'Segoe UI Semibold'; font-size: 15px; fill: rgb(0, 0, 0); fill-opacity: 1; white-space: pre;" transform="translate(0,318)">10 Days</text></g><g class="ytick"><text text-anchor="end" x="63" y="5.25" style="font-family: 'Segoe UI Semibold'; font-size: 15px; fill: rgb(0, 0, 0); fill-opacity: 1; white-space: pre;" transform="translate(0,264)">12 Days</text></g><g class="ytick"><text text-anchor="end" x="63" y="5.25" style="font-family: 'Segoe UI Semibold'; font-size: 15px; fill: rgb(0, 0, 0); fill-opacity: 1; white-space: pre;" transform="translate(0,210)">14 Days</text></g><g class="ytick"><text text-anchor="end" x="63" y="5.25" style="font-family: 'Segoe UI Semibold'; font-size: 15px; fill: rgb(0, 0, 0); fill-opacity: 1; white-space: pre;" transform="translate(0,156)">16 Days</text></g><g class="ytick"><text text-anchor="end" x="63" y="5.25" style="font-family: 'Segoe UI Semibold'; font-size: 15px; fill: rgb(0, 0, 0); fill-opacity: 1; white-space: pre;" transform="translate(0,102)">18 Days</text></g><g class="ytick"><text text-anchor="end" x="63" y="5.25" style="font-family: 'Segoe UI Semibold'; font-size: 15px; fill: rgb(0, 0, 0); fill-opacity: 1; white-space: pre;" transform="translate(0,48)">20 Days</text></g></g><g class="overaxes-above"/></g></g><g class="polarlayer"/><g class="smithlayer"/><g class="ternarylayer"/><g class="geolayer"/><g class="funnelarealayer"/><g class="pielayer"/><g class="iciclelayer"/><g class="treemaplayer"/><g class="sunburstlayer"/><g class="glimages"/><defs id="topdefs-72e7c5"><g class="clips"/><clipPath id="legend72e7c5"><rect width="285" height="33" x="0" y="0"/></clipPath></defs><g class="layer-above"><g class="imagelayer"/><g class="shapelayer"/></g><g class="infolayer"><g class="legend" pointer-events="all" transform="translate(74,10.199999999999967)"><rect class="bg" shape-rendering="crispEdges" style="stroke: rgb(68, 68, 68); stroke-opacity: 1; fill: rgb(0, 0, 0); fill-opacity: 0; stroke-width: 0px;" width="285" height="33" x="0" y="0"/><g class="scrollbox" transform="" clip-path="url(#legend72e7c5)"><g class="groups"><g class="traces" transform="translate(0,16.25)" style="opacity: 1;"><text class="legendtext" text-anchor="start" x="40" y="5.85" style="font-family: 'Segoe UI Semibold'; font-size: 15px; fill: rgb(0, 0, 0); fill-opacity: 1; white-space: pre;">Stirling</text><g class="layers"><g class="legendfill"><path class="js-fill" d="M5,-2h30v6h-30z" style="stroke-width: 0; fill: rgb(93, 35, 129); fill-opacity: 0.5;"/></g><g class="legendlines"><path class="js-line" d="M5,-2h30" style="fill: none; stroke: rgb(93, 35, 129); stroke-opacity: 1; stroke-width: 5px;"/></g><g class="legendsymbols"><g class="legendpoints"/></g></g><rect class="legendtoggle" x="0" y="-11.25" width="90.765625" height="22.5" style="fill: rgb(0, 0, 0); fill-opacity: 0;"/></g><g class="traces" transform="translate(93.265625,16.25)" style="opacity: 1;"><text class="legendtext" text-anchor="start" x="40" y="5.85" style="font-family: 'Segoe UI Semibold'; font-size: 15px; fill: rgb(0, 0, 0); fill-opacity: 1; white-space: pre;">Family Group Median</text><g class="layers" style="opacity: 1;"><g class="legendfill"/><g class="legendlines"><path class="js-line" d="M5,0h30" style="fill: none; stroke: rgb(35, 129, 93); stroke-opacity: 1; stroke-width: 5px;"/></g><g class="legendsymbols"><g class="legendpoints"/></g></g><rect class="legendtoggle" x="0" y="-11.25" width="188.6015625" height="22.5" style="fill: rgb(0, 0, 0); fill-opacity: 0;"/></g></g></g><rect class="scrollbar" rx="20" ry="3" width="0" height="0" style="fill: rgb(128, 139, 164); fill-opacity: 1;" x="0" y="0"/></g><g class="g-gtitle"/><g class="g-xtitle"/><g class="g-ytitle"/></g></svg>