<svg class="main-svg" xmlns="http://www.w3.org/2000/svg" xmlns:xlink="http://www.w3.org/1999/xlink" width="800" height="493" style="" viewBox="0 0 800 493"><rect x="0" y="0" width="800" height="493" style="fill: rgb(255, 255, 255); fill-opacity: 1;"/><defs id="defs-aef093"><g class="clips"><clipPath id="clipaef093xyplot" class="plotclip"><rect width="686" height="378"/></clipPath><clipPath class="axesclip" id="clipaef093x"><rect x="51" y="0" width="686" height="493"/></clipPath><clipPath class="axesclip" id="clipaef093y"><rect x="0" y="48" width="800" height="378"/></clipPath><clipPath class="axesclip" id="clipaef093xy"><rect x="51" y="48" width="686" height="378"/></clipPath></g><g class="gradients"/><g class="patterns"/></defs><g class="bglayer"><rect class="bg" x="41" y="38" width="706" height="398" style="fill: rgb(0, 0, 0); fill-opacity: 0; stroke-width: 0;"/></g><g class="layer-below"><g class="imagelayer"/><g class="shapelayer"/></g><g class="cartesianlayer"><g class="subplot xy"><g class="layer-subplot"><g class="shapelayer"/><g class="imagelayer"/></g><g class="minor-gridlayer"><g class="x"/><g class="y"/></g><g class="gridlayer"><g class="x"><path class="xgrid crisp" transform="translate(100,0)" d="M0,48v378" style="stroke: rgb(255, 255, 255); stroke-opacity: 1; stroke-width: 1px;"/><path class="xgrid crisp" transform="translate(149,0)" d="M0,48v378" style="stroke: rgb(255, 255, 255); stroke-opacity: 1; stroke-width: 1px;"/><path class="xgrid crisp" transform="translate(198,0)" d="M0,48v378" style="stroke: rgb(255, 255, 255); stroke-opacity: 1; stroke-width: 1px;"/><path class="xgrid crisp" transform="translate(247,0)" d="M0,48v378" style="stroke: rgb(255, 255, 255); stroke-opacity: 1; stroke-width: 1px;"/><path class="xgrid crisp" transform="translate(296,0)" d="M0,48v378" style="stroke: rgb(255, 255, 255); stroke-opacity: 1; stroke-width: 1px;"/><path class="xgrid crisp" transform="translate(345,0)" d="M0,48v378" style="stroke: rgb(255, 255, 255); stroke-opacity: 1; stroke-width: 1px;"/><path class="xgrid crisp" transform="translate(394,0)" d="M0,48v378" style="stroke: rgb(255, 255, 255); stroke-opacity: 1; stroke-width: 1px;"/><path class="xgrid crisp" transform="translate(443,0)" d="M0,48v378" style="stroke: rgb(255, 255, 255); stroke-opacity: 1; stroke-width: 1px;"/><path class="xgrid crisp" transform="translate(492,0)" d="M0,48v378" style="stroke: rgb(255, 255, 255); stroke-opacity: 1; stroke-width: 1px;"/><path class="xgrid crisp" transform="translate(541,0)" d="M0,48v378" style="stroke: rgb(255, 255, 255); stroke-opacity: 1; stroke-width: 1px;"/><path class="xgrid crisp" transform="translate(590,0)" d="M0,48v378" style="stroke: rgb(255, 255, 255); stroke-opacity: 1; stroke-width: 1px;"/><path class="xgrid crisp" transform="translate(639,0)" d="M0,48v378" style="stroke: rgb(255, 255, 255); stroke-opacity: 1; stroke-width: 1px;"/><path class="xgrid crisp" transform="translate(688,0)" d="M0,48v378" style="stroke: rgb(255, 255, 255); stroke-opacity: 1; stroke-width: 1px;"/></g><g class="y"><path class="ygrid crisp" transform="translate(0,363)" d="M51,0h686" style="stroke: rgb(237, 237, 237); stroke-opacity: 1; stroke-width: 1px;"/><path class="ygrid crisp" transform="translate(0,300)" d="M51,0h686" style="stroke: rgb(237, 237, 237); stroke-opacity: 1; stroke-width: 1px;"/><path class="ygrid crisp" transform="translate(0,237)" d="M51,0h686" style="stroke: rgb(237, 237, 237); stroke-opacity: 1; stroke-width: 1px;"/><path class="ygrid crisp" transform="translate(0,174)" d="M51,0h686" style="stroke: rgb(237, 237, 237); stroke-opacity: 1; stroke-width: 1px;"/><path class="ygrid crisp" transform="translate(0,111)" d="M51,0h686" style="stroke: rgb(237, 237, 237); stroke-opacity: 1; stroke-width: 1px;"/></g></g><g class="zerolinelayer"/><g class="layer-between"><g class="shapelayer"/><g class="imagelayer"/></g><path class="xlines-below"/><path class="ylines-below"/><g class="overlines-below"/><g class="xaxislayer-below"/><g class="yaxislayer-below"/><g class="overaxes-below"/><g class="overplot"><g class="xy" transform="translate(51,48)" clip-path="url(#clipaef093xyplot)"><g class="scatterlayer mlayer"><g class="trace scatter trace283dfa" style="stroke-miterlimit: 2;"><g class="fills"><g><path class="js-fill" d="M686,882L0,882L0,204.62Q38.06,225.26 49,233.73C61.04,243.05 85.57,279.25 98,282.37C108.7,285.05 137.02,276.06 147,267.75C161.49,255.69 183.47,173.18 196,171.86C206.64,170.74 233.23,231.63 245,232.22C256.13,232.77 283.88,198.23 294,182.83C307.92,161.65 327.26,68.47 343,60.61C352.77,55.73 380.96,68.82 392,73.84C403.89,79.24 428.99,103.21 441,106.6C451.95,109.7 478.56,104.84 490,104.71C501.43,104.58 528.27,109.39 539,105.46C551.36,100.94 576.84,62.17 588,62.75C599.73,63.36 624.83,105.45 637,115.29Q647.85,124.06 686,144.65" style="fill: rgb(93, 35, 129); fill-opacity: 0.5; stroke-width: 0;"/></g></g><g class="errorbars"/><g class="lines"><path class="js-line" d="M0,204.62Q38.06,225.26 49,233.73C61.04,243.05 85.57,279.25 98,282.37C108.7,285.05 137.02,276.06 147,267.75C161.49,255.69 183.47,173.18 196,171.86C206.64,170.74 233.23,231.63 245,232.22C256.13,232.77 283.88,198.23 294,182.83C307.92,161.65 327.26,68.47 343,60.61C352.77,55.73 380.96,68.82 392,73.84C403.89,79.24 428.99,103.21 441,106.6C451.95,109.7 478.56,104.84 490,104.71C501.43,104.58 528.27,109.39 539,105.46C551.36,100.94 576.84,62.17 588,62.75C599.73,63.36 624.83,105.45 637,115.29Q647.85,124.06 686,144.65" style="vector-effect: none; fill: none; stroke: rgb(93, 35, 129); stroke-opacity: 1; stroke-width: 4px; opacity: 1;"/></g><g class="points"/><g class="text"/></g><g class="trace scatter trace0a9caf" style="stroke-miterlimit: 2; opacity: 1;"><g class="fills"/><g class="errorbars"/><g class="lines"><path class="js-line" d="M0,299.25Q37.56,289.66 49,286.84C60.42,284.03 86.55,277.73 98,275.12C109.42,272.51 135.88,268.71 147,264.47C158.78,259.98 184.15,239.71 196,236.82C207.07,234.12 233.7,240.13 245,238.58C256.57,236.99 282.79,227.73 294,222.96C305.67,218 331.31,201.35 343,196.5C354.2,191.86 380.62,185.58 392,181.82C403.49,178.03 429.67,168.77 441,164.12C452.54,159.38 478.47,146.29 490,141.5C501.34,136.78 527.38,125.38 539,123.29C550.25,121.27 576.62,124.44 588,123.29C599.49,122.13 625.58,113.15 637,113.27Q648.45,113.39 686,124.36" style="vector-effect: none; fill: none; stroke: rgb(35, 129, 93); stroke-opacity: 1; stroke-width: 4px; opacity: 1;"/></g><g class="points"/><g class="text"/></g></g></g></g><g class="zerolinelayer-above"/><path class="xlines-above crisp" d="" style="fill: none; stroke-width: 1px; stroke: rgb(0, 0, 0); stroke-opacity: 0;"/><path class="ylines-above crisp" d="M0,0" style="fill: none;"/><g class="overlines-above"/><g class="xaxislayer-above"><path class="xtick ticks crisp" d="M0,436v-5" transform="translate(100,0)" style="stroke: rgb(68, 68, 68); stroke-opacity: 1; stroke-width: 1px;"/><path class="xtick ticks crisp" d="M0,436v-5" transform="translate(149,0)" style="stroke: rgb(68, 68, 68); stroke-opacity: 1; stroke-width: 1px;"/><path class="xtick ticks crisp" d="M0,436v-5" transform="translate(198,0)" style="stroke: rgb(68, 68, 68); stroke-opacity: 1; stroke-width: 1px;"/><path class="xtick ticks crisp" d="M0,436v-5" transform="translate(247,0)" style="stroke: rgb(68, 68, 68); stroke-opacity: 1; stroke-width: 1px;"/><path class="xtick ticks crisp" d="M0,436v-5" transform="translate(296,0)" style="stroke: rgb(68, 68, 68); stroke-opacity: 1; stroke-width: 1px;"/><path class="xtick ticks crisp" d="M0,436v-5" transform="translate(345,0)" style="stroke: rgb(68, 68, 68); stroke-opacity: 1; stroke-width: 1px;"/><path class="xtick ticks crisp" d="M0,436v-5" transform="translate(394,0)" style="stroke: rgb(68, 68, 68); stroke-opacity: 1; stroke-width: 1px;"/><path class="xtick ticks crisp" d="M0,436v-5" transform="translate(443,0)" style="stroke: rgb(68, 68, 68); stroke-opacity: 1; stroke-width: 1px;"/><path class="xtick ticks crisp" d="M0,436v-5" transform="translate(492,0)" style="stroke: rgb(68, 68, 68); stroke-opacity: 1; stroke-width: 1px;"/><path class="xtick ticks crisp" d="M0,436v-5" transform="translate(541,0)" style="stroke: rgb(68, 68, 68); stroke-opacity: 1; stroke-width: 1px;"/><path class="xtick ticks crisp" d="M0,436v-5" transform="translate(590,0)" style="stroke: rgb(68, 68, 68); stroke-opacity: 1; stroke-width: 1px;"/><path class="xtick ticks crisp" d="M0,436v-5" transform="translate(639,0)" style="stroke: rgb(68, 68, 68); stroke-opacity: 1; stroke-width: 1px;"/><path class="xtick ticks crisp" d="M0,436v-5" transform="translate(688,0)" style="stroke: rgb(68, 68, 68); stroke-opacity: 1; stroke-width: 1px;"/><g class="xtick"><text text-anchor="start" x="0" y="452" transform="translate(51,0) rotate(29.999999999999996,0,444.5)" style="font-family: 'Segoe UI Semibold'; font-size: 15px; fill: rgb(0, 0, 0); fill-opacity: 1; white-space: pre;">2010-11</text></g><g class="xtick"><text text-anchor="start" x="0" y="452" transform="translate(100,0) rotate(29.999999999999996,0,444.5)" style="font-family: 'Segoe UI Semibold'; font-size: 15px; fill: rgb(0, 0, 0); fill-opacity: 1; white-space: pre;">2011-12</text></g><g class="xtick"><text text-anchor="start" x="0" y="452" transform="translate(149,0) rotate(29.999999999999996,0,444.5)" style="font-family: 'Segoe UI Semibold'; font-size: 15px; fill: rgb(0, 0, 0); fill-opacity: 1; white-space: pre;">2012-13</text></g><g class="xtick"><text text-anchor="start" x="0" y="452" transform="translate(198,0) rotate(29.999999999999996,0,444.5)" style="font-family: 'Segoe UI Semibold'; font-size: 15px; fill: rgb(0, 0, 0); fill-opacity: 1; white-space: pre;">2013-14</text></g><g class="xtick"><text text-anchor="start" x="0" y="452" transform="translate(247,0) rotate(29.999999999999996,0,444.5)" style="font-family: 'Segoe UI Semibold'; font-size: 15px; fill: rgb(0, 0, 0); fill-opacity: 1; white-space: pre;">2014-15</text></g><g class="xtick"><text text-anchor="start" x="0" y="452" transform="translate(296,0) rotate(29.999999999999996,0,444.5)" style="font-family: 'Segoe UI Semibold'; font-size: 15px; fill: rgb(0, 0, 0); fill-opacity: 1; white-space: pre;">2015-16</text></g><g class="xtick"><text text-anchor="start" x="0" y="452" transform="translate(345,0) rotate(29.999999999999996,0,444.5)" style="font-family: 'Segoe UI Semibold'; font-size: 15px; fill: rgb(0, 0, 0); fill-opacity: 1; white-space: pre;">2016-17</text></g><g class="xtick"><text text-anchor="start" x="0" y="452" transform="translate(394,0) rotate(29.999999999999996,0,444.5)" style="font-family: 'Segoe UI Semibold'; font-size: 15px; fill: rgb(0, 0, 0); fill-opacity: 1; white-space: pre;">2017-18</text></g><g class="xtick"><text text-anchor="start" x="0" y="452" transform="translate(443,0) rotate(29.999999999999996,0,444.5)" style="font-family: 'Segoe UI Semibold'; font-size: 15px; fill: rgb(0, 0, 0); fill-opacity: 1; white-space: pre;">2018-19</text></g><g class="xtick"><text text-anchor="start" x="0" y="452" transform="translate(492,0) rotate(29.999999999999996,0,444.5)" style="font-family: 'Segoe UI Semibold'; font-size: 15px; fill: rgb(0, 0, 0); fill-opacity: 1; white-space: pre;">2019-20</text></g><g class="xtick"><text text-anchor="start" x="0" y="452" transform="translate(541,0) rotate(29.999999999999996,0,444.5)" style="font-family: 'Segoe UI Semibold'; font-size: 15px; fill: rgb(0, 0, 0); fill-opacity: 1; white-space: pre;">2020-21</text></g><g class="xtick"><text text-anchor="start" x="0" y="452" transform="translate(590,0) rotate(29.999999999999996,0,444.5)" style="font-family: 'Segoe UI Semibold'; font-size: 15px; fill: rgb(0, 0, 0); fill-opacity: 1; white-space: pre;">2021-22</text></g><g class="xtick"><text text-anchor="start" x="0" y="452" transform="translate(639,0) rotate(29.999999999999996,0,444.5)" style="font-family: 'Segoe UI Semibold'; font-size: 15px; fill: rgb(0, 0, 0); fill-opacity: 1; white-space: pre;">2022-23</text></g><g class="xtick"><text text-anchor="start" x="0" y="452" transform="translate(688,0) rotate(29.999999999999996,0,444.5)" style="font-family: 'Segoe UI Semibold'; font-size: 15px; fill: rgb(0, 0, 0); fill-opacity: 1; white-space: pre;">2023-24</text></g><g class="xtick"><text text-anchor="start" x="0" y="452" transform="translate(737,0) rotate(29.999999999999996,0,444.5)" style="font-family: 'Segoe UI Semibold'; font-size: 15px; fill: rgb(0, 0, 0); fill-opacity: 1; white-space: pre;">2024-25</text></g></g><g class="yaxislayer-above"><g class="ytick"><text text-anchor="end" x="40" y="5.25" transform="translate(0,426)" style="font-family: 'Segoe UI Semibold'; font-size: 15px; fill: rgb(0, 0, 0); fill-opacity: 1; white-space: pre;">40%</text></g><g class="ytick"><text text-anchor="end" x="40" y="5.25" style="font-family: 'Segoe UI Semibold'; font-size: 15px; fill: rgb(0, 0, 0); fill-opacity: 1; white-space: pre;" transform="translate(0,363)">45%</text></g><g class="ytick"><text text-anchor="end" x="40" y="5.25" style="font-family: 'Segoe UI Semibold'; font-size: 15px; fill: rgb(0, 0, 0); fill-opacity: 1; white-space: pre;" transform="translate(0,300)">50%</text></g><g class="ytick"><text text-anchor="end" x="40" y="5.25" style="font-family: 'Segoe UI Semibold'; font-size: 15px; fill: rgb(0, 0, 0); fill-opacity: 1; white-space: pre;" transform="translate(0,237)">55%</text></g><g class="ytick"><text text-anchor="end" x="40" y="5.25" style="font-family: 'Segoe UI Semibold'; font-size: 15px; fill: rgb(0, 0, 0); fill-opacity: 1; white-space: pre;" transform="translate(0,174)">60%</text></g><g class="ytick"><text text-anchor="end" x="40" y="5.25" style="font-family: 'Segoe UI Semibold'; font-size: 15px; fill: rgb(0, 0, 0); fill-opacity: 1; white-space: pre;" transform="translate(0,111)">65%</text></g><g class="ytick"><text text-anchor="end" x="40" y="5.25" style="font-family: 'Segoe UI Semibold'; font-size: 15px; fill: rgb(0, 0, 0); fill-opacity: 1; white-space: pre;" transform="translate(0,48)">70%</text></g></g><g class="overaxes-above"/></g></g><g class="polarlayer"/><g class="smithlayer"/><g class="ternarylayer"/><g class="geolayer"/><g class="funnelarealayer"/><g class="pielayer"/><g class="iciclelayer"/><g class="treemaplayer"/><g class="sunburstlayer"/><g class="glimages"/><defs id="topdefs-aef093"><g class="clips"/><clipPath id="legendaef093"><rect width="285" height="33" x="0" y="0"/></clipPath></defs><g class="layer-above"><g class="imagelayer"/><g class="shapelayer"/></g><g class="infolayer"><g class="legend" pointer-events="all" transform="translate(51,10.199999999999967)"><rect class="bg" shape-rendering="crispEdges" style="stroke: rgb(68, 68, 68); stroke-opacity: 1; fill: rgb(0, 0, 0); fill-opacity: 0; stroke-width: 0px;" width="285" height="33" x="0" y="0"/><g class="scrollbox" transform="" clip-path="url(#legendaef093)"><g class="groups"><g class="traces" transform="translate(0,16.25)" style="opacity: 1;"><text class="legendtext" text-anchor="start" x="40" y="5.85" style="font-family: 'Segoe UI Semibold'; font-size: 15px; fill: rgb(0, 0, 0); fill-opacity: 1; white-space: pre;">Stirling</text><g class="layers"><g class="legendfill"><path class="js-fill" d="M5,-2h30v6h-30z" style="stroke-width: 0; fill: rgb(93, 35, 129); fill-opacity: 0.5;"/></g><g class="legendlines"><path class="js-line" d="M5,-2h30" style="fill: none; stroke: rgb(93, 35, 129); stroke-opacity: 1; stroke-width: 5px;"/></g><g class="legendsymbols"><g class="legendpoints"/></g></g><rect class="legendtoggle" x="0" y="-11.25" width="90.765625" height="22.5" style="fill: rgb(0, 0, 0); fill-opacity: 0;"/></g><g class="traces" transform="translate(93.265625,16.25)" style="opacity: 1;"><text class="legendtext" text-anchor="start" x="40" y="5.85" style="font-family: 'Segoe UI Semibold'; font-size: 15px; fill: rgb(0, 0, 0); fill-opacity: 1; white-space: pre;">Family Group Median</text><g class="layers" style="opacity: 1;"><g class="legendfill"/><g class="legendlines"><path class="js-line" d="M5,0h30" style="fill: none; stroke: rgb(35, 129, 93); stroke-opacity: 1; stroke-width: 5px;"/></g><g class="legendsymbols"><g class="legendpoints"/></g></g><rect class="legendtoggle" x="0" y="-11.25" width="188.6015625" height="22.5" style="fill: rgb(0, 0, 0); fill-opacity: 0;"/></g></g></g><rect class="scrollbar" rx="20" ry="3" width="0" height="0" style="fill: rgb(128, 139, 164); fill-opacity: 1;" x="0" y="0"/></g><g class="g-gtitle"/><g class="g-xtitle"/><g class="g-ytitle"/></g></svg>