<svg class="main-svg" xmlns="http://www.w3.org/2000/svg" xmlns:xlink="http://www.w3.org/1999/xlink" width="790" height="305" style="" viewBox="0 0 790 305"><rect x="0" y="0" width="790" height="305" style="fill: rgb(255, 255, 255); fill-opacity: 1;"/><defs id="defs-81105e"><g class="clips"><clipPath id="clip81105exyplot" class="plotclip"><rect width="701" height="232"/></clipPath><clipPath class="axesclip" id="clip81105ex"><rect x="50" y="0" width="701" height="305"/></clipPath><clipPath class="axesclip" id="clip81105ey"><rect x="0" y="33" width="790" height="232"/></clipPath><clipPath class="axesclip" id="clip81105exy"><rect x="50" y="33" width="701" height="232"/></clipPath></g><g class="gradients"/><g class="patterns"/></defs><g class="bglayer"><rect class="bg" x="40" y="23" width="721" height="252" style="fill: rgb(0, 0, 0); fill-opacity: 0; stroke-width: 0;"/></g><g class="layer-below"><g class="imagelayer"/><g class="shapelayer"/></g><g class="cartesianlayer"><g class="subplot xy"><g class="layer-subplot"><g class="shapelayer"/><g class="imagelayer"/></g><g class="minor-gridlayer"><g class="x"/><g class="y"/></g><g class="gridlayer"><g class="x"><path class="xgrid crisp" transform="translate(113.72999999999999,0)" d="M0,33v232" style="stroke: rgb(255, 255, 255); stroke-opacity: 1; stroke-width: 1px;"/><path class="xgrid crisp" transform="translate(177.45,0)" d="M0,33v232" style="stroke: rgb(255, 255, 255); stroke-opacity: 1; stroke-width: 1px;"/><path class="xgrid crisp" transform="translate(241.18,0)" d="M0,33v232" style="stroke: rgb(255, 255, 255); stroke-opacity: 1; stroke-width: 1px;"/><path class="xgrid crisp" transform="translate(304.90999999999997,0)" d="M0,33v232" style="stroke: rgb(255, 255, 255); stroke-opacity: 1; stroke-width: 1px;"/><path class="xgrid crisp" transform="translate(368.64,0)" d="M0,33v232" style="stroke: rgb(255, 255, 255); stroke-opacity: 1; stroke-width: 1px;"/><path class="xgrid crisp" transform="translate(432.36,0)" d="M0,33v232" style="stroke: rgb(255, 255, 255); stroke-opacity: 1; stroke-width: 1px;"/><path class="xgrid crisp" transform="translate(496.09,0)" d="M0,33v232" style="stroke: rgb(255, 255, 255); stroke-opacity: 1; stroke-width: 1px;"/><path class="xgrid crisp" transform="translate(559.8199999999999,0)" d="M0,33v232" style="stroke: rgb(255, 255, 255); stroke-opacity: 1; stroke-width: 1px;"/><path class="xgrid crisp" transform="translate(623.55,0)" d="M0,33v232" style="stroke: rgb(255, 255, 255); stroke-opacity: 1; stroke-width: 1px;"/><path class="xgrid crisp" transform="translate(687.27,0)" d="M0,33v232" style="stroke: rgb(255, 255, 255); stroke-opacity: 1; stroke-width: 1px;"/></g><g class="y"><path class="ygrid crisp" transform="translate(0,222.26)" d="M50,0h701" style="stroke: rgb(237, 237, 237); stroke-opacity: 1; stroke-width: 1px;"/><path class="ygrid crisp" transform="translate(0,179.53)" d="M50,0h701" style="stroke: rgb(237, 237, 237); stroke-opacity: 1; stroke-width: 1px;"/><path class="ygrid crisp" transform="translate(0,136.79000000000002)" d="M50,0h701" style="stroke: rgb(237, 237, 237); stroke-opacity: 1; stroke-width: 1px;"/><path class="ygrid crisp" transform="translate(0,94.05)" d="M50,0h701" style="stroke: rgb(237, 237, 237); stroke-opacity: 1; stroke-width: 1px;"/><path class="ygrid crisp" transform="translate(0,51.32)" d="M50,0h701" style="stroke: rgb(237, 237, 237); stroke-opacity: 1; stroke-width: 1px;"/></g></g><g class="zerolinelayer"><path class="yzl zl crisp" transform="translate(0,265)" d="M50,0h701" style="stroke: rgb(255, 255, 255); stroke-opacity: 1; stroke-width: 2px;"/></g><path class="xlines-below"/><path class="ylines-below"/><g class="overlines-below"/><g class="xaxislayer-below"/><g class="yaxislayer-below"/><g class="overaxes-below"/><g class="plot" transform="translate(50,33)" clip-path="url(#clip81105exyplot)"><g class="scatterlayer mlayer"><g class="trace scatter trace881c87" style="stroke-miterlimit: 2;"><g class="fills"><g><path class="js-fill" d="M701,232L0,232L0,214.91Q49.08,215.31 63.73,212.43C78.83,209.47 112.53,189.55 127.45,189.26C142.27,188.97 176.14,208.14 191.18,209.69C205.89,211.21 241.37,210.31 254.91,203.02C271.86,193.9 301.95,136.87 318.64,125.41C332.29,116.04 367.83,110.86 382.36,104.3C397.6,97.42 432.56,63.94 446.09,67.12C463.06,71.1 496.05,165.35 509.82,164.07C526.26,162.54 553.48,20.93 573.55,11.6C586.31,5.67 622.47,26.54 637.27,31.67Q652.21,36.85 701,55.83" style="fill: rgb(93, 35, 129); fill-opacity: 0.5; stroke-width: 0;"/></g></g><g class="errorbars"/><g class="lines"><path class="js-line" d="M0,214.91Q49.08,215.31 63.73,212.43C78.83,209.47 112.53,189.55 127.45,189.26C142.27,188.97 176.14,208.14 191.18,209.69C205.89,211.21 241.37,210.31 254.91,203.02C271.86,193.9 301.95,136.87 318.64,125.41C332.29,116.04 367.83,110.86 382.36,104.3C397.6,97.42 432.56,63.94 446.09,67.12C463.06,71.1 496.05,165.35 509.82,164.07C526.26,162.54 553.48,20.93 573.55,11.6C586.31,5.67 622.47,26.54 637.27,31.67Q652.21,36.85 701,55.83" style="vector-effect: none; fill: none; stroke: rgb(93, 35, 129); stroke-opacity: 1; stroke-width: 4px; opacity: 1;"/></g><g class="points"/><g class="text"/></g><g class="trace scatter traceeffdf2" style="stroke-miterlimit: 2; opacity: 1;"><g class="fills"/><g class="errorbars"/><g class="lines"><path class="js-line" d="M0,183.88Q48.81,165.78 63.73,160.71C78.55,155.67 112.42,142.13 127.45,140.54C142.16,138.99 176.7,149.46 191.18,146.7C206.49,143.78 239.63,118.99 254.91,114.09C269.41,109.44 303.94,103.25 318.64,104.64C333.69,106.07 368.23,129.61 382.36,126.91C398.15,123.89 432.15,69.9 446.09,71.69C462.2,73.76 495.18,164.84 509.82,164.53C524.94,164.21 556.79,65.98 573.55,62.81C587.17,60.23 621.52,103.8 637.27,109.96Q651.43,115.5 701,116.89" style="vector-effect: none; fill: none; stroke: rgb(35, 129, 93); stroke-opacity: 1; stroke-width: 4px; opacity: 1;"/></g><g class="points"/><g class="text"/></g></g></g><g class="overplot"/><path class="xlines-above crisp" d="" style="fill: none; stroke-width: 1px; stroke: rgb(0, 0, 0); stroke-opacity: 0;"/><path class="ylines-above crisp" d="M0,0" style="fill: none;"/><g class="overlines-above"/><g class="xaxislayer-above"><path class="xtick ticks crisp" d="M0,275v-5" transform="translate(113.72999999999999,0)" style="stroke: rgb(68, 68, 68); stroke-opacity: 1; stroke-width: 1px;"/><path class="xtick ticks crisp" d="M0,275v-5" transform="translate(177.45,0)" style="stroke: rgb(68, 68, 68); stroke-opacity: 1; stroke-width: 1px;"/><path class="xtick ticks crisp" d="M0,275v-5" transform="translate(241.18,0)" style="stroke: rgb(68, 68, 68); stroke-opacity: 1; stroke-width: 1px;"/><path class="xtick ticks crisp" d="M0,275v-5" transform="translate(304.90999999999997,0)" style="stroke: rgb(68, 68, 68); stroke-opacity: 1; stroke-width: 1px;"/><path class="xtick ticks crisp" d="M0,275v-5" transform="translate(368.64,0)" style="stroke: rgb(68, 68, 68); stroke-opacity: 1; stroke-width: 1px;"/><path class="xtick ticks crisp" d="M0,275v-5" transform="translate(432.36,0)" style="stroke: rgb(68, 68, 68); stroke-opacity: 1; stroke-width: 1px;"/><path class="xtick ticks crisp" d="M0,275v-5" transform="translate(496.09,0)" style="stroke: rgb(68, 68, 68); stroke-opacity: 1; stroke-width: 1px;"/><path class="xtick ticks crisp" d="M0,275v-5" transform="translate(559.8199999999999,0)" style="stroke: rgb(68, 68, 68); stroke-opacity: 1; stroke-width: 1px;"/><path class="xtick ticks crisp" d="M0,275v-5" transform="translate(623.55,0)" style="stroke: rgb(68, 68, 68); stroke-opacity: 1; stroke-width: 1px;"/><path class="xtick ticks crisp" d="M0,275v-5" transform="translate(687.27,0)" style="stroke: rgb(68, 68, 68); stroke-opacity: 1; stroke-width: 1px;"/><g class="xtick"><text text-anchor="middle" x="0" y="291" transform="translate(50,0)" style="font-family: 'Segoe UI Semibold'; font-size: 15px; fill: rgb(0, 0, 0); fill-opacity: 1; white-space: pre; opacity: 1;">2012-13</text></g><g class="xtick"><text text-anchor="middle" x="0" y="291" transform="translate(113.72999999999999,0)" style="font-family: 'Segoe UI Semibold'; font-size: 15px; fill: rgb(0, 0, 0); fill-opacity: 1; white-space: pre; opacity: 1;">2013-14</text></g><g class="xtick"><text text-anchor="middle" x="0" y="291" transform="translate(177.45,0)" style="font-family: 'Segoe UI Semibold'; font-size: 15px; fill: rgb(0, 0, 0); fill-opacity: 1; white-space: pre; opacity: 1;">2014-15</text></g><g class="xtick"><text text-anchor="middle" x="0" y="291" transform="translate(241.18,0)" style="font-family: 'Segoe UI Semibold'; font-size: 15px; fill: rgb(0, 0, 0); fill-opacity: 1; white-space: pre; opacity: 1;">2015-16</text></g><g class="xtick"><text text-anchor="middle" x="0" y="291" transform="translate(304.90999999999997,0)" style="font-family: 'Segoe UI Semibold'; font-size: 15px; fill: rgb(0, 0, 0); fill-opacity: 1; white-space: pre; opacity: 1;">2016-17</text></g><g class="xtick"><text text-anchor="middle" x="0" y="291" transform="translate(368.64,0)" style="font-family: 'Segoe UI Semibold'; font-size: 15px; fill: rgb(0, 0, 0); fill-opacity: 1; white-space: pre; opacity: 1;">2017-18</text></g><g class="xtick"><text text-anchor="middle" x="0" y="291" transform="translate(432.36,0)" style="font-family: 'Segoe UI Semibold'; font-size: 15px; fill: rgb(0, 0, 0); fill-opacity: 1; white-space: pre; opacity: 1;">2018-19</text></g><g class="xtick"><text text-anchor="middle" x="0" y="291" transform="translate(496.09,0)" style="font-family: 'Segoe UI Semibold'; font-size: 15px; fill: rgb(0, 0, 0); fill-opacity: 1; white-space: pre; opacity: 1;">2019-20</text></g><g class="xtick"><text text-anchor="middle" x="0" y="291" transform="translate(559.8199999999999,0)" style="font-family: 'Segoe UI Semibold'; font-size: 15px; fill: rgb(0, 0, 0); fill-opacity: 1; white-space: pre; opacity: 1;">2020-21</text></g><g class="xtick"><text text-anchor="middle" x="0" y="291" transform="translate(623.55,0)" style="font-family: 'Segoe UI Semibold'; font-size: 15px; fill: rgb(0, 0, 0); fill-opacity: 1; white-space: pre; opacity: 1;">2021-22</text></g><g class="xtick"><text text-anchor="middle" x="0" y="291" transform="translate(687.27,0)" style="font-family: 'Segoe UI Semibold'; font-size: 15px; fill: rgb(0, 0, 0); fill-opacity: 1; white-space: pre; opacity: 1;">2022-23</text></g><g class="xtick"><text text-anchor="middle" x="0" y="291" transform="translate(751,0)" style="font-family: 'Segoe UI Semibold'; font-size: 15px; fill: rgb(0, 0, 0); fill-opacity: 1; white-space: pre; opacity: 1;">2023-24</text></g></g><g class="yaxislayer-above"><g class="ytick"><text text-anchor="end" x="39" y="5.25" transform="translate(0,265)" style="font-family: 'Segoe UI Semibold'; font-size: 15px; fill: rgb(0, 0, 0); fill-opacity: 1; white-space: pre; opacity: 1;">0%</text></g><g class="ytick"><text text-anchor="end" x="39" y="5.25" style="font-family: 'Segoe UI Semibold'; font-size: 15px; fill: rgb(0, 0, 0); fill-opacity: 1; white-space: pre; opacity: 1;" transform="translate(0,222.26)">5%</text></g><g class="ytick"><text text-anchor="end" x="39" y="5.25" style="font-family: 'Segoe UI Semibold'; font-size: 15px; fill: rgb(0, 0, 0); fill-opacity: 1; white-space: pre; opacity: 1;" transform="translate(0,179.53)">10%</text></g><g class="ytick"><text text-anchor="end" x="39" y="5.25" style="font-family: 'Segoe UI Semibold'; font-size: 15px; fill: rgb(0, 0, 0); fill-opacity: 1; white-space: pre; opacity: 1;" transform="translate(0,136.79000000000002)">15%</text></g><g class="ytick"><text text-anchor="end" x="39" y="5.25" style="font-family: 'Segoe UI Semibold'; font-size: 15px; fill: rgb(0, 0, 0); fill-opacity: 1; white-space: pre; opacity: 1;" transform="translate(0,94.05)">20%</text></g><g class="ytick"><text text-anchor="end" x="39" y="5.25" style="font-family: 'Segoe UI Semibold'; font-size: 15px; fill: rgb(0, 0, 0); fill-opacity: 1; white-space: pre; opacity: 1;" transform="translate(0,51.32)">25%</text></g></g><g class="overaxes-above"/></g></g><g class="polarlayer"/><g class="smithlayer"/><g class="ternarylayer"/><g class="geolayer"/><g class="funnelarealayer"/><g class="pielayer"/><g class="iciclelayer"/><g class="treemaplayer"/><g class="sunburstlayer"/><g class="glimages"/><defs id="topdefs-81105e"><g class="clips"/><clipPath id="legend81105e"><rect width="285" height="33" x="0" y="0"/></clipPath></defs><g class="layer-above"><g class="imagelayer"/><g class="shapelayer"/></g><g class="infolayer"><g class="legend" pointer-events="all" transform="translate(50,9.79999999999998)"><rect class="bg" shape-rendering="crispEdges" width="285" height="33" x="0" y="0" style="stroke: rgb(68, 68, 68); stroke-opacity: 1; fill: rgb(0, 0, 0); fill-opacity: 0; stroke-width: 0px;"/><g class="scrollbox" transform="" clip-path="url(#legend81105e)"><g class="groups"><g class="traces" transform="translate(0,16.25)" style="opacity: 1;"><text class="legendtext" text-anchor="start" x="40" y="5.85" style="font-family: 'Segoe UI Semibold'; font-size: 15px; fill: rgb(0, 0, 0); fill-opacity: 1; white-space: pre;">Stirling</text><g class="layers"><g class="legendfill"><path class="js-fill" d="M5,-2h30v6h-30z" style="stroke-width: 0; fill: rgb(93, 35, 129); fill-opacity: 0.5;"/></g><g class="legendlines"><path class="js-line" d="M5,-2h30" style="fill: none; stroke: rgb(93, 35, 129); stroke-opacity: 1; stroke-width: 5px;"/></g><g class="legendsymbols"><g class="legendpoints"/></g></g><rect class="legendtoggle" x="0" y="-11.25" width="90.765625" height="22.5" style="fill: rgb(0, 0, 0); fill-opacity: 0;"/></g><g class="traces" transform="translate(93.265625,16.25)" style="opacity: 1;"><text class="legendtext" text-anchor="start" x="40" y="5.85" style="font-family: 'Segoe UI Semibold'; font-size: 15px; fill: rgb(0, 0, 0); fill-opacity: 1; white-space: pre;">Family Group Median</text><g class="layers" style="opacity: 1;"><g class="legendfill"/><g class="legendlines"><path class="js-line" d="M5,0h30" style="fill: none; stroke: rgb(35, 129, 93); stroke-opacity: 1; stroke-width: 5px;"/></g><g class="legendsymbols"><g class="legendpoints"/></g></g><rect class="legendtoggle" x="0" y="-11.25" width="188.609375" height="22.5" style="fill: rgb(0, 0, 0); fill-opacity: 0;"/></g></g></g><rect class="scrollbar" rx="20" ry="3" width="0" height="0" x="0" y="0" style="fill: rgb(128, 139, 164); fill-opacity: 1;"/></g><g class="g-gtitle"/><g class="g-xtitle"/><g class="g-ytitle"/></g></svg>