<svg class="main-svg" xmlns="http://www.w3.org/2000/svg" xmlns:xlink="http://www.w3.org/1999/xlink" width="16535.4330708" height="9448.8188976" style="" viewBox="0 0 700 400"><rect x="0" y="0" width="700" height="400" style="fill: rgb(255, 255, 255); fill-opacity: 1;"/><defs id="defs-2498f3"><g class="clips"><clipPath id="clip2498f3xyplot" class="plotclip"><rect width="615" height="322"/></clipPath><clipPath class="axesclip" id="clip2498f3x"><rect x="54" y="0" width="615" height="400"/></clipPath><clipPath class="axesclip" id="clip2498f3y"><rect x="0" y="42" width="700" height="322"/></clipPath><clipPath class="axesclip" id="clip2498f3xy"><rect x="54" y="42" width="615" height="322"/></clipPath></g><g class="gradients"/><g class="patterns"/></defs><g class="bglayer"><rect class="bg" x="44" y="32" width="635" height="342" style="fill: rgb(0, 0, 0); fill-opacity: 0; stroke-width: 0;"/></g><g class="layer-below"><g class="imagelayer"/><g class="shapelayer"/></g><g class="cartesianlayer"><g class="subplot xy"><g class="layer-subplot"><g class="shapelayer"/><g class="imagelayer"/></g><g class="gridlayer"><g class="x"><path class="xgrid crisp" transform="translate(130.88,0)" d="M0,42v322" style="stroke: rgb(255, 255, 255); stroke-opacity: 1; stroke-width: 1px;"/><path class="xgrid crisp" transform="translate(207.75,0)" d="M0,42v322" style="stroke: rgb(255, 255, 255); stroke-opacity: 1; stroke-width: 1px;"/><path class="xgrid crisp" transform="translate(284.63,0)" d="M0,42v322" style="stroke: rgb(255, 255, 255); stroke-opacity: 1; stroke-width: 1px;"/><path class="xgrid crisp" transform="translate(361.5,0)" d="M0,42v322" style="stroke: rgb(255, 255, 255); stroke-opacity: 1; stroke-width: 1px;"/><path class="xgrid crisp" transform="translate(438.38,0)" d="M0,42v322" style="stroke: rgb(255, 255, 255); stroke-opacity: 1; stroke-width: 1px;"/><path class="xgrid crisp" transform="translate(515.25,0)" d="M0,42v322" style="stroke: rgb(255, 255, 255); stroke-opacity: 1; stroke-width: 1px;"/><path class="xgrid crisp" transform="translate(592.13,0)" d="M0,42v322" style="stroke: rgb(255, 255, 255); stroke-opacity: 1; stroke-width: 1px;"/></g><g class="y"><path class="ygrid crisp" transform="translate(0,307.12)" d="M54,0h615" style="stroke: rgb(237, 237, 237); stroke-opacity: 1; stroke-width: 1px;"/><path class="ygrid crisp" transform="translate(0,250.24)" d="M54,0h615" style="stroke: rgb(237, 237, 237); stroke-opacity: 1; stroke-width: 1px;"/><path class="ygrid crisp" transform="translate(0,193.37)" d="M54,0h615" style="stroke: rgb(237, 237, 237); stroke-opacity: 1; stroke-width: 1px;"/><path class="ygrid crisp" transform="translate(0,136.49)" d="M54,0h615" style="stroke: rgb(237, 237, 237); stroke-opacity: 1; stroke-width: 1px;"/><path class="ygrid crisp" transform="translate(0,79.61)" d="M54,0h615" style="stroke: rgb(237, 237, 237); stroke-opacity: 1; stroke-width: 1px;"/></g></g><g class="zerolinelayer"><path class="yzl zl crisp" transform="translate(0,364)" d="M54,0h615" style="stroke: rgb(255, 255, 255); stroke-opacity: 1; stroke-width: 2px;"/></g><path class="xlines-below"/><path class="ylines-below"/><g class="overlines-below"/><g class="xaxislayer-below"/><g class="yaxislayer-below"/><g class="overaxes-below"/><g class="plot" transform="translate(54,42)" clip-path="url(#clip2498f3xyplot)"><g class="scatterlayer mlayer"><g class="trace scatter trace2b0038" style="stroke-miterlimit: 2;"><g class="fills"><g><path class="js-fill" d="M615,322L0,322L0,16.1Q60.21,19.79 76.88,28.29C96.58,38.33 134.11,94.44 153.75,105.17C170.46,114.29 213.02,115.93 230.63,121.9C248.92,128.1 289.56,149.6 307.5,158.02C325.44,166.44 366.31,193.5 384.38,194.11C402.19,194.71 442.99,167.66 461.25,164.2C478.88,160.86 520.19,163.78 538.13,163.96Q556.07,164.14 615,165.78" style="fill: rgb(128, 0, 128); fill-opacity: 0.5; stroke-width: 0;"/></g></g><g class="errorbars"/><g class="lines"><path class="js-line" d="M0,16.1Q60.21,19.79 76.88,28.29C96.58,38.33 134.11,94.44 153.75,105.17C170.46,114.29 213.02,115.93 230.63,121.9C248.92,128.1 289.56,149.6 307.5,158.02C325.44,166.44 366.31,193.5 384.38,194.11C402.19,194.71 442.99,167.66 461.25,164.2C478.88,160.86 520.19,163.78 538.13,163.96Q556.07,164.14 615,165.78" style="vector-effect: non-scaling-stroke; fill: none; stroke: rgb(128, 0, 128); stroke-opacity: 1; stroke-width: 2px; opacity: 1;"/></g><g class="points"/><g class="text"/></g><g class="trace scatter trace60f20d" style="stroke-miterlimit: 2; opacity: 1;"><g class="fills"/><g class="errorbars"/><g class="lines"><path class="js-line" d="M0,120.77Q58.97,129.3 76.88,132.33C94.84,135.37 135.78,146.36 153.75,146.78C171.65,147.2 212.65,136.92 230.63,136.01C248.53,135.1 289.81,135.59 307.5,138.9C325.69,142.31 366.2,163.19 384.38,165.46C402.09,167.68 443.48,157.18 461.25,159.01C479.37,160.88 520.12,177.15 538.13,181.89Q555.99,186.59 615,199.52" style="vector-effect: non-scaling-stroke; fill: none; stroke: rgb(255, 0, 0); stroke-opacity: 1; stroke-width: 2px; opacity: 1;"/></g><g class="points"/><g class="text"/></g></g></g><g class="overplot"/><path class="xlines-above crisp" d="M0,0" style="fill: none;"/><path class="ylines-above crisp" d="M0,0" style="fill: none;"/><g class="overlines-above"/><g class="xaxislayer-above"><g class="xtick"><text text-anchor="middle" x="0" y="387" transform="translate(54,0)" style="font-family: 'Segoe UI Semibold'; font-size: 12px; fill: rgb(0, 0, 0); fill-opacity: 1; white-space: pre; opacity: 1;">2012-13</text></g><g class="xtick"><text text-anchor="middle" x="0" y="387" transform="translate(130.88,0)" style="font-family: 'Segoe UI Semibold'; font-size: 12px; fill: rgb(0, 0, 0); fill-opacity: 1; white-space: pre; opacity: 1;">2013-14</text></g><g class="xtick"><text text-anchor="middle" x="0" y="387" transform="translate(207.75,0)" style="font-family: 'Segoe UI Semibold'; font-size: 12px; fill: rgb(0, 0, 0); fill-opacity: 1; white-space: pre; opacity: 1;">2014-15</text></g><g class="xtick"><text text-anchor="middle" x="0" y="387" transform="translate(284.63,0)" style="font-family: 'Segoe UI Semibold'; font-size: 12px; fill: rgb(0, 0, 0); fill-opacity: 1; white-space: pre; opacity: 1;">2015-16</text></g><g class="xtick"><text text-anchor="middle" x="0" y="387" transform="translate(361.5,0)" style="font-family: 'Segoe UI Semibold'; font-size: 12px; fill: rgb(0, 0, 0); fill-opacity: 1; white-space: pre; opacity: 1;">2016-17</text></g><g class="xtick"><text text-anchor="middle" x="0" y="387" transform="translate(438.38,0)" style="font-family: 'Segoe UI Semibold'; font-size: 12px; fill: rgb(0, 0, 0); fill-opacity: 1; white-space: pre; opacity: 1;">2017-18</text></g><g class="xtick"><text text-anchor="middle" x="0" y="387" transform="translate(515.25,0)" style="font-family: 'Segoe UI Semibold'; font-size: 12px; fill: rgb(0, 0, 0); fill-opacity: 1; white-space: pre; opacity: 1;">2018-19</text></g><g class="xtick"><text text-anchor="middle" x="0" y="387" transform="translate(592.13,0)" style="font-family: 'Segoe UI Semibold'; font-size: 12px; fill: rgb(0, 0, 0); fill-opacity: 1; white-space: pre; opacity: 1;">2019-20</text></g><g class="xtick"><text text-anchor="middle" x="0" y="387" transform="translate(669,0)" style="font-family: 'Segoe UI Semibold'; font-size: 12px; fill: rgb(0, 0, 0); fill-opacity: 1; white-space: pre; opacity: 1;">2020-21</text></g></g><g class="yaxislayer-above"><g class="ytick"><text text-anchor="end" x="43" y="4.199999999999999" transform="translate(0,364)" style="font-family: 'Segoe UI Semibold'; font-size: 12px; fill: rgb(0, 0, 0); fill-opacity: 1; white-space: pre; opacity: 1;">0</text></g><g class="ytick"><text text-anchor="end" x="43" y="4.199999999999999" style="font-family: 'Segoe UI Semibold'; font-size: 12px; fill: rgb(0, 0, 0); fill-opacity: 1; white-space: pre; opacity: 1;" transform="translate(0,307.12)">5000</text></g><g class="ytick"><text text-anchor="end" x="43" y="4.199999999999999" style="font-family: 'Segoe UI Semibold'; font-size: 12px; fill: rgb(0, 0, 0); fill-opacity: 1; white-space: pre; opacity: 1;" transform="translate(0,250.24)">10000</text></g><g class="ytick"><text text-anchor="end" x="43" y="4.199999999999999" style="font-family: 'Segoe UI Semibold'; font-size: 12px; fill: rgb(0, 0, 0); fill-opacity: 1; white-space: pre; opacity: 1;" transform="translate(0,193.37)">15000</text></g><g class="ytick"><text text-anchor="end" x="43" y="4.199999999999999" style="font-family: 'Segoe UI Semibold'; font-size: 12px; fill: rgb(0, 0, 0); fill-opacity: 1; white-space: pre; opacity: 1;" transform="translate(0,136.49)">20000</text></g><g class="ytick"><text text-anchor="end" x="43" y="4.199999999999999" style="font-family: 'Segoe UI Semibold'; font-size: 12px; fill: rgb(0, 0, 0); fill-opacity: 1; white-space: pre; opacity: 1;" transform="translate(0,79.61)">25000</text></g></g><g class="overaxes-above"/></g></g><g class="polarlayer"/><g class="smithlayer"/><g class="ternarylayer"/><g class="geolayer"/><g class="funnelarealayer"/><g class="pielayer"/><g class="iciclelayer"/><g class="treemaplayer"/><g class="sunburstlayer"/><g class="glimages"/><defs id="topdefs-2498f3"><g class="clips"/><clipPath id="legend2498f3"><rect width="256" height="29" x="0" y="0"/></clipPath></defs><g class="layer-above"><g class="imagelayer"/><g class="shapelayer"/></g><g class="infolayer"><g class="legend" pointer-events="all" transform="translate(54,9.799999999999969)"><rect class="bg" shape-rendering="crispEdges" width="256" height="29" x="0" y="0" style="stroke: rgb(68, 68, 68); stroke-opacity: 1; fill: rgb(0, 0, 0); fill-opacity: 0; stroke-width: 0px;"/><g class="scrollbox" transform="" clip-path="url(#legend2498f3)"><g class="groups"><g class="traces" transform="translate(0,14.5)" style="opacity: 1;"><text class="legendtext" text-anchor="start" x="40" y="4.680000000000001" style="font-family: 'Segoe UI Semibold'; font-size: 12px; fill: rgb(0, 0, 0); fill-opacity: 1; white-space: pre;">"Stirling"</text><g class="layers"><g class="legendfill"><path class="js-fill" d="M5,-2h30v6h-30z" style="stroke-width: 0; fill: rgb(128, 0, 128); fill-opacity: 0.5;"/></g><g class="legendlines"><path class="js-line" d="M5,-2h30" style="fill: none; stroke: rgb(128, 0, 128); stroke-opacity: 1; stroke-width: 5px;"/></g><g class="legendsymbols"><g class="legendpoints"/></g></g><rect class="legendtoggle" x="0" y="-9.5" width="91.609375" height="19" style="fill: rgb(0, 0, 0); fill-opacity: 0;"/></g><g class="traces" transform="translate(94.109375,14.5)" style="opacity: 1;"><text class="legendtext" text-anchor="start" x="40" y="4.680000000000001" style="font-family: 'Segoe UI Semibold'; font-size: 12px; fill: rgb(0, 0, 0); fill-opacity: 1; white-space: pre;">Family Group Median</text><g class="layers" style="opacity: 1;"><g class="legendfill"/><g class="legendlines"><path class="js-line" d="M5,0h30" style="fill: none; stroke: rgb(255, 0, 0); stroke-opacity: 1; stroke-width: 5px;"/></g><g class="legendsymbols"><g class="legendpoints"/></g></g><rect class="legendtoggle" x="0" y="-9.5" width="159.1875" height="19" style="fill: rgb(0, 0, 0); fill-opacity: 0;"/></g></g></g><rect class="scrollbar" rx="20" ry="3" width="0" height="0" x="0" y="0" style="fill: rgb(128, 139, 164); fill-opacity: 1;"/></g><g class="g-gtitle"/><g class="g-xtitle"/><g class="g-ytitle"/></g></svg>