<svg class="main-svg" xmlns="http://www.w3.org/2000/svg" xmlns:xlink="http://www.w3.org/1999/xlink" width="800" height="493" style="" viewBox="0 0 800 493"><rect x="0" y="0" width="800" height="493" style="fill: rgb(255, 255, 255); fill-opacity: 1;"/><defs id="defs-624057"><g class="clips"><clipPath id="clip624057xyplot" class="plotclip"><rect width="706" height="403"/></clipPath><clipPath class="axesclip" id="clip624057x"><rect x="56" y="0" width="706" height="493"/></clipPath><clipPath class="axesclip" id="clip624057y"><rect x="0" y="50" width="800" height="403"/></clipPath><clipPath class="axesclip" id="clip624057xy"><rect x="56" y="50" width="706" height="403"/></clipPath></g><g class="gradients"/><g class="patterns"/></defs><g class="bglayer"><rect class="bg" x="46" y="40" width="726" height="423" style="fill: rgb(0, 0, 0); fill-opacity: 0; stroke-width: 0;"/></g><g class="layer-below"><g class="imagelayer"/><g class="shapelayer"/></g><g class="cartesianlayer"><g class="subplot xy"><g class="layer-subplot"><g class="shapelayer"/><g class="imagelayer"/></g><g class="minor-gridlayer"><g class="x"/><g class="y"/></g><g class="gridlayer"><g class="x"><path class="xgrid crisp" transform="translate(126.6,0)" d="M0,50v403" style="stroke: rgb(255, 255, 255); stroke-opacity: 1; stroke-width: 1px;"/><path class="xgrid crisp" transform="translate(197.2,0)" d="M0,50v403" style="stroke: rgb(255, 255, 255); stroke-opacity: 1; stroke-width: 1px;"/><path class="xgrid crisp" transform="translate(267.8,0)" d="M0,50v403" style="stroke: rgb(255, 255, 255); stroke-opacity: 1; stroke-width: 1px;"/><path class="xgrid crisp" transform="translate(338.4,0)" d="M0,50v403" style="stroke: rgb(255, 255, 255); stroke-opacity: 1; stroke-width: 1px;"/><path class="xgrid crisp" transform="translate(409,0)" d="M0,50v403" style="stroke: rgb(255, 255, 255); stroke-opacity: 1; stroke-width: 1px;"/><path class="xgrid crisp" transform="translate(479.6,0)" d="M0,50v403" style="stroke: rgb(255, 255, 255); stroke-opacity: 1; stroke-width: 1px;"/><path class="xgrid crisp" transform="translate(550.2,0)" d="M0,50v403" style="stroke: rgb(255, 255, 255); stroke-opacity: 1; stroke-width: 1px;"/><path class="xgrid crisp" transform="translate(620.8,0)" d="M0,50v403" style="stroke: rgb(255, 255, 255); stroke-opacity: 1; stroke-width: 1px;"/><path class="xgrid crisp" transform="translate(691.4,0)" d="M0,50v403" style="stroke: rgb(255, 255, 255); stroke-opacity: 1; stroke-width: 1px;"/></g><g class="y"><path class="ygrid crisp" transform="translate(0,401.96)" d="M56,0h706" style="stroke: rgb(237, 237, 237); stroke-opacity: 1; stroke-width: 1px;"/><path class="ygrid crisp" transform="translate(0,350.92)" d="M56,0h706" style="stroke: rgb(237, 237, 237); stroke-opacity: 1; stroke-width: 1px;"/><path class="ygrid crisp" transform="translate(0,299.87)" d="M56,0h706" style="stroke: rgb(237, 237, 237); stroke-opacity: 1; stroke-width: 1px;"/><path class="ygrid crisp" transform="translate(0,248.83)" d="M56,0h706" style="stroke: rgb(237, 237, 237); stroke-opacity: 1; stroke-width: 1px;"/><path class="ygrid crisp" transform="translate(0,197.79)" d="M56,0h706" style="stroke: rgb(237, 237, 237); stroke-opacity: 1; stroke-width: 1px;"/><path class="ygrid crisp" transform="translate(0,146.75)" d="M56,0h706" style="stroke: rgb(237, 237, 237); stroke-opacity: 1; stroke-width: 1px;"/><path class="ygrid crisp" transform="translate(0,95.71000000000001)" d="M56,0h706" style="stroke: rgb(237, 237, 237); stroke-opacity: 1; stroke-width: 1px;"/></g></g><g class="zerolinelayer"><path class="yzl zl crisp" transform="translate(0,453)" d="M56,0h706" style="stroke: rgb(255, 255, 255); stroke-opacity: 1; stroke-width: 2px;"/></g><path class="xlines-below"/><path class="ylines-below"/><g class="overlines-below"/><g class="xaxislayer-below"/><g class="yaxislayer-below"/><g class="overaxes-below"/><g class="plot" transform="translate(56,50)" clip-path="url(#clip624057xyplot)"><g class="scatterlayer mlayer"><g class="trace scatter trace253d91" style="stroke-miterlimit: 2;"><g class="fills"><g><path class="js-fill" d="M706,403L0,403L0,118.26Q54.04,103.91 70.6,100.69C86.99,97.5 124.87,89.44 141.2,90.71C157.82,92 196.48,116.27 211.8,112.2C229.89,107.39 264.8,40.02 282.4,37.29C297.99,34.87 336.35,75.88 353,76.56C369.31,77.22 406.8,49.84 423.6,44.51C439.77,39.37 477.7,33.87 494.2,31.02C510.65,28.18 548.6,18.19 564.8,20.15C581.56,22.17 618.95,42.48 635.4,49.43Q651.9,56.4 706,79.83" style="fill: rgb(93, 35, 129); fill-opacity: 0.5; stroke-width: 0;"/></g></g><g class="errorbars"/><g class="lines"><path class="js-line" d="M0,118.26Q54.04,103.91 70.6,100.69C86.99,97.5 124.87,89.44 141.2,90.71C157.82,92 196.48,116.27 211.8,112.2C229.89,107.39 264.8,40.02 282.4,37.29C297.99,34.87 336.35,75.88 353,76.56C369.31,77.22 406.8,49.84 423.6,44.51C439.77,39.37 477.7,33.87 494.2,31.02C510.65,28.18 548.6,18.19 564.8,20.15C581.56,22.17 618.95,42.48 635.4,49.43Q651.9,56.4 706,79.83" style="vector-effect: none; fill: none; stroke: rgb(93, 35, 129); stroke-opacity: 1; stroke-width: 4px; opacity: 1;"/></g><g class="points"/><g class="text"/></g><g class="trace scatter trace4166d7" style="stroke-miterlimit: 2; opacity: 1;"><g class="fills"/><g class="errorbars"/><g class="lines"><path class="js-line" d="M0,199.3Q54.09,207.41 70.6,208.41C87.04,209.41 124.73,207.47 141.2,207.93C157.68,208.39 195.32,211.99 211.8,212.37C228.27,212.74 266.03,209.4 282.4,211.15C298.98,212.92 336.42,225.31 353,227.68C369.37,230.02 407.14,230.27 423.6,231.46C440.08,232.65 477.94,239.84 494.2,237.85C510.9,235.81 548.1,215.52 564.8,213.37C581.06,211.28 618.92,218.72 635.4,218.86Q651.87,219 706,214.59" style="vector-effect: none; fill: none; stroke: rgb(35, 129, 93); stroke-opacity: 1; stroke-width: 4px; opacity: 1;"/></g><g class="points"/><g class="text"/></g></g></g><g class="overplot"/><path class="xlines-above crisp" d="" style="fill: none; stroke-width: 1px; stroke: rgb(0, 0, 0); stroke-opacity: 0;"/><path class="ylines-above crisp" d="M0,0" style="fill: none;"/><g class="overlines-above"/><g class="xaxislayer-above"><path class="xtick ticks crisp" d="M0,463v-5" transform="translate(126.6,0)" style="stroke: rgb(68, 68, 68); stroke-opacity: 1; stroke-width: 1px;"/><path class="xtick ticks crisp" d="M0,463v-5" transform="translate(197.2,0)" style="stroke: rgb(68, 68, 68); stroke-opacity: 1; stroke-width: 1px;"/><path class="xtick ticks crisp" d="M0,463v-5" transform="translate(267.8,0)" style="stroke: rgb(68, 68, 68); stroke-opacity: 1; stroke-width: 1px;"/><path class="xtick ticks crisp" d="M0,463v-5" transform="translate(338.4,0)" style="stroke: rgb(68, 68, 68); stroke-opacity: 1; stroke-width: 1px;"/><path class="xtick ticks crisp" d="M0,463v-5" transform="translate(409,0)" style="stroke: rgb(68, 68, 68); stroke-opacity: 1; stroke-width: 1px;"/><path class="xtick ticks crisp" d="M0,463v-5" transform="translate(479.6,0)" style="stroke: rgb(68, 68, 68); stroke-opacity: 1; stroke-width: 1px;"/><path class="xtick ticks crisp" d="M0,463v-5" transform="translate(550.2,0)" style="stroke: rgb(68, 68, 68); stroke-opacity: 1; stroke-width: 1px;"/><path class="xtick ticks crisp" d="M0,463v-5" transform="translate(620.8,0)" style="stroke: rgb(68, 68, 68); stroke-opacity: 1; stroke-width: 1px;"/><path class="xtick ticks crisp" d="M0,463v-5" transform="translate(691.4,0)" style="stroke: rgb(68, 68, 68); stroke-opacity: 1; stroke-width: 1px;"/><g class="xtick"><text text-anchor="middle" x="0" y="479" transform="translate(56,0)" style="font-family: 'Segoe UI Semibold'; font-size: 15px; fill: rgb(0, 0, 0); fill-opacity: 1; white-space: pre; opacity: 1;">2012-13</text></g><g class="xtick"><text text-anchor="middle" x="0" y="479" transform="translate(126.6,0)" style="font-family: 'Segoe UI Semibold'; font-size: 15px; fill: rgb(0, 0, 0); fill-opacity: 1; white-space: pre; opacity: 1;">2013-14</text></g><g class="xtick"><text text-anchor="middle" x="0" y="479" transform="translate(197.2,0)" style="font-family: 'Segoe UI Semibold'; font-size: 15px; fill: rgb(0, 0, 0); fill-opacity: 1; white-space: pre; opacity: 1;">2014-15</text></g><g class="xtick"><text text-anchor="middle" x="0" y="479" transform="translate(267.8,0)" style="font-family: 'Segoe UI Semibold'; font-size: 15px; fill: rgb(0, 0, 0); fill-opacity: 1; white-space: pre; opacity: 1;">2015-16</text></g><g class="xtick"><text text-anchor="middle" x="0" y="479" transform="translate(338.4,0)" style="font-family: 'Segoe UI Semibold'; font-size: 15px; fill: rgb(0, 0, 0); fill-opacity: 1; white-space: pre; opacity: 1;">2016-17</text></g><g class="xtick"><text text-anchor="middle" x="0" y="479" transform="translate(409,0)" style="font-family: 'Segoe UI Semibold'; font-size: 15px; fill: rgb(0, 0, 0); fill-opacity: 1; white-space: pre; opacity: 1;">2017-18</text></g><g class="xtick"><text text-anchor="middle" x="0" y="479" transform="translate(479.6,0)" style="font-family: 'Segoe UI Semibold'; font-size: 15px; fill: rgb(0, 0, 0); fill-opacity: 1; white-space: pre; opacity: 1;">2018-19</text></g><g class="xtick"><text text-anchor="middle" x="0" y="479" transform="translate(550.2,0)" style="font-family: 'Segoe UI Semibold'; font-size: 15px; fill: rgb(0, 0, 0); fill-opacity: 1; white-space: pre; opacity: 1;">2019-20</text></g><g class="xtick"><text text-anchor="middle" x="0" y="479" transform="translate(620.8,0)" style="font-family: 'Segoe UI Semibold'; font-size: 15px; fill: rgb(0, 0, 0); fill-opacity: 1; white-space: pre; opacity: 1;">2020-21</text></g><g class="xtick"><text text-anchor="middle" x="0" y="479" transform="translate(691.4,0)" style="font-family: 'Segoe UI Semibold'; font-size: 15px; fill: rgb(0, 0, 0); fill-opacity: 1; white-space: pre; opacity: 1;">2021-22</text></g><g class="xtick"><text text-anchor="middle" x="0" y="479" transform="translate(762,0)" style="font-family: 'Segoe UI Semibold'; font-size: 15px; fill: rgb(0, 0, 0); fill-opacity: 1; white-space: pre; opacity: 1;">2022-23</text></g></g><g class="yaxislayer-above"><g class="ytick"><text text-anchor="end" x="45" y="5.25" transform="translate(0,453)" style="font-family: 'Segoe UI Semibold'; font-size: 15px; fill: rgb(0, 0, 0); fill-opacity: 1; white-space: pre; opacity: 1;">£ 0</text></g><g class="ytick"><text text-anchor="end" x="45" y="5.25" style="font-family: 'Segoe UI Semibold'; font-size: 15px; fill: rgb(0, 0, 0); fill-opacity: 1; white-space: pre; opacity: 1;" transform="translate(0,401.96)">£ 20</text></g><g class="ytick"><text text-anchor="end" x="45" y="5.25" style="font-family: 'Segoe UI Semibold'; font-size: 15px; fill: rgb(0, 0, 0); fill-opacity: 1; white-space: pre; opacity: 1;" transform="translate(0,350.92)">£ 40</text></g><g class="ytick"><text text-anchor="end" x="45" y="5.25" style="font-family: 'Segoe UI Semibold'; font-size: 15px; fill: rgb(0, 0, 0); fill-opacity: 1; white-space: pre; opacity: 1;" transform="translate(0,299.87)">£ 60</text></g><g class="ytick"><text text-anchor="end" x="45" y="5.25" style="font-family: 'Segoe UI Semibold'; font-size: 15px; fill: rgb(0, 0, 0); fill-opacity: 1; white-space: pre; opacity: 1;" transform="translate(0,248.83)">£ 80</text></g><g class="ytick"><text text-anchor="end" x="45" y="5.25" style="font-family: 'Segoe UI Semibold'; font-size: 15px; fill: rgb(0, 0, 0); fill-opacity: 1; white-space: pre; opacity: 1;" transform="translate(0,197.79)">£ 100</text></g><g class="ytick"><text text-anchor="end" x="45" y="5.25" style="font-family: 'Segoe UI Semibold'; font-size: 15px; fill: rgb(0, 0, 0); fill-opacity: 1; white-space: pre; opacity: 1;" transform="translate(0,146.75)">£ 120</text></g><g class="ytick"><text text-anchor="end" x="45" y="5.25" style="font-family: 'Segoe UI Semibold'; font-size: 15px; fill: rgb(0, 0, 0); fill-opacity: 1; white-space: pre; opacity: 1;" transform="translate(0,95.71000000000001)">£ 140</text></g></g><g class="overaxes-above"/></g></g><g class="polarlayer"/><g class="smithlayer"/><g class="ternarylayer"/><g class="geolayer"/><g class="funnelarealayer"/><g class="pielayer"/><g class="iciclelayer"/><g class="treemaplayer"/><g class="sunburstlayer"/><g class="glimages"/><defs id="topdefs-624057"><g class="clips"/><clipPath id="legend624057"><rect width="285" height="33" x="0" y="0"/></clipPath></defs><g class="layer-above"><g class="imagelayer"/><g class="shapelayer"/></g><g class="infolayer"><g class="legend" pointer-events="all" transform="translate(56,9.699999999999967)"><rect class="bg" shape-rendering="crispEdges" width="285" height="33" x="0" y="0" style="stroke: rgb(68, 68, 68); stroke-opacity: 1; fill: rgb(0, 0, 0); fill-opacity: 0; stroke-width: 0px;"/><g class="scrollbox" transform="" clip-path="url(#legend624057)"><g class="groups"><g class="traces" transform="translate(0,16.25)" style="opacity: 1;"><text class="legendtext" text-anchor="start" x="40" y="5.85" style="font-family: 'Segoe UI Semibold'; font-size: 15px; fill: rgb(0, 0, 0); fill-opacity: 1; white-space: pre;">Stirling</text><g class="layers"><g class="legendfill"><path class="js-fill" d="M5,-2h30v6h-30z" style="stroke-width: 0; fill: rgb(93, 35, 129); fill-opacity: 0.5;"/></g><g class="legendlines"><path class="js-line" d="M5,-2h30" style="fill: none; stroke: rgb(93, 35, 129); stroke-opacity: 1; stroke-width: 5px;"/></g><g class="legendsymbols"><g class="legendpoints"/></g></g><rect class="legendtoggle" x="0" y="-11.25" width="90.765625" height="22.5" style="fill: rgb(0, 0, 0); fill-opacity: 0;"/></g><g class="traces" transform="translate(93.265625,16.25)" style="opacity: 1;"><text class="legendtext" text-anchor="start" x="40" y="5.85" style="font-family: 'Segoe UI Semibold'; font-size: 15px; fill: rgb(0, 0, 0); fill-opacity: 1; white-space: pre;">Family Group Median</text><g class="layers" style="opacity: 1;"><g class="legendfill"/><g class="legendlines"><path class="js-line" d="M5,0h30" style="fill: none; stroke: rgb(35, 129, 93); stroke-opacity: 1; stroke-width: 5px;"/></g><g class="legendsymbols"><g class="legendpoints"/></g></g><rect class="legendtoggle" x="0" y="-11.25" width="188.609375" height="22.5" style="fill: rgb(0, 0, 0); fill-opacity: 0;"/></g></g></g><rect class="scrollbar" rx="20" ry="3" width="0" height="0" x="0" y="0" style="fill: rgb(128, 139, 164); fill-opacity: 1;"/></g><g class="g-gtitle"/><g class="g-xtitle"/><g class="g-ytitle"/></g></svg>