<svg class="main-svg" xmlns="http://www.w3.org/2000/svg" xmlns:xlink="http://www.w3.org/1999/xlink" width="16535.4330708" height="9448.8188976" style="" viewBox="0 0 700 400"><rect x="0" y="0" width="700" height="400" style="fill: rgb(255, 255, 255); fill-opacity: 1;"/><defs id="defs-fad667"><g class="clips"><clipPath id="clipfad667xyplot" class="plotclip"><rect width="680" height="354"/></clipPath><clipPath class="axesclip" id="clipfad667x"><rect x="10" y="0" width="680" height="400"/></clipPath><clipPath class="axesclip" id="clipfad667y"><rect x="0" y="10" width="700" height="354"/></clipPath><clipPath class="axesclip" id="clipfad667xy"><rect x="10" y="10" width="680" height="354"/></clipPath></g><g class="gradients"/><g class="patterns"/></defs><g class="bglayer"><rect class="bg" x="0" y="0" width="700" height="374" style="fill: rgb(0, 0, 0); fill-opacity: 0; stroke-width: 0;"/></g><g class="layer-below"><g class="imagelayer"/><g class="shapelayer"/></g><g class="cartesianlayer"><g class="subplot xy"><g class="layer-subplot"><g class="shapelayer"/><g class="imagelayer"/></g><g class="gridlayer"><g class="x"><path class="xgrid crisp" transform="translate(59.63,0)" d="M0,10v354" style="stroke: rgb(255, 255, 255); stroke-opacity: 1; stroke-width: 1px;"/><path class="xgrid crisp" transform="translate(132.22,0)" d="M0,10v354" style="stroke: rgb(255, 255, 255); stroke-opacity: 1; stroke-width: 1px;"/><path class="xgrid crisp" transform="translate(204.81,0)" d="M0,10v354" style="stroke: rgb(255, 255, 255); stroke-opacity: 1; stroke-width: 1px;"/><path class="xgrid crisp" transform="translate(277.41,0)" d="M0,10v354" style="stroke: rgb(255, 255, 255); stroke-opacity: 1; stroke-width: 1px;"/><path class="xgrid crisp" transform="translate(350,0)" d="M0,10v354" style="stroke: rgb(255, 255, 255); stroke-opacity: 1; stroke-width: 1px;"/><path class="xgrid crisp" transform="translate(422.59,0)" d="M0,10v354" style="stroke: rgb(255, 255, 255); stroke-opacity: 1; stroke-width: 1px;"/><path class="xgrid crisp" transform="translate(495.19,0)" d="M0,10v354" style="stroke: rgb(255, 255, 255); stroke-opacity: 1; stroke-width: 1px;"/><path class="xgrid crisp" transform="translate(567.78,0)" d="M0,10v354" style="stroke: rgb(255, 255, 255); stroke-opacity: 1; stroke-width: 1px;"/><path class="xgrid crisp" transform="translate(640.38,0)" d="M0,10v354" style="stroke: rgb(255, 255, 255); stroke-opacity: 1; stroke-width: 1px;"/></g><g class="y"/></g><g class="zerolinelayer"/><path class="xlines-below"/><path class="ylines-below"/><g class="overlines-below"/><g class="xaxislayer-below"/><g class="yaxislayer-below"/><g class="overaxes-below"/><g class="plot" transform="translate(10,10)"><g class="scatterlayer mlayer"><g class="trace scatter trace13cce8" style="stroke-miterlimit: 2; opacity: 1;"><g class="fills" clip-path="url(#clipfad667xyplot)"/><g class="errorbars"/><g class="lines"><path class="js-line" d="M49.63,202.29Q107.59,211.51 122.22,202.29C144.5,188.25 177.87,50.57 194.81,50.57C211.75,50.57 246.75,196.84 267.41,202.29C282.39,206.24 322.14,157.32 340,151.71C356.18,146.63 395.65,151.71 412.59,151.71C429.53,151.71 469.01,146.63 485.19,151.71C503.05,157.32 542.8,184.66 557.78,202.29Q578.44,226.6 630.38,354" clip-path="url(#clipfad667xyplot)" style="vector-effect: non-scaling-stroke; fill: none; stroke: rgb(211, 211, 211); stroke-opacity: 1; stroke-width: 10px; opacity: 1;"/></g><g class="points"><path class="point" transform="translate(49.63,202.29)" d="M12.5,0A12.5,12.5 0 1,1 0,-12.5A12.5,12.5 0 0,1 12.5,0Z" style="opacity: 1; stroke-width: 0px; fill: rgb(128, 0, 128); fill-opacity: 1;"/><path class="point" transform="translate(122.22,202.29)" d="M12.5,0A12.5,12.5 0 1,1 0,-12.5A12.5,12.5 0 0,1 12.5,0Z" style="opacity: 1; stroke-width: 0px; fill: rgb(128, 0, 128); fill-opacity: 1;"/><path class="point" transform="translate(194.81,50.57)" d="M12.5,0A12.5,12.5 0 1,1 0,-12.5A12.5,12.5 0 0,1 12.5,0Z" style="opacity: 1; stroke-width: 0px; fill: rgb(128, 0, 128); fill-opacity: 1;"/><path class="point" transform="translate(267.41,202.29)" d="M12.5,0A12.5,12.5 0 1,1 0,-12.5A12.5,12.5 0 0,1 12.5,0Z" style="opacity: 1; stroke-width: 0px; fill: rgb(128, 0, 128); fill-opacity: 1;"/><path class="point" transform="translate(340,151.71)" d="M12.5,0A12.5,12.5 0 1,1 0,-12.5A12.5,12.5 0 0,1 12.5,0Z" style="opacity: 1; stroke-width: 0px; fill: rgb(128, 0, 128); fill-opacity: 1;"/><path class="point" transform="translate(412.59,151.71)" d="M12.5,0A12.5,12.5 0 1,1 0,-12.5A12.5,12.5 0 0,1 12.5,0Z" style="opacity: 1; stroke-width: 0px; fill: rgb(128, 0, 128); fill-opacity: 1;"/><path class="point" transform="translate(485.19,151.71)" d="M12.5,0A12.5,12.5 0 1,1 0,-12.5A12.5,12.5 0 0,1 12.5,0Z" style="opacity: 1; stroke-width: 0px; fill: rgb(128, 0, 128); fill-opacity: 1;"/><path class="point" transform="translate(557.78,202.29)" d="M12.5,0A12.5,12.5 0 1,1 0,-12.5A12.5,12.5 0 0,1 12.5,0Z" style="opacity: 1; stroke-width: 0px; fill: rgb(128, 0, 128); fill-opacity: 1;"/><path class="point" transform="translate(630.38,354)" d="M12.5,0A12.5,12.5 0 1,1 0,-12.5A12.5,12.5 0 0,1 12.5,0Z" style="opacity: 1; stroke-width: 0px; fill: rgb(128, 0, 128); fill-opacity: 1;"/></g><g class="text"><g class="textpoint" transform="translate(0,3)"><text x="49.63" y="202.29" text-anchor="middle" style="font-family: 'Segoe UI Semibold'; font-size: 12px; fill: rgb(255, 255, 255); fill-opacity: 1; white-space: pre;">#5</text></g><g class="textpoint" transform="translate(0,3)"><text x="122.22" y="202.29" text-anchor="middle" style="font-family: 'Segoe UI Semibold'; font-size: 12px; fill: rgb(255, 255, 255); fill-opacity: 1; white-space: pre;">#5</text></g><g class="textpoint" transform="translate(0,3)"><text x="194.81" y="50.57" text-anchor="middle" style="font-family: 'Segoe UI Semibold'; font-size: 12px; fill: rgb(255, 255, 255); fill-opacity: 1; white-space: pre;">#2</text></g><g class="textpoint" transform="translate(0,3)"><text x="267.41" y="202.29" text-anchor="middle" style="font-family: 'Segoe UI Semibold'; font-size: 12px; fill: rgb(255, 255, 255); fill-opacity: 1; white-space: pre;">#5</text></g><g class="textpoint" transform="translate(0,3)"><text x="340" y="151.71" text-anchor="middle" style="font-family: 'Segoe UI Semibold'; font-size: 12px; fill: rgb(255, 255, 255); fill-opacity: 1; white-space: pre;">#4</text></g><g class="textpoint" transform="translate(0,3)"><text x="412.59" y="151.71" text-anchor="middle" style="font-family: 'Segoe UI Semibold'; font-size: 12px; fill: rgb(255, 255, 255); fill-opacity: 1; white-space: pre;">#4</text></g><g class="textpoint" transform="translate(0,3)"><text x="485.19" y="151.71" text-anchor="middle" style="font-family: 'Segoe UI Semibold'; font-size: 12px; fill: rgb(255, 255, 255); fill-opacity: 1; white-space: pre;">#4</text></g><g class="textpoint" transform="translate(0,3)"><text x="557.78" y="202.29" text-anchor="middle" style="font-family: 'Segoe UI Semibold'; font-size: 12px; fill: rgb(255, 255, 255); fill-opacity: 1; white-space: pre;">#5</text></g><g class="textpoint" transform="translate(0,3)"><text x="630.38" y="354" text-anchor="middle" style="font-family: 'Segoe UI Semibold'; font-size: 12px; fill: rgb(255, 255, 255); fill-opacity: 1; white-space: pre;">#8</text></g></g></g></g></g><g class="overplot"/><path class="xlines-above crisp" d="M0,0" style="fill: none;"/><path class="ylines-above crisp" d="M0,0" style="fill: none;"/><g class="overlines-above"/><g class="xaxislayer-above"><g class="xtick"><text text-anchor="middle" x="0" y="387" transform="translate(59.63,0)" style="font-family: 'Segoe UI Semibold'; font-size: 12px; fill: rgb(0, 0, 0); fill-opacity: 1; white-space: pre; opacity: 1;">2012-13</text></g><g class="xtick"><text text-anchor="middle" x="0" y="387" transform="translate(132.22,0)" style="font-family: 'Segoe UI Semibold'; font-size: 12px; fill: rgb(0, 0, 0); fill-opacity: 1; white-space: pre; opacity: 1;">2013-14</text></g><g class="xtick"><text text-anchor="middle" x="0" y="387" transform="translate(204.81,0)" style="font-family: 'Segoe UI Semibold'; font-size: 12px; fill: rgb(0, 0, 0); fill-opacity: 1; white-space: pre; opacity: 1;">2014-15</text></g><g class="xtick"><text text-anchor="middle" x="0" y="387" transform="translate(277.41,0)" style="font-family: 'Segoe UI Semibold'; font-size: 12px; fill: rgb(0, 0, 0); fill-opacity: 1; white-space: pre; opacity: 1;">2015-16</text></g><g class="xtick"><text text-anchor="middle" x="0" y="387" transform="translate(350,0)" style="font-family: 'Segoe UI Semibold'; font-size: 12px; fill: rgb(0, 0, 0); fill-opacity: 1; white-space: pre; opacity: 1;">2016-17</text></g><g class="xtick"><text text-anchor="middle" x="0" y="387" transform="translate(422.59,0)" style="font-family: 'Segoe UI Semibold'; font-size: 12px; fill: rgb(0, 0, 0); fill-opacity: 1; white-space: pre; opacity: 1;">2017-18</text></g><g class="xtick"><text text-anchor="middle" x="0" y="387" transform="translate(495.19,0)" style="font-family: 'Segoe UI Semibold'; font-size: 12px; fill: rgb(0, 0, 0); fill-opacity: 1; white-space: pre; opacity: 1;">2018-19</text></g><g class="xtick"><text text-anchor="middle" x="0" y="387" transform="translate(567.78,0)" style="font-family: 'Segoe UI Semibold'; font-size: 12px; fill: rgb(0, 0, 0); fill-opacity: 1; white-space: pre; opacity: 1;">2019-20</text></g><g class="xtick"><text text-anchor="middle" x="0" y="387" transform="translate(640.38,0)" style="font-family: 'Segoe UI Semibold'; font-size: 12px; fill: rgb(0, 0, 0); fill-opacity: 1; white-space: pre; opacity: 1;">2020-21</text></g></g><g class="yaxislayer-above"/><g class="overaxes-above"/></g></g><g class="polarlayer"/><g class="smithlayer"/><g class="ternarylayer"/><g class="geolayer"/><g class="funnelarealayer"/><g class="pielayer"/><g class="iciclelayer"/><g class="treemaplayer"/><g class="sunburstlayer"/><g class="glimages"/><defs id="topdefs-fad667"><g class="clips"/></defs><g class="layer-above"><g class="imagelayer"/><g class="shapelayer"/></g><g class="infolayer"><g class="g-gtitle"/><g class="g-xtitle"/></g></svg>