<svg class="main-svg" xmlns="http://www.w3.org/2000/svg" xmlns:xlink="http://www.w3.org/1999/xlink" width="16535.4330708" height="9448.8188976" style="" viewBox="0 0 700 400"><rect x="0" y="0" width="700" height="400" style="fill: rgb(255, 255, 255); fill-opacity: 1;"/><defs id="defs-7ad751"><g class="clips"><clipPath id="clip7ad751xyplot" class="plotclip"><rect width="680" height="354"/></clipPath><clipPath class="axesclip" id="clip7ad751x"><rect x="10" y="0" width="680" height="400"/></clipPath><clipPath class="axesclip" id="clip7ad751y"><rect x="0" y="10" width="700" height="354"/></clipPath><clipPath class="axesclip" id="clip7ad751xy"><rect x="10" y="10" width="680" height="354"/></clipPath></g><g class="gradients"/><g class="patterns"/></defs><g class="bglayer"><rect class="bg" x="0" y="0" width="700" height="374" style="fill: rgb(0, 0, 0); fill-opacity: 0; stroke-width: 0;"/></g><g class="layer-below"><g class="imagelayer"/><g class="shapelayer"/></g><g class="cartesianlayer"><g class="subplot xy"><g class="layer-subplot"><g class="shapelayer"/><g class="imagelayer"/></g><g class="gridlayer"><g class="x"><path class="xgrid crisp" transform="translate(59.63,0)" d="M0,10v354" style="stroke: rgb(255, 255, 255); stroke-opacity: 1; stroke-width: 1px;"/><path class="xgrid crisp" transform="translate(117.7,0)" d="M0,10v354" style="stroke: rgb(255, 255, 255); stroke-opacity: 1; stroke-width: 1px;"/><path class="xgrid crisp" transform="translate(175.78,0)" d="M0,10v354" style="stroke: rgb(255, 255, 255); stroke-opacity: 1; stroke-width: 1px;"/><path class="xgrid crisp" transform="translate(233.85,0)" d="M0,10v354" style="stroke: rgb(255, 255, 255); stroke-opacity: 1; stroke-width: 1px;"/><path class="xgrid crisp" transform="translate(291.93,0)" d="M0,10v354" style="stroke: rgb(255, 255, 255); stroke-opacity: 1; stroke-width: 1px;"/><path class="xgrid crisp" transform="translate(350,0)" d="M0,10v354" style="stroke: rgb(255, 255, 255); stroke-opacity: 1; stroke-width: 1px;"/><path class="xgrid crisp" transform="translate(408.08,0)" d="M0,10v354" style="stroke: rgb(255, 255, 255); stroke-opacity: 1; stroke-width: 1px;"/><path class="xgrid crisp" transform="translate(466.15,0)" d="M0,10v354" style="stroke: rgb(255, 255, 255); stroke-opacity: 1; stroke-width: 1px;"/><path class="xgrid crisp" transform="translate(524.23,0)" d="M0,10v354" style="stroke: rgb(255, 255, 255); stroke-opacity: 1; stroke-width: 1px;"/><path class="xgrid crisp" transform="translate(582.3,0)" d="M0,10v354" style="stroke: rgb(255, 255, 255); stroke-opacity: 1; stroke-width: 1px;"/><path class="xgrid crisp" transform="translate(640.38,0)" d="M0,10v354" style="stroke: rgb(255, 255, 255); stroke-opacity: 1; stroke-width: 1px;"/></g><g class="y"/></g><g class="zerolinelayer"/><path class="xlines-below"/><path class="ylines-below"/><g class="overlines-below"/><g class="xaxislayer-below"/><g class="yaxislayer-below"/><g class="overaxes-below"/><g class="plot" transform="translate(10,10)"><g class="scatterlayer mlayer"><g class="trace scatter tracef4ab89" style="stroke-miterlimit: 2; opacity: 1;"><g class="fills" clip-path="url(#clip7ad751xyplot)"/><g class="errorbars"/><g class="lines"><path class="js-line" d="M49.63,202.29Q94.15,202.29 107.7,202.29C121.25,202.29 152.23,202.29 165.78,202.29C179.33,202.29 210.3,202.29 223.85,202.29C237.4,202.29 269.21,197.53 281.93,202.29C296.58,207.77 326.45,241.06 340,252.86C353.55,264.66 383.43,297.95 398.08,303.43C410.8,308.19 444.25,310.32 456.15,303.43C473.01,293.67 498.95,204.86 514.23,202.29C526.64,200.2 558.75,241.06 572.3,252.86Q585.85,264.66 630.38,303.43" clip-path="url(#clip7ad751xyplot)" style="vector-effect: non-scaling-stroke; fill: none; stroke: rgb(211, 211, 211); stroke-opacity: 1; stroke-width: 10px; opacity: 1;"/></g><g class="points"><path class="point" transform="translate(49.63,202.29)" d="M12.5,0A12.5,12.5 0 1,1 0,-12.5A12.5,12.5 0 0,1 12.5,0Z" style="opacity: 1; stroke-width: 0px; fill: rgb(128, 0, 128); fill-opacity: 1;"/><path class="point" transform="translate(107.7,202.29)" d="M12.5,0A12.5,12.5 0 1,1 0,-12.5A12.5,12.5 0 0,1 12.5,0Z" style="opacity: 1; stroke-width: 0px; fill: rgb(128, 0, 128); fill-opacity: 1;"/><path class="point" transform="translate(165.78,202.29)" d="M12.5,0A12.5,12.5 0 1,1 0,-12.5A12.5,12.5 0 0,1 12.5,0Z" style="opacity: 1; stroke-width: 0px; fill: rgb(128, 0, 128); fill-opacity: 1;"/><path class="point" transform="translate(223.85,202.29)" d="M12.5,0A12.5,12.5 0 1,1 0,-12.5A12.5,12.5 0 0,1 12.5,0Z" style="opacity: 1; stroke-width: 0px; fill: rgb(128, 0, 128); fill-opacity: 1;"/><path class="point" transform="translate(281.93,202.29)" d="M12.5,0A12.5,12.5 0 1,1 0,-12.5A12.5,12.5 0 0,1 12.5,0Z" style="opacity: 1; stroke-width: 0px; fill: rgb(128, 0, 128); fill-opacity: 1;"/><path class="point" transform="translate(340,252.86)" d="M12.5,0A12.5,12.5 0 1,1 0,-12.5A12.5,12.5 0 0,1 12.5,0Z" style="opacity: 1; stroke-width: 0px; fill: rgb(128, 0, 128); fill-opacity: 1;"/><path class="point" transform="translate(398.08,303.43)" d="M12.5,0A12.5,12.5 0 1,1 0,-12.5A12.5,12.5 0 0,1 12.5,0Z" style="opacity: 1; stroke-width: 0px; fill: rgb(128, 0, 128); fill-opacity: 1;"/><path class="point" transform="translate(456.15,303.43)" d="M12.5,0A12.5,12.5 0 1,1 0,-12.5A12.5,12.5 0 0,1 12.5,0Z" style="opacity: 1; stroke-width: 0px; fill: rgb(128, 0, 128); fill-opacity: 1;"/><path class="point" transform="translate(514.23,202.29)" d="M12.5,0A12.5,12.5 0 1,1 0,-12.5A12.5,12.5 0 0,1 12.5,0Z" style="opacity: 1; stroke-width: 0px; fill: rgb(128, 0, 128); fill-opacity: 1;"/><path class="point" transform="translate(572.3,252.86)" d="M12.5,0A12.5,12.5 0 1,1 0,-12.5A12.5,12.5 0 0,1 12.5,0Z" style="opacity: 1; stroke-width: 0px; fill: rgb(128, 0, 128); fill-opacity: 1;"/><path class="point" transform="translate(630.38,303.43)" d="M12.5,0A12.5,12.5 0 1,1 0,-12.5A12.5,12.5 0 0,1 12.5,0Z" style="opacity: 1; stroke-width: 0px; fill: rgb(128, 0, 128); fill-opacity: 1;"/></g><g class="text"><g class="textpoint" transform="translate(0,3)"><text x="49.63" y="202.29" text-anchor="middle" style="font-family: 'Segoe UI Semibold'; font-size: 12px; fill: rgb(255, 255, 255); fill-opacity: 1; white-space: pre;">#5</text></g><g class="textpoint" transform="translate(0,3)"><text x="107.7" y="202.29" text-anchor="middle" style="font-family: 'Segoe UI Semibold'; font-size: 12px; fill: rgb(255, 255, 255); fill-opacity: 1; white-space: pre;">#5</text></g><g class="textpoint" transform="translate(0,3)"><text x="165.78" y="202.29" text-anchor="middle" style="font-family: 'Segoe UI Semibold'; font-size: 12px; fill: rgb(255, 255, 255); fill-opacity: 1; white-space: pre;">#5</text></g><g class="textpoint" transform="translate(0,3)"><text x="223.85" y="202.29" text-anchor="middle" style="font-family: 'Segoe UI Semibold'; font-size: 12px; fill: rgb(255, 255, 255); fill-opacity: 1; white-space: pre;">#5</text></g><g class="textpoint" transform="translate(0,3)"><text x="281.93" y="202.29" text-anchor="middle" style="font-family: 'Segoe UI Semibold'; font-size: 12px; fill: rgb(255, 255, 255); fill-opacity: 1; white-space: pre;">#5</text></g><g class="textpoint" transform="translate(0,3)"><text x="340" y="252.86" text-anchor="middle" style="font-family: 'Segoe UI Semibold'; font-size: 12px; fill: rgb(255, 255, 255); fill-opacity: 1; white-space: pre;">#6</text></g><g class="textpoint" transform="translate(0,3)"><text x="398.08" y="303.43" text-anchor="middle" style="font-family: 'Segoe UI Semibold'; font-size: 12px; fill: rgb(255, 255, 255); fill-opacity: 1; white-space: pre;">#7</text></g><g class="textpoint" transform="translate(0,3)"><text x="456.15" y="303.43" text-anchor="middle" style="font-family: 'Segoe UI Semibold'; font-size: 12px; fill: rgb(255, 255, 255); fill-opacity: 1; white-space: pre;">#7</text></g><g class="textpoint" transform="translate(0,3)"><text x="514.23" y="202.29" text-anchor="middle" style="font-family: 'Segoe UI Semibold'; font-size: 12px; fill: rgb(255, 255, 255); fill-opacity: 1; white-space: pre;">#5</text></g><g class="textpoint" transform="translate(0,3)"><text x="572.3" y="252.86" text-anchor="middle" style="font-family: 'Segoe UI Semibold'; font-size: 12px; fill: rgb(255, 255, 255); fill-opacity: 1; white-space: pre;">#6</text></g><g class="textpoint" transform="translate(0,3)"><text x="630.38" y="303.43" text-anchor="middle" style="font-family: 'Segoe UI Semibold'; font-size: 12px; fill: rgb(255, 255, 255); fill-opacity: 1; white-space: pre;">#7</text></g></g></g></g></g><g class="overplot"/><path class="xlines-above crisp" d="M0,0" style="fill: none;"/><path class="ylines-above crisp" d="M0,0" style="fill: none;"/><g class="overlines-above"/><g class="xaxislayer-above"><g class="xtick"><text text-anchor="middle" x="0" y="387" transform="translate(59.63,0)" style="font-family: 'Segoe UI Semibold'; font-size: 12px; fill: rgb(0, 0, 0); fill-opacity: 1; white-space: pre; opacity: 1;">2009-11</text></g><g class="xtick"><text text-anchor="middle" x="0" y="387" transform="translate(117.7,0)" style="font-family: 'Segoe UI Semibold'; font-size: 12px; fill: rgb(0, 0, 0); fill-opacity: 1; white-space: pre; opacity: 1;">2010-12</text></g><g class="xtick"><text text-anchor="middle" x="0" y="387" transform="translate(175.78,0)" style="font-family: 'Segoe UI Semibold'; font-size: 12px; fill: rgb(0, 0, 0); fill-opacity: 1; white-space: pre; opacity: 1;">2011-13</text></g><g class="xtick"><text text-anchor="middle" x="0" y="387" transform="translate(233.85,0)" style="font-family: 'Segoe UI Semibold'; font-size: 12px; fill: rgb(0, 0, 0); fill-opacity: 1; white-space: pre; opacity: 1;">2012-14</text></g><g class="xtick"><text text-anchor="middle" x="0" y="387" transform="translate(291.93,0)" style="font-family: 'Segoe UI Semibold'; font-size: 12px; fill: rgb(0, 0, 0); fill-opacity: 1; white-space: pre; opacity: 1;">2013-15</text></g><g class="xtick"><text text-anchor="middle" x="0" y="387" transform="translate(350,0)" style="font-family: 'Segoe UI Semibold'; font-size: 12px; fill: rgb(0, 0, 0); fill-opacity: 1; white-space: pre; opacity: 1;">2014-16</text></g><g class="xtick"><text text-anchor="middle" x="0" y="387" transform="translate(408.08,0)" style="font-family: 'Segoe UI Semibold'; font-size: 12px; fill: rgb(0, 0, 0); fill-opacity: 1; white-space: pre; opacity: 1;">2015-17</text></g><g class="xtick"><text text-anchor="middle" x="0" y="387" transform="translate(466.15,0)" style="font-family: 'Segoe UI Semibold'; font-size: 12px; fill: rgb(0, 0, 0); fill-opacity: 1; white-space: pre; opacity: 1;">2016-18</text></g><g class="xtick"><text text-anchor="middle" x="0" y="387" transform="translate(524.23,0)" style="font-family: 'Segoe UI Semibold'; font-size: 12px; fill: rgb(0, 0, 0); fill-opacity: 1; white-space: pre; opacity: 1;">2017-19</text></g><g class="xtick"><text text-anchor="middle" x="0" y="387" transform="translate(582.3,0)" style="font-family: 'Segoe UI Semibold'; font-size: 12px; fill: rgb(0, 0, 0); fill-opacity: 1; white-space: pre; opacity: 1;">2018-20</text></g><g class="xtick"><text text-anchor="middle" x="0" y="387" transform="translate(640.38,0)" style="font-family: 'Segoe UI Semibold'; font-size: 12px; fill: rgb(0, 0, 0); fill-opacity: 1; white-space: pre; opacity: 1;">2019-21</text></g></g><g class="yaxislayer-above"/><g class="overaxes-above"/></g></g><g class="polarlayer"/><g class="smithlayer"/><g class="ternarylayer"/><g class="geolayer"/><g class="funnelarealayer"/><g class="pielayer"/><g class="iciclelayer"/><g class="treemaplayer"/><g class="sunburstlayer"/><g class="glimages"/><defs id="topdefs-7ad751"><g class="clips"/></defs><g class="layer-above"><g class="imagelayer"/><g class="shapelayer"/></g><g class="infolayer"><g class="g-gtitle"/><g class="g-xtitle"/></g></svg>