<svg class="main-svg" xmlns="http://www.w3.org/2000/svg" xmlns:xlink="http://www.w3.org/1999/xlink" width="812" height="305" style="" viewBox="0 0 812 305"><rect x="0" y="0" width="812" height="305" style="fill: rgb(255, 255, 255); fill-opacity: 1;"/><defs id="defs-ac6ebc"><g class="clips"><clipPath id="clipac6ebcxyplot" class="plotclip"><rect width="718" height="232"/></clipPath><clipPath class="axesclip" id="clipac6ebcx"><rect x="56" y="0" width="718" height="305"/></clipPath><clipPath class="axesclip" id="clipac6ebcy"><rect x="0" y="33" width="812" height="232"/></clipPath><clipPath class="axesclip" id="clipac6ebcxy"><rect x="56" y="33" width="718" height="232"/></clipPath></g><g class="gradients"/><g class="patterns"/></defs><g class="bglayer"><rect class="bg" x="46" y="23" width="738" height="252" style="fill: rgb(0, 0, 0); fill-opacity: 0; stroke-width: 0;"/></g><g class="layer-below"><g class="imagelayer"/><g class="shapelayer"/></g><g class="cartesianlayer"><g class="subplot xy"><g class="layer-subplot"><g class="shapelayer"/><g class="imagelayer"/></g><g class="minor-gridlayer"><g class="x"/><g class="y"/></g><g class="gridlayer"><g class="x"><path class="xgrid crisp" transform="translate(127.8,0)" d="M0,33v232" style="stroke: rgb(255, 255, 255); stroke-opacity: 1; stroke-width: 1px;"/><path class="xgrid crisp" transform="translate(199.6,0)" d="M0,33v232" style="stroke: rgb(255, 255, 255); stroke-opacity: 1; stroke-width: 1px;"/><path class="xgrid crisp" transform="translate(271.4,0)" d="M0,33v232" style="stroke: rgb(255, 255, 255); stroke-opacity: 1; stroke-width: 1px;"/><path class="xgrid crisp" transform="translate(343.2,0)" d="M0,33v232" style="stroke: rgb(255, 255, 255); stroke-opacity: 1; stroke-width: 1px;"/><path class="xgrid crisp" transform="translate(415,0)" d="M0,33v232" style="stroke: rgb(255, 255, 255); stroke-opacity: 1; stroke-width: 1px;"/><path class="xgrid crisp" transform="translate(486.8,0)" d="M0,33v232" style="stroke: rgb(255, 255, 255); stroke-opacity: 1; stroke-width: 1px;"/><path class="xgrid crisp" transform="translate(558.6,0)" d="M0,33v232" style="stroke: rgb(255, 255, 255); stroke-opacity: 1; stroke-width: 1px;"/><path class="xgrid crisp" transform="translate(630.4,0)" d="M0,33v232" style="stroke: rgb(255, 255, 255); stroke-opacity: 1; stroke-width: 1px;"/><path class="xgrid crisp" transform="translate(702.2,0)" d="M0,33v232" style="stroke: rgb(255, 255, 255); stroke-opacity: 1; stroke-width: 1px;"/></g><g class="y"><path class="ygrid crisp" transform="translate(0,213.44)" d="M56,0h718" style="stroke: rgb(237, 237, 237); stroke-opacity: 1; stroke-width: 1px;"/><path class="ygrid crisp" transform="translate(0,161.89)" d="M56,0h718" style="stroke: rgb(237, 237, 237); stroke-opacity: 1; stroke-width: 1px;"/><path class="ygrid crisp" transform="translate(0,110.33)" d="M56,0h718" style="stroke: rgb(237, 237, 237); stroke-opacity: 1; stroke-width: 1px;"/><path class="ygrid crisp" transform="translate(0,58.78)" d="M56,0h718" style="stroke: rgb(237, 237, 237); stroke-opacity: 1; stroke-width: 1px;"/></g></g><g class="zerolinelayer"/><path class="xlines-below"/><path class="ylines-below"/><g class="overlines-below"/><g class="xaxislayer-below"/><g class="yaxislayer-below"/><g class="overaxes-below"/><g class="plot" transform="translate(56,33)" clip-path="url(#clipac6ebcxyplot)"><g class="scatterlayer mlayer"><g class="trace scatter trace99dbe6" style="stroke-miterlimit: 2;"><g class="fills"><g><path class="js-fill" d="M718,592.89L0,592.89L0,52.73Q56.35,72.69 71.8,84.57C90.46,98.91 126.36,173.01 143.6,173.85C159.92,174.65 196.88,109.12 215.4,100.57C230.91,93.41 270.45,96.73 287.2,95.58C303.95,94.43 342.5,94.25 359,90.68C376.03,86.99 413.94,64.4 430.8,63.78C447.45,63.17 487.52,90.17 502.6,84.85C522.17,77.94 556.53,-16.8 574.4,-18.59C590.28,-20.18 628.71,36.61 646.2,50.19Q662.33,62.71 718,94.86" style="fill: rgb(93, 35, 129); fill-opacity: 0.5; stroke-width: 0;"/></g></g><g class="errorbars"/><g class="lines"><path class="js-line" d="M0,52.73Q56.35,72.69 71.8,84.57C90.46,98.91 126.36,173.01 143.6,173.85C159.92,174.65 196.88,109.12 215.4,100.57C230.91,93.41 270.45,96.73 287.2,95.58C303.95,94.43 342.5,94.25 359,90.68C376.03,86.99 413.94,64.4 430.8,63.78C447.45,63.17 487.52,90.17 502.6,84.85C522.17,77.94 556.53,-16.8 574.4,-18.59C590.28,-20.18 628.71,36.61 646.2,50.19Q662.33,62.71 718,94.86" style="vector-effect: none; fill: none; stroke: rgb(93, 35, 129); stroke-opacity: 1; stroke-width: 4px; opacity: 1;"/></g><g class="points"/><g class="text"/></g><g class="trace scatter trace9b1874" style="stroke-miterlimit: 2; opacity: 1;"><g class="fills"/><g class="errorbars"/><g class="lines"><path class="js-line" d="M0,70.74Q54.8,92.72 71.8,96C88.32,99.19 127.03,96.22 143.6,99.11C160.55,102.07 198.79,122.3 215.4,121.5C232.3,120.68 270.23,96.98 287.2,91.25C303.75,85.66 342.2,76.68 359,72.74C375.71,68.82 414.73,54.26 430.8,57.54C448.37,61.12 485.1,104.7 502.6,107.8C518.72,110.65 557.5,90.64 574.4,88.65C591.01,86.69 629.45,90.44 646.2,90.49Q662.95,90.54 718,89.04" style="vector-effect: none; fill: none; stroke: rgb(35, 129, 93); stroke-opacity: 1; stroke-width: 4px; opacity: 1;"/></g><g class="points"/><g class="text"/></g></g></g><g class="overplot"/><path class="xlines-above crisp" d="M0,0" style="fill: none;"/><path class="ylines-above crisp" d="M0,0" style="fill: none;"/><g class="overlines-above"/><g class="xaxislayer-above"><g class="xtick"><text text-anchor="middle" x="0" y="291" transform="translate(56,0)" style="font-family: 'Segoe UI Semibold'; font-size: 15px; fill: rgb(0, 0, 0); fill-opacity: 1; white-space: pre; opacity: 1;">2012-13</text></g><g class="xtick"><text text-anchor="middle" x="0" y="291" transform="translate(127.8,0)" style="font-family: 'Segoe UI Semibold'; font-size: 15px; fill: rgb(0, 0, 0); fill-opacity: 1; white-space: pre; opacity: 1;">2013-14</text></g><g class="xtick"><text text-anchor="middle" x="0" y="291" transform="translate(199.6,0)" style="font-family: 'Segoe UI Semibold'; font-size: 15px; fill: rgb(0, 0, 0); fill-opacity: 1; white-space: pre; opacity: 1;">2014-15</text></g><g class="xtick"><text text-anchor="middle" x="0" y="291" transform="translate(271.4,0)" style="font-family: 'Segoe UI Semibold'; font-size: 15px; fill: rgb(0, 0, 0); fill-opacity: 1; white-space: pre; opacity: 1;">2015-16</text></g><g class="xtick"><text text-anchor="middle" x="0" y="291" transform="translate(343.2,0)" style="font-family: 'Segoe UI Semibold'; font-size: 15px; fill: rgb(0, 0, 0); fill-opacity: 1; white-space: pre; opacity: 1;">2016-17</text></g><g class="xtick"><text text-anchor="middle" x="0" y="291" transform="translate(415,0)" style="font-family: 'Segoe UI Semibold'; font-size: 15px; fill: rgb(0, 0, 0); fill-opacity: 1; white-space: pre; opacity: 1;">2017-18</text></g><g class="xtick"><text text-anchor="middle" x="0" y="291" transform="translate(486.8,0)" style="font-family: 'Segoe UI Semibold'; font-size: 15px; fill: rgb(0, 0, 0); fill-opacity: 1; white-space: pre; opacity: 1;">2018-19</text></g><g class="xtick"><text text-anchor="middle" x="0" y="291" transform="translate(558.6,0)" style="font-family: 'Segoe UI Semibold'; font-size: 15px; fill: rgb(0, 0, 0); fill-opacity: 1; white-space: pre; opacity: 1;">2019-20</text></g><g class="xtick"><text text-anchor="middle" x="0" y="291" transform="translate(630.4,0)" style="font-family: 'Segoe UI Semibold'; font-size: 15px; fill: rgb(0, 0, 0); fill-opacity: 1; white-space: pre; opacity: 1;">2020-21</text></g><g class="xtick"><text text-anchor="middle" x="0" y="291" transform="translate(702.2,0)" style="font-family: 'Segoe UI Semibold'; font-size: 15px; fill: rgb(0, 0, 0); fill-opacity: 1; white-space: pre; opacity: 1;">2021-22</text></g><g class="xtick"><text text-anchor="middle" x="0" y="291" transform="translate(774,0)" style="font-family: 'Segoe UI Semibold'; font-size: 15px; fill: rgb(0, 0, 0); fill-opacity: 1; white-space: pre; opacity: 1;">2022-23</text></g></g><g class="yaxislayer-above"><g class="ytick"><text text-anchor="end" x="45" y="5.25" transform="translate(0,265)" style="font-family: 'Segoe UI Semibold'; font-size: 15px; fill: rgb(0, 0, 0); fill-opacity: 1; white-space: pre; opacity: 1;">£ 70</text></g><g class="ytick"><text text-anchor="end" x="45" y="5.25" style="font-family: 'Segoe UI Semibold'; font-size: 15px; fill: rgb(0, 0, 0); fill-opacity: 1; white-space: pre; opacity: 1;" transform="translate(0,213.44)">£ 80</text></g><g class="ytick"><text text-anchor="end" x="45" y="5.25" style="font-family: 'Segoe UI Semibold'; font-size: 15px; fill: rgb(0, 0, 0); fill-opacity: 1; white-space: pre; opacity: 1;" transform="translate(0,161.89)">£ 90</text></g><g class="ytick"><text text-anchor="end" x="45" y="5.25" style="font-family: 'Segoe UI Semibold'; font-size: 15px; fill: rgb(0, 0, 0); fill-opacity: 1; white-space: pre; opacity: 1;" transform="translate(0,110.33)">£ 100</text></g><g class="ytick"><text text-anchor="end" x="45" y="5.25" style="font-family: 'Segoe UI Semibold'; font-size: 15px; fill: rgb(0, 0, 0); fill-opacity: 1; white-space: pre; opacity: 1;" transform="translate(0,58.78)">£ 110</text></g></g><g class="overaxes-above"/></g></g><g class="polarlayer"/><g class="smithlayer"/><g class="ternarylayer"/><g class="geolayer"/><g class="funnelarealayer"/><g class="pielayer"/><g class="iciclelayer"/><g class="treemaplayer"/><g class="sunburstlayer"/><g class="glimages"/><defs id="topdefs-ac6ebc"><g class="clips"/><clipPath id="legendac6ebc"><rect width="285" height="33" x="0" y="0"/></clipPath></defs><g class="layer-above"><g class="imagelayer"/><g class="shapelayer"/></g><g class="infolayer"><g class="legend" pointer-events="all" transform="translate(56,9.79999999999998)"><rect class="bg" shape-rendering="crispEdges" width="285" height="33" x="0" y="0" style="stroke: rgb(68, 68, 68); stroke-opacity: 1; fill: rgb(0, 0, 0); fill-opacity: 0; stroke-width: 0px;"/><g class="scrollbox" transform="" clip-path="url(#legendac6ebc)"><g class="groups"><g class="traces" transform="translate(0,16.25)" style="opacity: 1;"><text class="legendtext" text-anchor="start" x="40" y="5.85" style="font-family: 'Segoe UI Semibold'; font-size: 15px; fill: rgb(0, 0, 0); fill-opacity: 1; white-space: pre;">Stirling</text><g class="layers"><g class="legendfill"><path class="js-fill" d="M5,-2h30v6h-30z" style="stroke-width: 0; fill: rgb(93, 35, 129); fill-opacity: 0.5;"/></g><g class="legendlines"><path class="js-line" d="M5,-2h30" style="fill: none; stroke: rgb(93, 35, 129); stroke-opacity: 1; stroke-width: 5px;"/></g><g class="legendsymbols"><g class="legendpoints"/></g></g><rect class="legendtoggle" x="0" y="-11.25" width="90.765625" height="22.5" style="fill: rgb(0, 0, 0); fill-opacity: 0;"/></g><g class="traces" transform="translate(93.265625,16.25)" style="opacity: 1;"><text class="legendtext" text-anchor="start" x="40" y="5.85" style="font-family: 'Segoe UI Semibold'; font-size: 15px; fill: rgb(0, 0, 0); fill-opacity: 1; white-space: pre;">Family Group Median</text><g class="layers" style="opacity: 1;"><g class="legendfill"/><g class="legendlines"><path class="js-line" d="M5,0h30" style="fill: none; stroke: rgb(35, 129, 93); stroke-opacity: 1; stroke-width: 5px;"/></g><g class="legendsymbols"><g class="legendpoints"/></g></g><rect class="legendtoggle" x="0" y="-11.25" width="188.609375" height="22.5" style="fill: rgb(0, 0, 0); fill-opacity: 0;"/></g></g></g><rect class="scrollbar" rx="20" ry="3" width="0" height="0" x="0" y="0" style="fill: rgb(128, 139, 164); fill-opacity: 1;"/></g><g class="g-gtitle"/><g class="g-xtitle"/><g class="g-ytitle"/></g></svg>