<svg class="main-svg" xmlns="http://www.w3.org/2000/svg" xmlns:xlink="http://www.w3.org/1999/xlink" width="16535.4330708" height="9448.8188976" style="" viewBox="0 0 700 400"><rect x="0" y="0" width="700" height="400" style="fill: rgb(255, 255, 255); fill-opacity: 1;"/><defs id="defs-a1256b"><g class="clips"><clipPath id="clipa1256bxyplot" class="plotclip"><rect width="680" height="354"/></clipPath><clipPath class="axesclip" id="clipa1256bx"><rect x="10" y="0" width="680" height="400"/></clipPath><clipPath class="axesclip" id="clipa1256by"><rect x="0" y="10" width="700" height="354"/></clipPath><clipPath class="axesclip" id="clipa1256bxy"><rect x="10" y="10" width="680" height="354"/></clipPath></g><g class="gradients"/><g class="patterns"/></defs><g class="bglayer"><rect class="bg" x="0" y="0" width="700" height="374" style="fill: rgb(0, 0, 0); fill-opacity: 0; stroke-width: 0;"/></g><g class="layer-below"><g class="imagelayer"/><g class="shapelayer"/></g><g class="cartesianlayer"><g class="subplot xy"><g class="layer-subplot"><g class="shapelayer"/><g class="imagelayer"/></g><g class="gridlayer"><g class="x"><path class="xgrid crisp" transform="translate(59.63,0)" d="M0,10v354" style="stroke: rgb(255, 255, 255); stroke-opacity: 1; stroke-width: 1px;"/><path class="xgrid crisp" transform="translate(117.7,0)" d="M0,10v354" style="stroke: rgb(255, 255, 255); stroke-opacity: 1; stroke-width: 1px;"/><path class="xgrid crisp" transform="translate(175.78,0)" d="M0,10v354" style="stroke: rgb(255, 255, 255); stroke-opacity: 1; stroke-width: 1px;"/><path class="xgrid crisp" transform="translate(233.85,0)" d="M0,10v354" style="stroke: rgb(255, 255, 255); stroke-opacity: 1; stroke-width: 1px;"/><path class="xgrid crisp" transform="translate(291.93,0)" d="M0,10v354" style="stroke: rgb(255, 255, 255); stroke-opacity: 1; stroke-width: 1px;"/><path class="xgrid crisp" transform="translate(350,0)" d="M0,10v354" style="stroke: rgb(255, 255, 255); stroke-opacity: 1; stroke-width: 1px;"/><path class="xgrid crisp" transform="translate(408.08,0)" d="M0,10v354" style="stroke: rgb(255, 255, 255); stroke-opacity: 1; stroke-width: 1px;"/><path class="xgrid crisp" transform="translate(466.15,0)" d="M0,10v354" style="stroke: rgb(255, 255, 255); stroke-opacity: 1; stroke-width: 1px;"/><path class="xgrid crisp" transform="translate(524.23,0)" d="M0,10v354" style="stroke: rgb(255, 255, 255); stroke-opacity: 1; stroke-width: 1px;"/><path class="xgrid crisp" transform="translate(582.3,0)" d="M0,10v354" style="stroke: rgb(255, 255, 255); stroke-opacity: 1; stroke-width: 1px;"/><path class="xgrid crisp" transform="translate(640.38,0)" d="M0,10v354" style="stroke: rgb(255, 255, 255); stroke-opacity: 1; stroke-width: 1px;"/></g><g class="y"/></g><g class="zerolinelayer"/><path class="xlines-below"/><path class="ylines-below"/><g class="overlines-below"/><g class="xaxislayer-below"/><g class="yaxislayer-below"/><g class="overaxes-below"/><g class="plot" transform="translate(10,10)"><g class="scatterlayer mlayer"><g class="trace scatter tracec7fcd0" style="stroke-miterlimit: 2; opacity: 1;"><g class="fills" clip-path="url(#clipa1256bxyplot)"/><g class="errorbars"/><g class="lines"><path class="js-line" d="M49.63,50.57Q94.98,55.33 107.7,50.57C122.35,45.09 151.13,5.48 165.78,0C178.5,-4.76 211.95,-6.89 223.85,0C240.71,9.76 265.07,91.38 281.93,101.14C293.83,108.03 326.45,101.14 340,101.14C353.55,101.14 384.53,101.14 398.08,101.14C411.63,101.14 444.25,94.25 456.15,101.14C473.02,110.9 500.68,202.29 514.23,202.29C527.78,202.29 555.44,110.9 572.3,101.14Q584.2,94.25 630.38,101.14" clip-path="url(#clipa1256bxyplot)" style="vector-effect: non-scaling-stroke; fill: none; stroke: rgb(211, 211, 211); stroke-opacity: 1; stroke-width: 10px; opacity: 1;"/></g><g class="points"><path class="point" transform="translate(49.63,50.57)" d="M12.5,0A12.5,12.5 0 1,1 0,-12.5A12.5,12.5 0 0,1 12.5,0Z" style="opacity: 1; stroke-width: 0px; fill: rgb(128, 0, 128); fill-opacity: 1;"/><path class="point" transform="translate(107.7,50.57)" d="M12.5,0A12.5,12.5 0 1,1 0,-12.5A12.5,12.5 0 0,1 12.5,0Z" style="opacity: 1; stroke-width: 0px; fill: rgb(128, 0, 128); fill-opacity: 1;"/><path class="point" transform="translate(165.78,0)" d="M12.5,0A12.5,12.5 0 1,1 0,-12.5A12.5,12.5 0 0,1 12.5,0Z" style="opacity: 1; stroke-width: 0px; fill: rgb(128, 0, 128); fill-opacity: 1;"/><path class="point" transform="translate(223.85,0)" d="M12.5,0A12.5,12.5 0 1,1 0,-12.5A12.5,12.5 0 0,1 12.5,0Z" style="opacity: 1; stroke-width: 0px; fill: rgb(128, 0, 128); fill-opacity: 1;"/><path class="point" transform="translate(281.93,101.14)" d="M12.5,0A12.5,12.5 0 1,1 0,-12.5A12.5,12.5 0 0,1 12.5,0Z" style="opacity: 1; stroke-width: 0px; fill: rgb(128, 0, 128); fill-opacity: 1;"/><path class="point" transform="translate(340,101.14)" d="M12.5,0A12.5,12.5 0 1,1 0,-12.5A12.5,12.5 0 0,1 12.5,0Z" style="opacity: 1; stroke-width: 0px; fill: rgb(128, 0, 128); fill-opacity: 1;"/><path class="point" transform="translate(398.08,101.14)" d="M12.5,0A12.5,12.5 0 1,1 0,-12.5A12.5,12.5 0 0,1 12.5,0Z" style="opacity: 1; stroke-width: 0px; fill: rgb(128, 0, 128); fill-opacity: 1;"/><path class="point" transform="translate(456.15,101.14)" d="M12.5,0A12.5,12.5 0 1,1 0,-12.5A12.5,12.5 0 0,1 12.5,0Z" style="opacity: 1; stroke-width: 0px; fill: rgb(128, 0, 128); fill-opacity: 1;"/><path class="point" transform="translate(514.23,202.29)" d="M12.5,0A12.5,12.5 0 1,1 0,-12.5A12.5,12.5 0 0,1 12.5,0Z" style="opacity: 1; stroke-width: 0px; fill: rgb(128, 0, 128); fill-opacity: 1;"/><path class="point" transform="translate(572.3,101.14)" d="M12.5,0A12.5,12.5 0 1,1 0,-12.5A12.5,12.5 0 0,1 12.5,0Z" style="opacity: 1; stroke-width: 0px; fill: rgb(128, 0, 128); fill-opacity: 1;"/><path class="point" transform="translate(630.38,101.14)" d="M12.5,0A12.5,12.5 0 1,1 0,-12.5A12.5,12.5 0 0,1 12.5,0Z" style="opacity: 1; stroke-width: 0px; fill: rgb(128, 0, 128); fill-opacity: 1;"/></g><g class="text"><g class="textpoint" transform="translate(0,3)"><text x="49.63" y="50.57" text-anchor="middle" style="font-family: 'Segoe UI Semibold'; font-size: 12px; fill: rgb(255, 255, 255); fill-opacity: 1; white-space: pre;">#2</text></g><g class="textpoint" transform="translate(0,3)"><text x="107.7" y="50.57" text-anchor="middle" style="font-family: 'Segoe UI Semibold'; font-size: 12px; fill: rgb(255, 255, 255); fill-opacity: 1; white-space: pre;">#2</text></g><g class="textpoint" transform="translate(0,3)"><text x="165.78" y="0" text-anchor="middle" style="font-family: 'Segoe UI Semibold'; font-size: 12px; fill: rgb(255, 255, 255); fill-opacity: 1; white-space: pre;">#1</text></g><g class="textpoint" transform="translate(0,3)"><text x="223.85" y="0" text-anchor="middle" style="font-family: 'Segoe UI Semibold'; font-size: 12px; fill: rgb(255, 255, 255); fill-opacity: 1; white-space: pre;">#1</text></g><g class="textpoint" transform="translate(0,3)"><text x="281.93" y="101.14" text-anchor="middle" style="font-family: 'Segoe UI Semibold'; font-size: 12px; fill: rgb(255, 255, 255); fill-opacity: 1; white-space: pre;">#3</text></g><g class="textpoint" transform="translate(0,3)"><text x="340" y="101.14" text-anchor="middle" style="font-family: 'Segoe UI Semibold'; font-size: 12px; fill: rgb(255, 255, 255); fill-opacity: 1; white-space: pre;">#3</text></g><g class="textpoint" transform="translate(0,3)"><text x="398.08" y="101.14" text-anchor="middle" style="font-family: 'Segoe UI Semibold'; font-size: 12px; fill: rgb(255, 255, 255); fill-opacity: 1; white-space: pre;">#3</text></g><g class="textpoint" transform="translate(0,3)"><text x="456.15" y="101.14" text-anchor="middle" style="font-family: 'Segoe UI Semibold'; font-size: 12px; fill: rgb(255, 255, 255); fill-opacity: 1; white-space: pre;">#3</text></g><g class="textpoint" transform="translate(0,3)"><text x="514.23" y="202.29" text-anchor="middle" style="font-family: 'Segoe UI Semibold'; font-size: 12px; fill: rgb(255, 255, 255); fill-opacity: 1; white-space: pre;">#5</text></g><g class="textpoint" transform="translate(0,3)"><text x="572.3" y="101.14" text-anchor="middle" style="font-family: 'Segoe UI Semibold'; font-size: 12px; fill: rgb(255, 255, 255); fill-opacity: 1; white-space: pre;">#3</text></g><g class="textpoint" transform="translate(0,3)"><text x="630.38" y="101.14" text-anchor="middle" style="font-family: 'Segoe UI Semibold'; font-size: 12px; fill: rgb(255, 255, 255); fill-opacity: 1; white-space: pre;">#3</text></g></g></g></g></g><g class="overplot"/><path class="xlines-above crisp" d="M0,0" style="fill: none;"/><path class="ylines-above crisp" d="M0,0" style="fill: none;"/><g class="overlines-above"/><g class="xaxislayer-above"><g class="xtick"><text text-anchor="middle" x="0" y="387" transform="translate(59.63,0)" style="font-family: 'Segoe UI Semibold'; font-size: 12px; fill: rgb(0, 0, 0); fill-opacity: 1; white-space: pre; opacity: 1;">2010-11</text></g><g class="xtick"><text text-anchor="middle" x="0" y="387" transform="translate(117.7,0)" style="font-family: 'Segoe UI Semibold'; font-size: 12px; fill: rgb(0, 0, 0); fill-opacity: 1; white-space: pre; opacity: 1;">2011-12</text></g><g class="xtick"><text text-anchor="middle" x="0" y="387" transform="translate(175.78,0)" style="font-family: 'Segoe UI Semibold'; font-size: 12px; fill: rgb(0, 0, 0); fill-opacity: 1; white-space: pre; opacity: 1;">2012-13</text></g><g class="xtick"><text text-anchor="middle" x="0" y="387" transform="translate(233.85,0)" style="font-family: 'Segoe UI Semibold'; font-size: 12px; fill: rgb(0, 0, 0); fill-opacity: 1; white-space: pre; opacity: 1;">2013-14</text></g><g class="xtick"><text text-anchor="middle" x="0" y="387" transform="translate(291.93,0)" style="font-family: 'Segoe UI Semibold'; font-size: 12px; fill: rgb(0, 0, 0); fill-opacity: 1; white-space: pre; opacity: 1;">2014-15</text></g><g class="xtick"><text text-anchor="middle" x="0" y="387" transform="translate(350,0)" style="font-family: 'Segoe UI Semibold'; font-size: 12px; fill: rgb(0, 0, 0); fill-opacity: 1; white-space: pre; opacity: 1;">2015-16</text></g><g class="xtick"><text text-anchor="middle" x="0" y="387" transform="translate(408.08,0)" style="font-family: 'Segoe UI Semibold'; font-size: 12px; fill: rgb(0, 0, 0); fill-opacity: 1; white-space: pre; opacity: 1;">2016-17</text></g><g class="xtick"><text text-anchor="middle" x="0" y="387" transform="translate(466.15,0)" style="font-family: 'Segoe UI Semibold'; font-size: 12px; fill: rgb(0, 0, 0); fill-opacity: 1; white-space: pre; opacity: 1;">2017-18</text></g><g class="xtick"><text text-anchor="middle" x="0" y="387" transform="translate(524.23,0)" style="font-family: 'Segoe UI Semibold'; font-size: 12px; fill: rgb(0, 0, 0); fill-opacity: 1; white-space: pre; opacity: 1;">2018-19</text></g><g class="xtick"><text text-anchor="middle" x="0" y="387" transform="translate(582.3,0)" style="font-family: 'Segoe UI Semibold'; font-size: 12px; fill: rgb(0, 0, 0); fill-opacity: 1; white-space: pre; opacity: 1;">2019-20</text></g><g class="xtick"><text text-anchor="middle" x="0" y="387" transform="translate(640.38,0)" style="font-family: 'Segoe UI Semibold'; font-size: 12px; fill: rgb(0, 0, 0); fill-opacity: 1; white-space: pre; opacity: 1;">2020-21</text></g></g><g class="yaxislayer-above"/><g class="overaxes-above"/></g></g><g class="polarlayer"/><g class="smithlayer"/><g class="ternarylayer"/><g class="geolayer"/><g class="funnelarealayer"/><g class="pielayer"/><g class="iciclelayer"/><g class="treemaplayer"/><g class="sunburstlayer"/><g class="glimages"/><defs id="topdefs-a1256b"><g class="clips"/></defs><g class="layer-above"><g class="imagelayer"/><g class="shapelayer"/></g><g class="infolayer"><g class="g-gtitle"/><g class="g-xtitle"/></g></svg>