<svg class="main-svg" xmlns="http://www.w3.org/2000/svg" xmlns:xlink="http://www.w3.org/1999/xlink" width="790" height="305" style="" viewBox="0 0 790 305"><rect x="0" y="0" width="790" height="305" style="fill: rgb(255, 255, 255); fill-opacity: 1;"/><defs id="defs-c9a99b"><g class="clips"><clipPath id="clipc9a99bxyplot" class="plotclip"><rect width="676" height="207"/></clipPath><clipPath class="axesclip" id="clipc9a99bx"><rect x="51" y="0" width="676" height="305"/></clipPath><clipPath class="axesclip" id="clipc9a99by"><rect x="0" y="31" width="790" height="207"/></clipPath><clipPath class="axesclip" id="clipc9a99bxy"><rect x="51" y="31" width="676" height="207"/></clipPath></g><g class="gradients"/><g class="patterns"/></defs><g class="bglayer"><rect class="bg" x="41" y="21" width="696" height="227" style="fill: rgb(0, 0, 0); fill-opacity: 0; stroke-width: 0;"/></g><g class="layer-below"><g class="imagelayer"/><g class="shapelayer"/></g><g class="cartesianlayer"><g class="subplot xy"><g class="layer-subplot"><g class="shapelayer"/><g class="imagelayer"/></g><g class="minor-gridlayer"><g class="x"/><g class="y"/></g><g class="gridlayer"><g class="x"><path class="xgrid crisp" transform="translate(99.28999999999999,0)" d="M0,31v207" style="stroke: rgb(255, 255, 255); stroke-opacity: 1; stroke-width: 1px;"/><path class="xgrid crisp" transform="translate(147.57,0)" d="M0,31v207" style="stroke: rgb(255, 255, 255); stroke-opacity: 1; stroke-width: 1px;"/><path class="xgrid crisp" transform="translate(195.86,0)" d="M0,31v207" style="stroke: rgb(255, 255, 255); stroke-opacity: 1; stroke-width: 1px;"/><path class="xgrid crisp" transform="translate(244.14,0)" d="M0,31v207" style="stroke: rgb(255, 255, 255); stroke-opacity: 1; stroke-width: 1px;"/><path class="xgrid crisp" transform="translate(292.43,0)" d="M0,31v207" style="stroke: rgb(255, 255, 255); stroke-opacity: 1; stroke-width: 1px;"/><path class="xgrid crisp" transform="translate(340.71,0)" d="M0,31v207" style="stroke: rgb(255, 255, 255); stroke-opacity: 1; stroke-width: 1px;"/><path class="xgrid crisp" transform="translate(389,0)" d="M0,31v207" style="stroke: rgb(255, 255, 255); stroke-opacity: 1; stroke-width: 1px;"/><path class="xgrid crisp" transform="translate(437.29,0)" d="M0,31v207" style="stroke: rgb(255, 255, 255); stroke-opacity: 1; stroke-width: 1px;"/><path class="xgrid crisp" transform="translate(485.57,0)" d="M0,31v207" style="stroke: rgb(255, 255, 255); stroke-opacity: 1; stroke-width: 1px;"/><path class="xgrid crisp" transform="translate(533.86,0)" d="M0,31v207" style="stroke: rgb(255, 255, 255); stroke-opacity: 1; stroke-width: 1px;"/><path class="xgrid crisp" transform="translate(582.14,0)" d="M0,31v207" style="stroke: rgb(255, 255, 255); stroke-opacity: 1; stroke-width: 1px;"/><path class="xgrid crisp" transform="translate(630.43,0)" d="M0,31v207" style="stroke: rgb(255, 255, 255); stroke-opacity: 1; stroke-width: 1px;"/><path class="xgrid crisp" transform="translate(678.71,0)" d="M0,31v207" style="stroke: rgb(255, 255, 255); stroke-opacity: 1; stroke-width: 1px;"/></g><g class="y"><path class="ygrid crisp" transform="translate(0,203.5)" d="M51,0h676" style="stroke: rgb(237, 237, 237); stroke-opacity: 1; stroke-width: 1px;"/><path class="ygrid crisp" transform="translate(0,169)" d="M51,0h676" style="stroke: rgb(237, 237, 237); stroke-opacity: 1; stroke-width: 1px;"/><path class="ygrid crisp" transform="translate(0,134.5)" d="M51,0h676" style="stroke: rgb(237, 237, 237); stroke-opacity: 1; stroke-width: 1px;"/><path class="ygrid crisp" transform="translate(0,100)" d="M51,0h676" style="stroke: rgb(237, 237, 237); stroke-opacity: 1; stroke-width: 1px;"/><path class="ygrid crisp" transform="translate(0,65.5)" d="M51,0h676" style="stroke: rgb(237, 237, 237); stroke-opacity: 1; stroke-width: 1px;"/></g></g><g class="zerolinelayer"/><g class="layer-between"><g class="shapelayer"/><g class="imagelayer"/></g><path class="xlines-below"/><path class="ylines-below"/><g class="overlines-below"/><g class="xaxislayer-below"/><g class="yaxislayer-below"/><g class="overaxes-below"/><g class="overplot"><g class="xy" transform="translate(51,31)" clip-path="url(#clipc9a99bxyplot)"><g class="scatterlayer mlayer"><g class="trace scatter trace6541da" style="stroke-miterlimit: 2;"><g class="fills"><g><path class="js-fill" d="M676,483L0,483L0,93.77Q37.14,77.58 48.29,71.97C59.68,66.24 84.92,47.39 96.57,45.06C107.5,42.88 133.7,51.6 144.86,50.58C156.23,49.54 181.77,36.86 193.14,35.88C204.31,34.91 230.22,39.78 241.43,41.85C252.76,43.94 278.58,54.64 289.71,53.79C301.12,52.92 326.5,36.23 338,33.7C349.05,31.27 375.04,31.37 386.29,31.85C397.58,32.33 423.83,40.65 434.57,37.84C446.49,34.72 471.01,4.66 482.86,2.26C493.64,0.07 519.82,13.28 531.14,13.8C542.36,14.32 568.24,6.14 579.43,6.9C590.78,7.68 616.33,19.11 627.71,20.7Q638.87,22.26 676,20.7" style="fill: rgb(93, 35, 129); fill-opacity: 0.5; stroke-width: 0;"/></g></g><g class="errorbars"/><g class="lines"><path class="js-line" d="M0,93.77Q37.14,77.58 48.29,71.97C59.68,66.24 84.92,47.39 96.57,45.06C107.5,42.88 133.7,51.6 144.86,50.58C156.23,49.54 181.77,36.86 193.14,35.88C204.31,34.91 230.22,39.78 241.43,41.85C252.76,43.94 278.58,54.64 289.71,53.79C301.12,52.92 326.5,36.23 338,33.7C349.05,31.27 375.04,31.37 386.29,31.85C397.58,32.33 423.83,40.65 434.57,37.84C446.49,34.72 471.01,4.66 482.86,2.26C493.64,0.07 519.82,13.28 531.14,13.8C542.36,14.32 568.24,6.14 579.43,6.9C590.78,7.68 616.33,19.11 627.71,20.7Q638.87,22.26 676,20.7" style="vector-effect: none; fill: none; stroke: rgb(93, 35, 129); stroke-opacity: 1; stroke-width: 4px; opacity: 1;"/></g><g class="points"/><g class="text"/></g><g class="trace scatter traced051bc" style="stroke-miterlimit: 2; opacity: 1;"><g class="fills"/><g class="errorbars"/><g class="lines"><path class="js-line" d="M0,81.3Q37.2,72.22 48.29,68.12C59.75,63.88 85.01,47.34 96.57,45.24C107.57,43.24 133.64,50 144.86,49.29C156.18,48.58 181.81,40.14 193.14,39.02C204.35,37.92 230.22,38.43 241.43,39.65C252.75,40.88 278.39,48.57 289.71,49.61C300.92,50.64 326.77,49.64 338,48.62C349.3,47.59 375.08,40.2 386.29,40.76C397.62,41.32 423.23,52.89 434.57,53.65C445.76,54.4 471.82,45.87 482.86,47.5C494.37,49.19 519.61,66.55 531.14,69C542.16,71.34 568.17,68.6 579.43,69C590.7,69.4 616.5,73.23 627.71,72.45Q639.03,71.66 676,62.1" style="vector-effect: none; fill: none; stroke: rgb(35, 129, 93); stroke-opacity: 1; stroke-width: 4px; opacity: 1;"/></g><g class="points"/><g class="text"/></g></g></g></g><g class="zerolinelayer-above"/><path class="xlines-above crisp" d="" style="fill: none; stroke-width: 1px; stroke: rgb(0, 0, 0); stroke-opacity: 0;"/><path class="ylines-above crisp" d="M0,0" style="fill: none;"/><g class="overlines-above"/><g class="xaxislayer-above"><path class="xtick ticks crisp" d="M0,248v-5" transform="translate(99.28999999999999,0)" style="stroke: rgb(68, 68, 68); stroke-opacity: 1; stroke-width: 1px;"/><path class="xtick ticks crisp" d="M0,248v-5" transform="translate(147.57,0)" style="stroke: rgb(68, 68, 68); stroke-opacity: 1; stroke-width: 1px;"/><path class="xtick ticks crisp" d="M0,248v-5" transform="translate(195.86,0)" style="stroke: rgb(68, 68, 68); stroke-opacity: 1; stroke-width: 1px;"/><path class="xtick ticks crisp" d="M0,248v-5" transform="translate(244.14,0)" style="stroke: rgb(68, 68, 68); stroke-opacity: 1; stroke-width: 1px;"/><path class="xtick ticks crisp" d="M0,248v-5" transform="translate(292.43,0)" style="stroke: rgb(68, 68, 68); stroke-opacity: 1; stroke-width: 1px;"/><path class="xtick ticks crisp" d="M0,248v-5" transform="translate(340.71,0)" style="stroke: rgb(68, 68, 68); stroke-opacity: 1; stroke-width: 1px;"/><path class="xtick ticks crisp" d="M0,248v-5" transform="translate(389,0)" style="stroke: rgb(68, 68, 68); stroke-opacity: 1; stroke-width: 1px;"/><path class="xtick ticks crisp" d="M0,248v-5" transform="translate(437.29,0)" style="stroke: rgb(68, 68, 68); stroke-opacity: 1; stroke-width: 1px;"/><path class="xtick ticks crisp" d="M0,248v-5" transform="translate(485.57,0)" style="stroke: rgb(68, 68, 68); stroke-opacity: 1; stroke-width: 1px;"/><path class="xtick ticks crisp" d="M0,248v-5" transform="translate(533.86,0)" style="stroke: rgb(68, 68, 68); stroke-opacity: 1; stroke-width: 1px;"/><path class="xtick ticks crisp" d="M0,248v-5" transform="translate(582.14,0)" style="stroke: rgb(68, 68, 68); stroke-opacity: 1; stroke-width: 1px;"/><path class="xtick ticks crisp" d="M0,248v-5" transform="translate(630.43,0)" style="stroke: rgb(68, 68, 68); stroke-opacity: 1; stroke-width: 1px;"/><path class="xtick ticks crisp" d="M0,248v-5" transform="translate(678.71,0)" style="stroke: rgb(68, 68, 68); stroke-opacity: 1; stroke-width: 1px;"/><g class="xtick"><text text-anchor="start" x="0" y="264" transform="translate(51,0) rotate(29.999999999999996,0,256.5)" style="font-family: 'Segoe UI Semibold'; font-size: 15px; fill: rgb(0, 0, 0); fill-opacity: 1; white-space: pre;">2010-11</text></g><g class="xtick"><text text-anchor="start" x="0" y="264" transform="translate(99.28999999999999,0) rotate(29.999999999999996,0,256.5)" style="font-family: 'Segoe UI Semibold'; font-size: 15px; fill: rgb(0, 0, 0); fill-opacity: 1; white-space: pre;">2011-12</text></g><g class="xtick"><text text-anchor="start" x="0" y="264" transform="translate(147.57,0) rotate(29.999999999999996,0,256.5)" style="font-family: 'Segoe UI Semibold'; font-size: 15px; fill: rgb(0, 0, 0); fill-opacity: 1; white-space: pre;">2012-13</text></g><g class="xtick"><text text-anchor="start" x="0" y="264" transform="translate(195.86,0) rotate(29.999999999999996,0,256.5)" style="font-family: 'Segoe UI Semibold'; font-size: 15px; fill: rgb(0, 0, 0); fill-opacity: 1; white-space: pre;">2013-14</text></g><g class="xtick"><text text-anchor="start" x="0" y="264" transform="translate(244.14,0) rotate(29.999999999999996,0,256.5)" style="font-family: 'Segoe UI Semibold'; font-size: 15px; fill: rgb(0, 0, 0); fill-opacity: 1; white-space: pre;">2014-15</text></g><g class="xtick"><text text-anchor="start" x="0" y="264" transform="translate(292.43,0) rotate(29.999999999999996,0,256.5)" style="font-family: 'Segoe UI Semibold'; font-size: 15px; fill: rgb(0, 0, 0); fill-opacity: 1; white-space: pre;">2015-16</text></g><g class="xtick"><text text-anchor="start" x="0" y="264" transform="translate(340.71,0) rotate(29.999999999999996,0,256.5)" style="font-family: 'Segoe UI Semibold'; font-size: 15px; fill: rgb(0, 0, 0); fill-opacity: 1; white-space: pre;">2016-17</text></g><g class="xtick"><text text-anchor="start" x="0" y="264" transform="translate(389,0) rotate(29.999999999999996,0,256.5)" style="font-family: 'Segoe UI Semibold'; font-size: 15px; fill: rgb(0, 0, 0); fill-opacity: 1; white-space: pre;">2017-18</text></g><g class="xtick"><text text-anchor="start" x="0" y="264" transform="translate(437.29,0) rotate(29.999999999999996,0,256.5)" style="font-family: 'Segoe UI Semibold'; font-size: 15px; fill: rgb(0, 0, 0); fill-opacity: 1; white-space: pre;">2018-19</text></g><g class="xtick"><text text-anchor="start" x="0" y="264" transform="translate(485.57,0) rotate(29.999999999999996,0,256.5)" style="font-family: 'Segoe UI Semibold'; font-size: 15px; fill: rgb(0, 0, 0); fill-opacity: 1; white-space: pre;">2019-20</text></g><g class="xtick"><text text-anchor="start" x="0" y="264" transform="translate(533.86,0) rotate(29.999999999999996,0,256.5)" style="font-family: 'Segoe UI Semibold'; font-size: 15px; fill: rgb(0, 0, 0); fill-opacity: 1; white-space: pre;">2020-21</text></g><g class="xtick"><text text-anchor="start" x="0" y="264" transform="translate(582.14,0) rotate(29.999999999999996,0,256.5)" style="font-family: 'Segoe UI Semibold'; font-size: 15px; fill: rgb(0, 0, 0); fill-opacity: 1; white-space: pre;">2021-22</text></g><g class="xtick"><text text-anchor="start" x="0" y="264" transform="translate(630.43,0) rotate(29.999999999999996,0,256.5)" style="font-family: 'Segoe UI Semibold'; font-size: 15px; fill: rgb(0, 0, 0); fill-opacity: 1; white-space: pre;">2022-23</text></g><g class="xtick"><text text-anchor="start" x="0" y="264" transform="translate(678.71,0) rotate(29.999999999999996,0,256.5)" style="font-family: 'Segoe UI Semibold'; font-size: 15px; fill: rgb(0, 0, 0); fill-opacity: 1; white-space: pre;">2023-24</text></g><g class="xtick"><text text-anchor="start" x="0" y="264" transform="translate(727,0) rotate(29.999999999999996,0,256.5)" style="font-family: 'Segoe UI Semibold'; font-size: 15px; fill: rgb(0, 0, 0); fill-opacity: 1; white-space: pre;">2024-25</text></g></g><g class="yaxislayer-above"><g class="ytick"><text text-anchor="end" x="40" y="5.25" transform="translate(0,238)" style="font-family: 'Segoe UI Semibold'; font-size: 15px; fill: rgb(0, 0, 0); fill-opacity: 1; white-space: pre;">40%</text></g><g class="ytick"><text text-anchor="end" x="40" y="5.25" style="font-family: 'Segoe UI Semibold'; font-size: 15px; fill: rgb(0, 0, 0); fill-opacity: 1; white-space: pre;" transform="translate(0,203.5)">45%</text></g><g class="ytick"><text text-anchor="end" x="40" y="5.25" style="font-family: 'Segoe UI Semibold'; font-size: 15px; fill: rgb(0, 0, 0); fill-opacity: 1; white-space: pre;" transform="translate(0,169)">50%</text></g><g class="ytick"><text text-anchor="end" x="40" y="5.25" style="font-family: 'Segoe UI Semibold'; font-size: 15px; fill: rgb(0, 0, 0); fill-opacity: 1; white-space: pre;" transform="translate(0,134.5)">55%</text></g><g class="ytick"><text text-anchor="end" x="40" y="5.25" style="font-family: 'Segoe UI Semibold'; font-size: 15px; fill: rgb(0, 0, 0); fill-opacity: 1; white-space: pre;" transform="translate(0,100)">60%</text></g><g class="ytick"><text text-anchor="end" x="40" y="5.25" style="font-family: 'Segoe UI Semibold'; font-size: 15px; fill: rgb(0, 0, 0); fill-opacity: 1; white-space: pre;" transform="translate(0,65.5)">65%</text></g><g class="ytick"><text text-anchor="end" x="40" y="5.25" style="font-family: 'Segoe UI Semibold'; font-size: 15px; fill: rgb(0, 0, 0); fill-opacity: 1; white-space: pre;" transform="translate(0,31)">70%</text></g></g><g class="overaxes-above"/></g></g><g class="polarlayer"/><g class="smithlayer"/><g class="ternarylayer"/><g class="geolayer"/><g class="funnelarealayer"/><g class="pielayer"/><g class="iciclelayer"/><g class="treemaplayer"/><g class="sunburstlayer"/><g class="glimages"/><defs id="topdefs-c9a99b"><g class="clips"/><clipPath id="legendc9a99b"><rect width="285" height="33" x="0" y="0"/></clipPath></defs><g class="layer-above"><g class="imagelayer"/><g class="shapelayer"/></g><g class="infolayer"><g class="legend" pointer-events="all" transform="translate(51,10.299999999999983)"><rect class="bg" shape-rendering="crispEdges" style="stroke: rgb(68, 68, 68); stroke-opacity: 1; fill: rgb(0, 0, 0); fill-opacity: 0; stroke-width: 0px;" width="285" height="33" x="0" y="0"/><g class="scrollbox" transform="" clip-path="url(#legendc9a99b)"><g class="groups"><g class="traces" transform="translate(0,16.25)" style="opacity: 1;"><text class="legendtext" text-anchor="start" x="40" y="5.85" style="font-family: 'Segoe UI Semibold'; font-size: 15px; fill: rgb(0, 0, 0); fill-opacity: 1; white-space: pre;">Stirling</text><g class="layers"><g class="legendfill"><path class="js-fill" d="M5,-2h30v6h-30z" style="stroke-width: 0; fill: rgb(93, 35, 129); fill-opacity: 0.5;"/></g><g class="legendlines"><path class="js-line" d="M5,-2h30" style="fill: none; stroke: rgb(93, 35, 129); stroke-opacity: 1; stroke-width: 5px;"/></g><g class="legendsymbols"><g class="legendpoints"/></g></g><rect class="legendtoggle" x="0" y="-11.25" width="90.765625" height="22.5" style="fill: rgb(0, 0, 0); fill-opacity: 0;"/></g><g class="traces" transform="translate(93.265625,16.25)" style="opacity: 1;"><text class="legendtext" text-anchor="start" x="40" y="5.85" style="font-family: 'Segoe UI Semibold'; font-size: 15px; fill: rgb(0, 0, 0); fill-opacity: 1; white-space: pre;">Family Group Median</text><g class="layers" style="opacity: 1;"><g class="legendfill"/><g class="legendlines"><path class="js-line" d="M5,0h30" style="fill: none; stroke: rgb(35, 129, 93); stroke-opacity: 1; stroke-width: 5px;"/></g><g class="legendsymbols"><g class="legendpoints"/></g></g><rect class="legendtoggle" x="0" y="-11.25" width="188.6015625" height="22.5" style="fill: rgb(0, 0, 0); fill-opacity: 0;"/></g></g></g><rect class="scrollbar" rx="20" ry="3" width="0" height="0" style="fill: rgb(128, 139, 164); fill-opacity: 1;" x="0" y="0"/></g><g class="g-gtitle"/><g class="g-xtitle"/><g class="g-ytitle"/></g></svg>